{"glyphs":{"0":{"ha":899,"x_min":65,"x_max":833,"o":"m 490 -33 q 380 -32 436 -37 q 272 -7 324 -26 q 206 31 236 7 q 153 85 175 54 q 108 166 125 122 q 81 256 90 210 q 65 402 65 328 q 74 551 65 476 q 94 680 81 617 q 132 804 108 743 q 163 867 146 836 q 201 926 179 899 q 276 983 233 967 q 376 1008 325 1003 q 478 1014 426 1014 q 583 1010 531 1015 q 681 981 635 1004 q 735 942 711 965 q 774 888 758 918 q 810 784 799 839 q 826 674 822 729 q 826 503 833 588 q 810 332 819 418 q 802 261 807 296 q 789 192 797 226 q 776 141 783 165 q 756 93 768 117 q 722 47 742 68 q 678 13 703 26 q 587 -20 635 -10 q 490 -33 539 -31 m 490 625 q 535 572 511 597 q 583 521 560 546 q 585 600 583 561 q 576 678 586 639 q 557 722 569 701 q 527 758 544 743 q 488 778 510 772 q 443 778 467 783 q 425 772 433 775 q 408 765 417 768 q 405 765 407 765 q 404 764 403 764 q 448 694 431 732 q 490 625 465 657 m 347 289 q 375 249 357 265 q 416 227 393 233 q 464 223 439 221 q 513 236 489 225 q 549 268 536 249 q 548 274 551 271 q 543 279 544 276 q 434 431 483 353 q 328 585 385 510 q 324 504 325 544 q 325 424 324 464 q 331 355 328 389 q 347 289 335 321 z "},"1":{"ha":596,"x_min":28,"x_max":519,"o":"m 515 8 q 511 -9 518 -1 q 494 -17 504 -17 q 454 -15 483 -17 q 393 -10 425 -12 q 332 -7 361 -8 q 292 -7 303 -6 q 270 -12 288 -8 q 247 -15 253 -15 q 232 -8 236 -15 q 226 8 228 -1 q 225 30 225 18 q 225 53 225 42 q 229 215 224 135 q 239 376 235 294 q 240 408 239 386 q 242 460 240 431 q 244 522 243 489 q 245 585 244 556 q 247 636 246 614 q 247 668 247 658 q 227 645 240 660 q 199 616 214 631 q 168 590 183 601 q 142 578 153 579 q 119 583 131 575 q 97 597 108 590 q 67 622 82 608 q 42 651 53 636 q 31 676 35 663 q 31 701 28 689 q 41 727 33 715 q 57 750 49 739 q 69 765 60 754 q 90 789 79 776 q 111 813 101 801 q 124 828 121 824 q 158 873 142 850 q 189 921 175 896 q 199 939 192 926 q 213 966 206 951 q 228 993 221 981 q 239 1010 235 1006 q 268 1023 249 1018 q 309 1030 288 1028 q 351 1032 331 1032 q 385 1032 372 1032 q 435 1026 410 1032 q 478 1001 461 1019 q 492 978 488 992 q 499 951 497 965 q 502 894 503 922 q 501 836 501 865 q 506 726 504 781 q 508 614 507 671 q 504 401 508 507 q 511 188 500 294 q 517 135 514 161 q 519 83 519 110 q 519 71 519 81 q 519 51 519 61 q 517 31 518 40 q 517 19 517 22 q 516 14 517 17 q 515 8 515 11 z "},"2":{"ha":819,"x_min":64,"x_max":757,"o":"m 169 -19 q 121 -22 146 -21 q 76 -11 96 -24 q 65 11 64 0 q 74 61 69 36 q 82 111 79 86 q 85 142 83 121 q 90 188 88 164 q 97 233 93 213 q 106 263 100 254 q 127 285 114 276 q 154 301 140 294 q 225 338 189 321 q 293 378 261 354 q 368 434 331 406 q 436 499 406 463 q 476 563 460 528 q 496 635 492 599 q 495 668 499 651 q 488 701 492 685 q 467 747 481 725 q 431 782 453 769 q 391 794 415 792 q 353 785 367 796 q 335 760 343 776 q 323 723 328 743 q 315 684 318 703 q 313 653 313 665 q 316 635 313 649 q 319 618 319 621 q 322 585 322 604 q 311 560 322 567 q 303 554 307 557 q 294 551 300 551 q 251 547 272 549 q 207 543 229 546 q 186 539 196 542 q 165 536 176 536 l 107 540 q 82 563 86 540 q 76 607 78 586 q 78 714 74 660 q 100 819 83 768 q 148 909 117 867 q 221 979 179 951 q 297 1011 256 1003 q 379 1021 339 1019 q 478 1015 428 1024 q 572 988 528 1007 q 646 931 614 968 q 697 851 678 893 q 740 683 733 774 q 717 514 747 593 q 687 456 706 483 q 649 403 668 428 q 605 353 628 378 q 556 310 582 329 q 501 274 529 290 q 446 243 474 258 q 465 241 456 242 q 483 240 474 240 q 590 247 536 242 q 697 253 644 253 q 719 251 711 256 q 743 251 732 258 q 751 229 754 243 q 748 212 750 225 q 744 184 746 199 q 740 156 742 169 q 738 139 738 143 q 739 118 738 133 q 742 85 740 103 q 747 51 744 67 q 750 31 749 36 q 751 7 757 18 q 731 -3 744 -4 q 714 -10 722 -11 q 624 -10 669 -7 q 533 -15 578 -12 q 351 -17 442 -19 q 169 -19 261 -15 z "},"3":{"ha":792,"x_min":64,"x_max":731,"o":"m 457 -31 q 324 -35 390 -37 q 192 -25 258 -32 q 148 -19 169 -22 q 103 -18 126 -15 q 96 -19 100 -18 q 89 -18 92 -19 q 76 -4 82 -14 q 64 17 64 3 q 65 75 65 46 q 65 135 65 104 q 66 146 65 138 q 67 165 67 154 q 69 184 68 175 q 69 196 69 193 q 77 214 71 207 q 94 218 83 221 q 191 204 143 210 q 288 201 239 199 q 359 210 324 203 q 424 236 394 217 q 456 280 447 251 q 453 332 465 308 q 428 358 444 347 q 396 372 413 368 q 342 381 369 381 q 288 381 315 382 q 269 381 282 381 q 242 381 256 381 q 215 379 228 381 q 197 376 203 378 q 179 371 186 371 q 163 380 168 371 q 160 399 157 389 q 162 410 161 401 q 164 422 163 419 q 165 447 164 429 q 165 486 165 465 q 165 526 165 507 q 165 551 165 544 q 170 570 164 563 q 188 576 176 578 q 263 576 225 575 q 338 582 300 576 q 388 594 364 585 q 432 621 413 603 q 456 658 450 639 q 446 717 464 689 q 409 750 432 738 q 363 769 386 763 q 279 784 322 782 q 194 783 236 786 q 170 781 182 782 q 146 778 158 781 q 124 769 135 775 q 103 761 114 764 q 82 767 93 758 q 72 786 71 776 q 74 813 74 800 q 74 840 75 826 q 73 864 74 847 q 72 899 72 881 q 71 935 71 918 q 72 958 71 951 q 76 967 74 964 q 81 975 79 971 q 97 997 83 990 q 142 1007 111 1004 q 209 1010 174 1010 q 276 1008 244 1010 q 325 1006 308 1007 q 424 990 375 1001 q 522 964 474 979 q 582 935 554 953 q 631 894 610 918 q 690 780 671 846 q 699 651 710 714 q 662 573 690 608 q 599 511 633 538 q 653 466 628 492 q 694 408 678 440 q 728 279 725 350 q 708 146 731 208 q 656 58 690 96 q 565 -2 618 19 q 457 -31 511 -24 z "},"4":{"ha":901,"x_min":63,"x_max":828,"o":"m 594 -11 q 572 -14 583 -12 q 549 -12 560 -15 q 530 -2 539 -10 q 521 17 521 6 q 518 190 518 104 q 521 364 518 276 q 412 363 467 367 q 301 358 357 360 q 274 358 294 358 q 228 357 253 357 q 183 357 204 357 q 156 357 163 357 q 135 356 144 357 q 115 358 125 356 q 86 389 92 365 q 79 406 79 396 q 78 444 79 415 q 76 507 78 474 q 74 569 75 540 q 74 608 74 599 q 72 682 72 644 q 68 756 71 719 q 65 800 67 769 q 63 864 64 831 q 64 928 63 897 q 69 971 65 958 l 69 983 q 101 1015 79 1006 q 149 1014 122 1021 q 174 1010 156 1011 q 213 1010 192 1010 q 251 1010 233 1010 q 278 1011 269 1011 q 314 1010 292 1011 q 343 996 336 1008 q 361 990 354 996 q 368 975 368 985 q 367 944 367 960 q 365 913 367 928 q 364 892 365 907 q 361 862 363 878 q 359 831 360 846 q 358 811 358 817 q 366 686 361 749 q 372 561 371 624 q 392 567 383 564 q 413 568 401 569 q 435 567 418 568 q 470 566 451 567 q 506 565 489 565 q 528 564 522 564 q 532 639 531 601 q 536 714 533 676 q 540 760 538 738 q 543 804 543 782 q 544 828 544 811 q 547 851 544 844 q 550 865 550 856 q 549 883 550 874 q 546 902 547 893 q 544 917 544 911 q 542 955 542 936 q 540 993 543 974 q 547 1009 540 1003 q 561 1015 553 1015 l 565 1015 q 606 1018 585 1022 q 649 1011 628 1014 q 697 1026 671 1025 q 750 1025 724 1026 q 790 1021 769 1025 q 810 997 810 1017 q 810 991 810 994 q 811 985 811 988 q 810 939 811 974 q 808 865 808 904 q 806 792 807 826 q 804 746 804 757 q 807 654 804 700 q 810 561 810 608 q 806 438 810 499 q 806 314 803 376 q 811 256 807 285 q 819 197 815 226 q 827 117 826 157 q 824 36 828 76 q 815 3 821 19 q 794 -10 810 -12 q 788 -10 792 -8 q 781 -12 783 -12 q 745 -12 772 -12 q 688 -11 718 -11 q 631 -11 658 -11 q 594 -11 604 -11 z "},"5":{"ha":789,"x_min":60,"x_max":721,"o":"m 440 -8 q 334 -3 388 -11 q 229 22 281 6 q 142 74 181 39 q 114 107 129 85 q 87 154 99 129 q 67 204 75 179 q 61 246 60 229 q 64 274 63 260 q 71 300 65 288 q 76 308 74 304 q 82 315 79 311 q 105 326 88 324 q 132 332 122 329 q 185 336 158 335 q 236 333 211 338 q 288 306 267 329 q 309 274 300 292 q 331 243 318 257 q 363 222 343 229 q 399 217 379 217 q 438 224 419 218 q 473 240 457 229 q 497 265 489 250 q 509 304 506 282 q 510 349 513 326 q 501 391 508 371 q 479 425 493 411 q 438 450 463 442 q 390 461 414 458 q 327 463 358 464 q 264 460 296 463 q 241 458 257 460 q 208 456 225 457 q 176 456 192 456 q 154 460 161 457 q 135 476 143 464 q 124 500 126 488 q 121 536 122 511 q 118 593 119 561 q 116 660 117 625 q 115 728 115 696 q 114 786 114 761 q 114 824 114 811 q 117 859 115 842 q 122 896 119 876 q 122 906 122 899 q 121 917 121 914 q 122 947 121 932 q 126 975 124 961 q 133 991 129 983 q 140 1006 138 999 q 163 1019 144 1022 q 170 1017 167 1018 q 176 1014 174 1015 q 192 1013 185 1013 q 207 1014 200 1014 q 288 1013 247 1014 q 369 1013 329 1013 q 422 1014 382 1013 q 506 1016 461 1015 q 591 1017 551 1017 q 643 1017 631 1017 q 667 1011 657 1017 q 689 997 685 1011 q 696 954 696 976 q 694 910 696 932 q 691 850 692 879 q 689 790 690 821 q 690 782 689 786 q 688 774 690 778 q 674 760 685 763 q 654 765 663 758 q 614 763 644 764 q 549 763 583 763 q 483 762 514 763 q 443 761 453 761 q 397 757 419 758 q 351 757 375 756 q 351 740 351 753 q 352 712 351 726 q 353 685 353 697 q 353 668 353 672 q 452 669 401 674 q 551 650 503 665 q 596 631 575 643 q 636 604 617 619 q 657 590 647 597 q 674 571 667 582 q 694 532 686 553 q 707 490 701 511 q 721 385 721 439 q 714 279 721 332 q 699 194 708 238 q 665 115 689 151 q 620 63 647 86 q 561 24 593 39 q 503 1 533 8 q 440 -8 472 -6 z "},"6":{"ha":831,"x_min":64,"x_max":778,"o":"m 608 25 q 523 1 568 7 q 433 -4 478 -6 q 346 3 389 -3 q 261 22 303 10 q 185 64 218 33 q 140 124 157 90 q 111 194 124 158 q 81 323 89 257 q 68 456 74 389 q 66 578 64 517 q 81 699 68 639 q 136 831 96 768 q 232 939 176 894 q 297 985 264 964 q 369 1019 331 1007 q 473 1040 419 1035 q 579 1049 526 1046 q 615 1050 594 1050 q 642 1036 635 1050 q 647 1028 644 1032 q 651 1017 650 1024 q 657 938 654 976 q 663 858 660 899 q 658 842 664 851 q 659 820 665 831 q 640 810 653 810 q 574 811 607 810 q 508 806 540 813 q 440 786 474 799 q 381 750 407 774 q 335 668 347 718 q 331 574 322 618 q 411 600 371 588 q 493 615 451 613 q 545 615 519 618 q 596 604 571 611 q 651 585 624 597 q 697 553 678 572 q 736 495 721 528 q 760 429 751 463 q 776 319 774 376 q 763 208 778 261 q 743 155 756 181 q 713 106 731 129 q 666 59 693 79 q 608 25 639 39 m 368 253 q 386 238 374 244 q 414 228 399 232 q 444 224 429 225 q 468 222 458 222 q 501 228 485 224 q 532 242 518 232 q 560 290 556 257 q 554 347 565 322 q 535 369 547 361 q 494 379 519 378 q 442 378 469 381 q 388 370 414 376 q 347 358 363 364 q 351 336 349 351 q 356 304 353 321 q 361 273 358 288 q 368 253 364 258 z "},"7":{"ha":699,"x_min":54,"x_max":682,"o":"m 357 -22 q 333 -26 346 -26 q 310 -22 321 -25 q 277 -19 301 -22 q 225 -14 253 -17 q 173 -8 197 -11 q 140 -4 149 -6 q 118 1 129 -3 q 96 7 107 4 q 79 17 83 8 q 76 37 75 25 q 81 61 76 49 q 90 86 86 74 q 106 128 97 107 q 122 169 114 149 q 168 313 149 240 q 210 457 188 385 q 250 571 228 515 q 290 685 272 626 q 307 731 297 708 q 326 776 317 753 q 295 772 318 775 q 247 767 272 769 q 200 764 222 765 q 169 763 178 763 q 150 766 160 764 q 132 765 140 768 q 113 759 122 763 q 93 753 104 756 q 78 756 85 751 q 69 769 71 761 q 66 778 68 774 q 64 786 64 782 q 65 840 64 814 q 64 894 65 867 q 62 915 64 906 q 58 936 60 925 q 56 963 57 949 q 55 990 54 978 q 61 1008 56 1001 q 79 1014 67 1015 q 103 1019 90 1022 q 131 1015 117 1017 q 199 1015 149 1015 q 308 1016 250 1015 q 417 1018 367 1017 q 486 1021 468 1019 q 556 1027 522 1024 q 626 1032 590 1031 q 660 1028 643 1032 q 678 1008 678 1025 q 680 998 678 1003 q 679 989 682 993 q 640 895 658 942 q 601 801 621 849 q 572 735 586 768 q 544 669 557 703 q 528 619 535 644 q 517 565 522 593 q 491 434 504 499 q 460 304 478 369 q 447 260 457 293 q 424 189 436 226 q 403 117 413 151 q 390 72 393 83 q 385 34 386 53 q 382 -4 383 15 q 374 -19 381 -14 q 357 -22 367 -25 z "},"8":{"ha":821,"x_min":53,"x_max":760,"o":"m 558 -26 q 364 -36 465 -44 q 287 -24 325 -33 q 213 1 249 -15 q 160 35 185 15 q 117 82 135 56 q 81 154 93 115 q 64 233 69 193 q 78 374 53 306 q 158 493 103 443 q 190 517 174 507 q 222 536 206 528 q 193 560 207 547 q 168 589 179 574 q 115 717 131 646 q 118 853 99 788 q 151 915 129 886 q 203 963 174 943 q 304 1003 249 992 q 400 1013 351 1014 q 496 1004 449 1011 q 586 977 542 997 q 664 925 631 957 q 722 818 708 882 q 719 703 732 763 q 676 611 707 654 q 610 532 646 568 q 649 507 629 521 q 683 476 668 493 q 713 435 700 457 q 736 390 726 414 q 758 280 756 339 q 744 168 760 221 q 715 93 733 131 q 667 28 696 56 q 616 -6 644 7 q 558 -26 588 -19 m 358 628 q 414 606 385 603 q 464 631 443 610 q 492 684 485 651 q 486 750 500 717 q 465 782 479 768 q 431 801 450 796 q 397 801 415 806 q 365 786 379 797 q 339 750 349 771 q 328 707 329 729 q 335 664 328 685 q 358 628 342 643 m 326 242 q 376 217 349 224 q 429 215 403 211 q 479 232 456 218 q 518 268 503 246 q 534 313 532 288 q 526 360 536 338 q 482 410 511 392 q 419 430 453 428 q 353 419 385 432 q 300 376 321 406 q 285 338 289 360 q 288 297 282 317 q 326 242 299 264 z "},"9":{"ha":821,"x_min":58,"x_max":757,"o":"m 331 -4 q 267 -8 299 -7 q 204 -7 236 -8 q 169 -6 189 -7 q 143 10 149 -4 q 138 19 140 14 q 135 29 135 24 l 135 189 q 140 206 135 200 q 141 226 135 217 q 160 235 147 236 q 178 233 164 235 q 206 231 192 232 q 234 229 221 231 q 251 228 247 228 q 290 231 271 228 q 328 238 308 233 q 377 252 353 243 q 422 276 401 261 q 449 303 438 288 q 468 336 460 319 q 485 391 481 361 q 485 449 489 421 q 403 429 444 439 q 321 419 363 419 q 269 425 294 419 q 219 438 243 431 q 166 460 192 446 q 121 497 140 475 q 87 556 99 524 q 68 624 75 589 q 60 735 58 678 q 81 844 61 792 q 138 943 100 901 q 188 986 160 968 q 247 1017 217 1004 q 328 1034 286 1031 q 411 1035 369 1038 q 483 1026 447 1032 q 556 1008 519 1019 q 618 984 588 999 q 669 944 649 969 q 703 892 689 921 q 725 833 717 864 q 748 722 743 779 q 756 607 753 665 q 756 511 757 560 q 748 415 754 463 q 729 320 742 367 q 696 232 717 274 q 618 128 667 174 q 515 50 569 83 q 427 12 475 25 q 331 -4 379 -1 m 347 654 q 417 653 382 651 q 485 665 453 654 q 483 689 485 674 q 481 722 482 704 q 476 753 479 739 q 468 775 472 768 q 447 791 461 785 q 417 801 433 797 q 383 807 400 806 q 356 808 367 808 q 317 799 336 807 q 288 775 299 790 q 273 725 275 756 q 286 676 271 694 q 314 660 297 664 q 347 654 331 656 z "},"\r":{"ha":347,"x_min":0,"x_max":0,"o":""},"\u0000":{"ha":0,"x_min":0,"x_max":0,"o":""}," ":{"ha":347,"x_min":0,"x_max":0,"o":""},"!":{"ha":474,"x_min":72,"x_max":406,"o":"m 356 332 q 339 325 349 324 q 277 331 308 332 q 214 331 246 329 q 192 331 203 331 q 171 331 182 332 q 139 328 160 329 q 111 336 118 326 l 110 338 q 98 371 99 346 q 96 411 97 396 q 81 640 90 526 q 72 869 72 754 q 73 890 72 875 q 74 923 74 906 q 74 956 74 940 q 75 975 75 971 q 76 981 75 976 q 78 988 78 986 q 85 1010 75 1001 q 107 1011 96 1018 q 143 1008 125 1011 q 181 1008 161 1006 q 219 1011 190 1008 q 280 1017 247 1014 q 340 1023 313 1021 q 379 1024 368 1025 q 397 1022 389 1029 q 406 1004 406 1015 q 404 948 406 990 q 401 856 403 906 q 397 765 399 807 q 396 708 396 722 q 389 630 393 668 q 382 551 385 592 q 381 510 382 539 q 379 448 381 481 q 376 387 378 415 q 369 347 374 358 q 363 339 367 342 q 356 332 358 336 m 256 -10 q 224 -11 243 -11 q 185 -9 206 -11 q 147 -3 165 -7 q 121 10 129 1 q 103 38 110 19 q 95 78 97 57 q 94 120 93 100 q 100 156 96 140 q 108 172 103 164 q 119 186 113 181 q 142 198 125 192 q 167 206 160 204 q 215 214 190 208 q 263 219 239 219 q 300 215 282 219 q 331 197 318 210 q 353 160 346 182 q 364 118 361 139 q 365 76 367 97 q 353 36 364 56 q 321 7 342 15 q 289 -4 306 -1 q 256 -10 272 -7 z "},"\"":{"ha":526,"x_min":42,"x_max":482,"o":"m 194 710 q 175 701 188 704 q 148 698 163 699 q 119 697 133 697 q 97 699 106 697 q 64 728 68 703 q 61 763 63 736 q 58 821 60 790 q 54 878 56 851 q 51 914 53 906 q 48 931 50 919 q 44 956 46 943 q 42 980 43 968 q 44 997 42 992 q 56 1010 47 1004 q 71 1018 64 1015 q 96 1021 79 1019 q 131 1023 113 1022 q 167 1022 150 1024 q 192 1019 183 1021 q 221 997 213 1015 q 226 981 225 990 q 226 964 226 972 q 225 926 226 954 q 222 867 224 899 q 217 807 219 835 q 214 769 215 779 q 210 738 213 754 q 194 710 207 721 m 450 699 q 431 690 443 693 q 403 687 418 688 q 374 686 388 686 q 351 688 360 686 q 318 717 325 689 q 315 752 317 725 q 312 809 314 779 q 308 866 310 839 q 306 901 307 893 q 303 919 304 907 q 300 944 301 931 q 298 968 299 957 q 300 985 297 979 q 310 998 303 993 q 326 1006 318 1003 q 351 1009 335 1007 q 387 1011 368 1011 q 422 1010 406 1011 q 447 1007 439 1010 q 464 999 456 1004 q 476 985 472 993 q 481 969 481 978 q 482 951 482 960 q 481 914 482 942 q 477 854 479 886 q 473 794 475 822 q 469 757 471 767 q 465 726 468 742 q 450 699 461 710 z "},"«":{"ha":526,"x_min":42,"x_max":482,"o":"m 194 710 q 175 701 188 704 q 148 698 163 699 q 119 697 133 697 q 97 699 106 697 q 64 728 68 703 q 61 763 63 736 q 58 821 60 790 q 54 878 56 851 q 51 914 53 906 q 48 931 50 919 q 44 956 46 943 q 42 980 43 968 q 44 997 42 992 q 56 1010 47 1004 q 71 1018 64 1015 q 96 1021 79 1019 q 131 1023 113 1022 q 167 1022 150 1024 q 192 1019 183 1021 q 221 997 213 1015 q 226 981 225 990 q 226 964 226 972 q 225 926 226 954 q 222 867 224 899 q 217 807 219 835 q 214 769 215 779 q 210 738 213 754 q 194 710 207 721 m 450 699 q 431 690 443 693 q 403 687 418 688 q 374 686 388 686 q 351 688 360 686 q 318 717 325 689 q 315 752 317 725 q 312 809 314 779 q 308 866 310 839 q 306 901 307 893 q 303 919 304 907 q 300 944 301 931 q 298 968 299 957 q 300 985 297 979 q 310 998 303 993 q 326 1006 318 1003 q 351 1009 335 1007 q 387 1011 368 1011 q 422 1010 406 1011 q 447 1007 439 1010 q 464 999 456 1004 q 476 985 472 993 q 481 969 481 978 q 482 951 482 960 q 481 914 482 942 q 477 854 479 886 q 473 794 475 822 q 469 757 471 767 q 465 726 468 742 q 450 699 461 710 z "},"»":{"ha":526,"x_min":42,"x_max":482,"o":"m 194 710 q 175 701 188 704 q 148 698 163 699 q 119 697 133 697 q 97 699 106 697 q 64 728 68 703 q 61 763 63 736 q 58 821 60 790 q 54 878 56 851 q 51 914 53 906 q 48 931 50 919 q 44 956 46 943 q 42 980 43 968 q 44 997 42 992 q 56 1010 47 1004 q 71 1018 64 1015 q 96 1021 79 1019 q 131 1023 113 1022 q 167 1022 150 1024 q 192 1019 183 1021 q 221 997 213 1015 q 226 981 225 990 q 226 964 226 972 q 225 926 226 954 q 222 867 224 899 q 217 807 219 835 q 214 769 215 779 q 210 738 213 754 q 194 710 207 721 m 450 699 q 431 690 443 693 q 403 687 418 688 q 374 686 388 686 q 351 688 360 686 q 318 717 325 689 q 315 752 317 725 q 312 809 314 779 q 308 866 310 839 q 306 901 307 893 q 303 919 304 907 q 300 944 301 931 q 298 968 299 957 q 300 985 297 979 q 310 998 303 993 q 326 1006 318 1003 q 351 1009 335 1007 q 387 1011 368 1011 q 422 1010 406 1011 q 447 1007 439 1010 q 464 999 456 1004 q 476 985 472 993 q 481 969 481 978 q 482 951 482 960 q 481 914 482 942 q 477 854 479 886 q 473 794 475 822 q 469 757 471 767 q 465 726 468 742 q 450 699 461 710 z "},"„":{"ha":526,"x_min":42,"x_max":482,"o":"m 194 710 q 175 701 188 704 q 148 698 163 699 q 119 697 133 697 q 97 699 106 697 q 64 728 68 703 q 61 763 63 736 q 58 821 60 790 q 54 878 56 851 q 51 914 53 906 q 48 931 50 919 q 44 956 46 943 q 42 980 43 968 q 44 997 42 992 q 56 1010 47 1004 q 71 1018 64 1015 q 96 1021 79 1019 q 131 1023 113 1022 q 167 1022 150 1024 q 192 1019 183 1021 q 221 997 213 1015 q 226 981 225 990 q 226 964 226 972 q 225 926 226 954 q 222 867 224 899 q 217 807 219 835 q 214 769 215 779 q 210 738 213 754 q 194 710 207 721 m 450 699 q 431 690 443 693 q 403 687 418 688 q 374 686 388 686 q 351 688 360 686 q 318 717 325 689 q 315 752 317 725 q 312 809 314 779 q 308 866 310 839 q 306 901 307 893 q 303 919 304 907 q 300 944 301 931 q 298 968 299 957 q 300 985 297 979 q 310 998 303 993 q 326 1006 318 1003 q 351 1009 335 1007 q 387 1011 368 1011 q 422 1010 406 1011 q 447 1007 439 1010 q 464 999 456 1004 q 476 985 472 993 q 481 969 481 978 q 482 951 482 960 q 481 914 482 942 q 477 854 479 886 q 473 794 475 822 q 469 757 471 767 q 465 726 468 742 q 450 699 461 710 z "},"‟":{"ha":526,"x_min":42,"x_max":482,"o":"m 194 710 q 175 701 188 704 q 148 698 163 699 q 119 697 133 697 q 97 699 106 697 q 64 728 68 703 q 61 763 63 736 q 58 821 60 790 q 54 878 56 851 q 51 914 53 906 q 48 931 50 919 q 44 956 46 943 q 42 980 43 968 q 44 997 42 992 q 56 1010 47 1004 q 71 1018 64 1015 q 96 1021 79 1019 q 131 1023 113 1022 q 167 1022 150 1024 q 192 1019 183 1021 q 221 997 213 1015 q 226 981 225 990 q 226 964 226 972 q 225 926 226 954 q 222 867 224 899 q 217 807 219 835 q 214 769 215 779 q 210 738 213 754 q 194 710 207 721 m 450 699 q 431 690 443 693 q 403 687 418 688 q 374 686 388 686 q 351 688 360 686 q 318 717 325 689 q 315 752 317 725 q 312 809 314 779 q 308 866 310 839 q 306 901 307 893 q 303 919 304 907 q 300 944 301 931 q 298 968 299 957 q 300 985 297 979 q 310 998 303 993 q 326 1006 318 1003 q 351 1009 335 1007 q 387 1011 368 1011 q 422 1010 406 1011 q 447 1007 439 1010 q 464 999 456 1004 q 476 985 472 993 q 481 969 481 978 q 482 951 482 960 q 481 914 482 942 q 477 854 479 886 q 473 794 475 822 q 469 757 471 767 q 465 726 468 742 q 450 699 461 710 z "},"#":{"ha":1160,"x_min":54,"x_max":1107,"o":"m 706 28 q 672 26 694 26 q 626 25 650 25 q 579 27 601 25 q 547 33 557 29 q 522 58 529 40 q 522 111 515 81 q 536 179 529 146 q 553 247 543 213 q 493 246 522 246 q 433 244 464 246 q 428 213 432 236 q 419 165 424 190 q 410 116 415 139 q 404 85 406 93 q 342 33 389 39 q 308 31 331 32 q 261 31 286 31 q 214 33 236 31 q 182 39 192 35 q 158 63 164 49 q 155 99 153 75 q 163 150 157 124 q 174 201 168 176 q 185 239 181 226 q 147 240 165 239 q 110 247 128 240 q 88 260 99 251 q 74 281 78 269 q 67 318 67 299 q 64 357 67 338 q 58 374 63 367 q 56 392 54 382 q 57 403 56 396 q 60 421 58 411 q 65 438 63 431 q 69 450 67 446 q 79 458 72 456 q 93 463 86 461 q 102 462 96 463 q 111 463 108 461 q 176 467 143 465 q 242 469 210 469 l 258 569 q 210 569 235 569 q 163 574 186 568 q 136 584 149 576 q 118 604 124 592 q 108 645 108 624 q 106 688 108 667 q 100 704 104 696 q 97 721 96 713 q 99 733 97 725 q 102 751 100 742 q 106 768 104 760 q 111 779 108 776 q 121 789 114 786 q 135 793 128 792 q 144 792 138 793 q 153 792 150 792 q 235 799 193 797 q 318 800 276 800 q 324 823 319 807 q 334 858 329 839 q 342 892 339 876 q 346 915 346 908 q 364 938 346 931 q 397 947 382 944 q 473 951 435 951 q 549 949 511 951 q 567 947 558 947 q 582 942 575 946 q 594 925 592 936 q 597 901 597 914 q 594 874 597 888 q 589 850 592 860 q 581 821 586 835 q 572 792 576 807 q 627 791 600 790 q 682 792 654 792 q 688 815 683 799 q 699 850 693 832 q 708 885 704 868 q 711 908 711 901 q 728 931 711 925 q 763 940 746 938 q 838 946 800 946 q 914 943 876 946 q 931 940 922 942 q 947 935 940 939 q 961 911 961 928 q 956 852 964 882 q 940 794 949 822 q 981 796 957 794 q 1027 795 1004 797 q 1069 786 1050 793 q 1096 764 1089 779 q 1102 739 1100 756 q 1106 703 1104 722 q 1107 665 1107 683 q 1106 638 1107 647 q 1099 612 1104 625 q 1083 592 1094 599 q 1050 578 1068 581 q 1014 572 1032 575 q 947 571 981 569 q 879 574 913 572 q 863 519 871 546 q 850 464 856 492 q 932 466 890 464 q 1014 461 974 468 q 1037 452 1025 458 q 1056 435 1049 446 q 1062 409 1060 426 q 1065 372 1064 392 q 1065 335 1065 353 q 1064 307 1065 317 q 1060 285 1064 294 q 1046 265 1056 274 q 1025 251 1036 257 q 972 242 1000 242 q 918 242 944 242 q 895 242 913 242 q 858 243 878 243 q 822 244 839 243 q 800 244 806 244 q 794 213 799 236 q 785 162 790 189 q 776 111 781 135 q 769 79 771 88 q 706 28 756 33 m 483 463 q 544 461 514 461 q 606 461 575 461 q 615 519 611 490 q 626 576 619 549 q 570 576 599 576 q 514 575 542 576 q 497 519 504 547 q 483 463 490 492 z "},"$":{"ha":732,"x_min":61,"x_max":674,"o":"m 429 -57 q 414 -58 425 -57 q 390 -59 403 -58 q 366 -60 378 -60 q 350 -61 354 -61 q 335 -60 347 -61 q 321 -57 324 -58 q 295 -50 308 -56 q 282 -32 282 -44 q 283 -15 282 -28 q 285 10 283 -3 q 288 36 286 24 q 289 53 289 49 q 221 58 254 56 q 154 67 188 61 q 131 72 143 69 q 108 79 119 74 q 68 125 78 93 q 65 184 61 154 q 75 243 69 214 q 80 266 76 253 q 88 292 83 279 q 100 314 93 304 q 115 326 107 324 q 154 327 128 331 q 210 319 181 324 q 267 308 240 314 q 306 301 293 303 q 356 297 331 299 q 404 300 381 294 q 440 319 426 304 q 456 351 453 333 q 453 388 460 369 q 429 421 446 407 q 333 467 386 454 q 231 500 281 481 q 148 553 183 519 q 93 631 113 588 q 71 722 74 674 q 88 817 68 769 q 122 874 100 847 q 171 918 143 900 q 235 944 200 936 q 306 951 269 953 q 303 965 304 956 q 301 985 301 975 q 299 1006 300 996 q 299 1019 299 1015 q 307 1039 299 1028 q 317 1048 310 1046 q 331 1050 324 1050 q 343 1049 333 1050 q 356 1049 353 1047 q 382 1052 369 1051 q 407 1054 394 1053 q 426 1057 417 1056 q 444 1053 436 1058 q 459 1047 453 1053 q 465 1032 465 1042 q 465 1017 465 1028 q 463 993 464 1006 q 462 969 463 981 q 461 954 461 958 q 503 953 478 954 q 553 949 528 953 q 599 939 578 946 q 629 918 619 932 q 641 888 638 904 q 647 857 644 872 q 650 821 649 843 q 651 776 651 799 q 647 732 650 753 q 635 701 643 711 q 601 683 624 689 q 572 681 586 681 q 543 685 558 682 q 461 696 503 690 q 379 700 419 701 q 334 689 356 699 q 317 656 313 679 q 336 622 321 638 q 375 592 353 604 q 421 569 397 579 q 494 544 457 554 q 568 515 532 533 q 626 465 601 497 q 658 396 650 432 q 658 240 674 317 q 642 183 653 211 q 615 131 632 154 q 588 99 604 114 q 551 76 571 85 q 506 61 529 65 q 458 54 482 57 q 458 40 460 47 q 456 26 456 33 q 458 0 456 14 q 462 -26 461 -14 q 458 -45 463 -37 q 442 -53 454 -53 q 435 -55 440 -53 q 429 -57 431 -57 z "},"%":{"ha":1063,"x_min":49,"x_max":1017,"o":"m 418 618 q 366 575 397 592 q 299 551 335 558 q 228 548 264 544 q 164 567 193 551 q 114 603 136 582 q 76 651 92 624 q 54 717 60 682 q 50 788 49 753 q 65 869 53 828 q 100 944 76 910 q 114 966 107 956 q 132 985 121 976 q 142 991 135 986 q 159 1000 150 996 q 176 1008 168 1004 q 188 1014 185 1013 q 234 1027 208 1025 q 283 1026 260 1029 q 364 1005 324 1022 q 432 956 404 988 q 463 899 453 932 q 475 833 472 865 q 466 720 479 778 q 418 618 453 663 m 365 4 q 319 -6 343 -4 q 271 -8 294 -8 q 236 -8 257 -8 q 194 -4 215 -7 q 156 5 174 -1 q 131 24 138 11 q 126 44 125 33 q 132 67 128 56 q 151 103 138 78 q 184 163 165 129 q 224 234 203 197 q 265 304 246 271 q 299 363 285 338 q 319 400 314 389 q 444 638 385 518 q 572 875 503 758 q 586 898 575 881 q 610 934 597 915 q 635 970 624 953 q 649 993 646 988 q 667 1006 656 1003 q 689 1013 678 1010 q 738 1018 713 1018 q 786 1017 763 1018 q 832 1012 808 1015 q 876 1001 856 1008 q 908 979 896 993 q 919 943 921 965 q 907 903 917 922 q 885 865 897 883 q 828 784 857 824 q 772 703 800 744 q 629 447 693 578 q 499 182 565 315 q 463 113 482 147 q 419 46 444 78 q 395 22 408 33 q 365 4 382 11 m 204 726 q 236 701 214 706 q 279 704 258 696 q 301 716 290 708 q 318 735 311 724 q 320 790 329 758 q 292 840 311 822 q 276 852 285 847 q 257 858 268 857 q 246 858 251 860 q 233 858 240 856 q 213 833 221 849 q 201 798 204 817 q 198 760 197 779 q 204 726 199 742 m 956 64 q 903 21 935 38 q 837 -3 872 4 q 766 -6 801 -10 q 701 13 731 -3 q 651 49 674 28 q 614 97 628 69 q 592 163 597 128 q 588 232 586 197 q 602 315 590 274 q 638 389 614 356 q 651 411 644 400 q 669 431 658 422 q 680 437 672 432 q 697 446 688 442 q 714 454 706 450 q 725 460 722 458 q 772 472 746 471 q 821 471 797 474 q 901 450 861 467 q 969 401 942 433 q 1000 344 990 376 q 1013 279 1010 311 q 1003 166 1017 224 q 956 64 990 108 m 742 172 q 773 147 750 151 q 817 149 796 142 q 838 162 828 154 q 856 181 849 169 q 858 236 867 204 q 829 285 849 268 q 813 297 822 292 q 794 304 804 303 q 783 303 789 304 q 771 304 778 301 q 750 278 758 294 q 738 242 742 261 q 735 205 735 224 q 742 172 736 186 z "},"&":{"ha":922,"x_min":39,"x_max":876,"o":"m 771 -56 q 706 -62 740 -69 q 660 -46 682 -58 q 618 -19 638 -33 q 609 -14 615 -18 q 596 -4 603 -10 q 583 6 589 1 q 575 11 576 10 q 490 -21 535 -8 q 401 -36 446 -33 q 286 -28 344 -40 q 179 13 228 -15 q 101 76 136 36 q 54 164 65 115 q 65 290 39 231 q 102 356 81 325 q 150 414 124 388 q 163 426 153 417 q 183 444 172 435 q 202 463 193 454 q 215 475 211 472 q 206 484 210 479 q 199 494 203 489 q 175 549 183 521 q 161 607 167 578 q 153 669 156 638 q 156 732 151 700 q 180 828 161 781 q 231 911 199 875 q 338 986 274 963 q 400 1003 368 997 q 464 1011 432 1008 q 527 1013 496 1014 q 589 1007 558 1013 q 654 985 622 1000 q 708 943 686 969 q 749 865 736 908 q 763 776 763 821 q 747 669 763 724 q 700 572 732 615 q 586 457 651 508 q 572 447 582 454 q 551 431 563 439 q 529 415 539 422 q 515 407 519 408 q 555 357 535 382 q 596 307 575 332 q 606 322 601 314 q 614 338 611 329 q 625 363 617 343 q 642 406 633 383 q 658 448 650 428 q 668 475 665 468 q 676 485 671 479 q 688 492 682 490 q 701 492 690 493 q 715 490 711 492 q 744 483 731 489 q 772 474 757 478 q 806 465 789 468 q 839 457 822 461 q 855 446 850 454 q 854 428 860 438 q 854 411 858 421 q 831 358 843 383 q 808 304 819 332 q 771 233 792 268 q 719 174 750 199 q 758 138 738 154 q 799 106 778 121 q 813 94 803 103 q 834 77 822 86 q 856 60 846 68 q 868 49 865 51 q 876 33 876 42 q 869 17 875 25 q 852 1 863 8 q 833 -14 842 -7 q 803 -36 818 -25 q 771 -56 789 -47 m 426 831 q 395 778 404 811 q 387 709 386 746 q 396 635 388 672 q 415 569 404 597 q 456 601 436 585 q 494 636 476 617 q 523 672 508 650 q 548 717 538 693 q 563 763 558 740 q 558 804 567 786 q 526 835 549 824 q 483 847 504 846 q 453 844 468 849 q 426 831 438 840 m 358 138 q 393 143 379 135 q 417 164 407 151 q 439 189 428 176 l 397 231 q 350 276 374 254 q 308 326 326 299 q 274 275 289 304 q 264 217 260 246 q 276 190 265 203 q 299 165 286 176 q 328 147 313 154 q 358 138 344 139 z "},"'":{"ha":271,"x_min":42,"x_max":226,"o":"m 194 711 q 175 702 188 706 q 148 698 163 699 q 119 697 133 697 q 97 699 106 697 q 64 728 68 703 q 61 763 63 736 q 58 821 60 790 q 54 878 56 851 q 51 914 53 906 q 48 931 50 919 q 44 956 46 943 q 42 980 43 968 q 44 997 42 992 q 56 1010 47 1006 q 71 1018 64 1015 q 96 1021 79 1019 q 131 1023 113 1022 q 167 1022 150 1024 q 192 1019 183 1021 q 221 997 213 1015 q 226 981 225 990 q 226 964 226 972 q 225 926 226 954 q 222 867 224 899 q 217 807 219 835 q 214 769 215 779 q 210 738 213 754 q 194 711 207 721 z "},"‚":{"ha":271,"x_min":42,"x_max":226,"o":"m 194 711 q 175 702 188 706 q 148 698 163 699 q 119 697 133 697 q 97 699 106 697 q 64 728 68 703 q 61 763 63 736 q 58 821 60 790 q 54 878 56 851 q 51 914 53 906 q 48 931 50 919 q 44 956 46 943 q 42 980 43 968 q 44 997 42 992 q 56 1010 47 1006 q 71 1018 64 1015 q 96 1021 79 1019 q 131 1023 113 1022 q 167 1022 150 1024 q 192 1019 183 1021 q 221 997 213 1015 q 226 981 225 990 q 226 964 226 972 q 225 926 226 954 q 222 867 224 899 q 217 807 219 835 q 214 769 215 779 q 210 738 213 754 q 194 711 207 721 z "},"‛":{"ha":271,"x_min":42,"x_max":226,"o":"m 194 711 q 175 702 188 706 q 148 698 163 699 q 119 697 133 697 q 97 699 106 697 q 64 728 68 703 q 61 763 63 736 q 58 821 60 790 q 54 878 56 851 q 51 914 53 906 q 48 931 50 919 q 44 956 46 943 q 42 980 43 968 q 44 997 42 992 q 56 1010 47 1006 q 71 1018 64 1015 q 96 1021 79 1019 q 131 1023 113 1022 q 167 1022 150 1024 q 192 1019 183 1021 q 221 997 213 1015 q 226 981 225 990 q 226 964 226 972 q 225 926 226 954 q 222 867 224 899 q 217 807 219 835 q 214 769 215 779 q 210 738 213 754 q 194 711 207 721 z "},"‹":{"ha":271,"x_min":42,"x_max":226,"o":"m 194 711 q 175 702 188 706 q 148 698 163 699 q 119 697 133 697 q 97 699 106 697 q 64 728 68 703 q 61 763 63 736 q 58 821 60 790 q 54 878 56 851 q 51 914 53 906 q 48 931 50 919 q 44 956 46 943 q 42 980 43 968 q 44 997 42 992 q 56 1010 47 1006 q 71 1018 64 1015 q 96 1021 79 1019 q 131 1023 113 1022 q 167 1022 150 1024 q 192 1019 183 1021 q 221 997 213 1015 q 226 981 225 990 q 226 964 226 972 q 225 926 226 954 q 222 867 224 899 q 217 807 219 835 q 214 769 215 779 q 210 738 213 754 q 194 711 207 721 z "},"›":{"ha":271,"x_min":42,"x_max":226,"o":"m 194 711 q 175 702 188 706 q 148 698 163 699 q 119 697 133 697 q 97 699 106 697 q 64 728 68 703 q 61 763 63 736 q 58 821 60 790 q 54 878 56 851 q 51 914 53 906 q 48 931 50 919 q 44 956 46 943 q 42 980 43 968 q 44 997 42 992 q 56 1010 47 1006 q 71 1018 64 1015 q 96 1021 79 1019 q 131 1023 113 1022 q 167 1022 150 1024 q 192 1019 183 1021 q 221 997 213 1015 q 226 981 225 990 q 226 964 226 972 q 225 926 226 954 q 222 867 224 899 q 217 807 219 835 q 214 769 215 779 q 210 738 213 754 q 194 711 207 721 z "},"(":{"ha":688,"x_min":64,"x_max":631,"o":"m 560 -4 q 426 -7 493 -10 q 294 15 358 -4 q 231 44 261 26 q 174 85 200 61 q 128 138 147 108 q 97 199 110 167 q 73 298 79 247 q 65 400 67 349 q 67 504 64 453 q 75 608 69 556 q 101 742 82 676 q 154 867 119 808 q 199 920 174 896 q 254 963 225 944 q 303 988 278 978 q 357 1004 329 997 q 465 1019 410 1018 q 574 1022 519 1019 q 594 1011 585 1022 q 601 989 604 1000 q 602 976 601 985 q 604 959 603 968 q 608 942 606 950 q 610 929 610 933 q 615 900 611 921 q 622 856 618 879 q 628 811 625 832 q 631 782 631 790 q 626 767 631 775 q 615 756 622 758 q 600 754 610 751 q 582 754 596 756 q 564 753 568 753 q 488 745 526 750 q 417 724 450 740 q 364 676 382 706 q 338 608 344 644 q 328 536 331 572 q 331 365 319 454 q 340 331 333 347 q 357 300 346 314 q 392 275 372 285 q 433 260 413 265 q 508 253 469 251 q 582 261 546 254 q 601 256 593 264 q 607 236 608 247 q 614 218 615 228 q 602 128 607 174 q 594 39 597 83 q 595 22 594 31 q 589 6 596 13 q 576 -1 586 1 q 560 -4 565 -4 z "},")":{"ha":688,"x_min":56,"x_max":624,"o":"m 292 -4 q 124 -4 207 -12 q 108 -1 118 -4 q 96 8 99 3 q 92 24 92 15 q 93 39 93 32 q 87 122 90 81 q 76 206 83 164 q 74 215 75 210 q 74 225 72 219 q 78 233 75 229 q 81 240 81 236 q 88 257 81 251 q 106 261 96 263 q 197 253 150 253 q 285 269 243 253 q 314 285 300 276 q 338 308 328 294 q 350 335 346 321 q 357 365 354 350 q 363 447 363 406 q 361 529 364 489 q 351 605 358 567 q 324 676 343 643 q 258 729 300 714 q 190 746 225 742 q 121 753 156 750 q 103 754 111 753 q 86 753 94 756 q 68 758 75 753 q 60 772 64 763 q 57 788 56 781 q 71 883 64 836 q 86 978 78 929 q 86 989 86 981 q 88 1000 86 997 q 98 1015 90 1007 q 114 1022 106 1022 q 195 1020 154 1021 q 276 1015 236 1019 q 407 976 343 1007 q 513 894 471 946 q 540 854 528 875 q 561 811 551 833 q 601 681 589 749 q 618 546 614 614 q 623 433 622 489 q 618 321 624 378 q 600 231 613 276 q 564 146 588 186 q 474 53 529 88 q 386 14 433 28 q 292 -4 339 0 z "},"*":{"ha":532,"x_min":42,"x_max":490,"o":"m 382 599 q 357 601 368 592 q 350 606 354 604 q 343 610 346 607 q 332 624 340 614 q 314 647 324 635 q 296 671 304 660 q 285 686 288 682 q 273 704 278 694 q 260 719 268 714 q 248 707 257 717 q 228 685 239 697 q 209 664 218 674 q 197 650 200 654 q 192 641 196 647 q 183 628 188 635 q 176 615 179 621 q 171 607 172 608 q 153 600 163 599 q 133 608 143 601 q 113 625 124 615 q 93 642 103 635 q 78 653 86 649 q 63 664 69 657 q 55 681 56 671 q 61 697 54 690 q 72 706 64 699 q 89 723 79 714 q 106 739 99 732 q 117 749 114 746 q 137 765 126 757 q 154 783 147 772 q 140 794 150 786 q 117 810 129 801 q 95 825 106 818 q 81 835 85 832 q 65 842 78 836 q 50 851 53 849 q 44 869 42 858 q 53 889 46 881 q 74 913 64 901 q 93 938 83 925 q 114 955 100 949 q 139 954 128 961 q 147 947 142 953 q 154 938 153 940 q 181 913 168 925 q 204 886 193 900 q 202 910 204 894 q 199 944 200 926 q 197 977 197 961 q 200 1000 197 993 q 209 1017 200 1011 q 229 1019 218 1024 q 247 1018 233 1018 q 277 1018 261 1018 q 307 1018 293 1018 q 325 1015 321 1018 q 343 1011 336 1018 q 350 993 350 1004 q 344 950 349 971 q 336 907 339 929 q 332 863 332 883 q 349 881 338 868 q 372 906 360 893 q 397 930 385 919 q 418 942 410 940 q 439 944 429 949 q 451 929 449 940 q 456 918 451 925 q 467 903 461 911 q 478 888 474 894 q 486 876 483 881 q 489 862 490 869 q 481 850 488 854 l 468 838 q 451 823 464 833 q 424 801 439 813 q 397 781 410 790 q 379 767 383 771 q 390 756 382 764 q 406 740 397 749 q 422 725 414 732 q 432 715 429 718 q 444 708 439 711 q 457 700 450 704 q 464 685 464 693 q 458 669 464 676 q 443 646 458 658 q 418 626 428 633 q 408 622 415 625 q 400 618 401 619 q 391 608 397 615 q 382 599 385 601 z "},"+":{"ha":756,"x_min":44,"x_max":713,"o":"m 482 94 q 454 84 474 88 q 413 79 435 81 q 372 78 392 78 q 340 78 351 78 q 315 80 328 78 q 292 90 301 82 q 275 115 281 100 q 268 144 269 129 q 267 174 268 151 q 267 220 267 196 q 267 267 267 244 q 267 296 267 289 q 185 290 226 293 q 104 292 144 288 q 58 325 68 293 q 51 379 49 351 q 46 433 53 407 q 44 450 44 439 q 46 472 44 461 q 49 494 47 483 q 53 510 51 504 q 64 521 56 517 q 79 522 72 525 q 166 531 122 531 q 254 529 210 532 q 252 559 254 538 q 248 605 250 581 q 244 651 246 629 q 243 681 243 672 q 275 728 244 715 q 318 738 296 738 q 364 740 340 738 q 378 744 371 742 q 393 747 386 746 q 406 747 397 747 q 426 746 415 747 q 446 744 436 744 q 460 742 456 743 q 474 715 476 735 q 487 620 485 668 q 486 524 489 572 q 525 525 497 524 q 583 526 553 526 q 640 526 613 526 q 678 522 667 525 q 700 506 690 518 q 708 476 706 496 q 712 435 711 457 q 712 394 713 414 q 711 363 711 374 q 706 333 710 347 q 692 308 703 318 q 655 294 676 296 q 614 293 633 293 q 591 294 608 293 q 554 295 574 294 q 517 297 535 296 q 493 299 499 299 q 495 262 493 288 q 499 208 497 236 q 500 153 500 179 q 497 118 500 128 q 482 94 494 103 z "},",":{"ha":307,"x_min":32,"x_max":271,"o":"m 208 -103 q 178 -133 196 -118 q 146 -133 161 -147 q 138 -112 138 -126 q 146 -92 138 -99 q 152 -84 150 -89 q 157 -75 154 -79 q 181 7 178 -36 q 133 6 157 4 q 89 18 108 7 q 56 49 69 29 q 38 90 42 68 q 37 135 32 113 q 53 176 42 158 q 84 206 65 194 q 126 217 103 217 q 198 217 158 228 q 256 179 238 207 q 267 135 267 160 q 269 88 268 111 q 264 24 271 56 q 246 -39 257 -8 q 208 -103 233 -74 z "},"-":{"ha":744,"x_min":39,"x_max":707,"o":"m 160 292 q 99 292 128 289 q 53 325 63 293 q 45 379 43 351 q 40 433 47 407 q 39 450 39 439 q 40 472 39 461 q 44 494 42 483 q 47 510 46 504 q 58 521 50 517 q 74 522 67 525 q 191 531 132 533 q 308 525 250 529 q 382 522 344 522 q 456 524 419 522 q 490 524 464 524 q 544 525 515 525 q 599 526 574 525 q 633 526 625 526 q 667 522 649 525 q 694 506 685 519 q 703 476 700 496 q 706 435 706 457 q 706 394 707 414 q 706 363 706 374 q 702 337 704 350 q 692 314 700 324 q 657 296 678 300 q 632 294 650 294 q 594 294 614 294 q 556 296 574 294 q 531 297 538 297 q 345 298 438 301 q 160 292 253 294 z "},".":{"ha":304,"x_min":32,"x_max":269,"o":"m 224 21 q 183 7 206 11 q 138 6 161 3 q 95 17 115 8 q 61 40 75 25 q 38 90 42 61 q 37 135 32 113 q 53 176 42 158 q 84 206 65 194 q 126 217 103 217 q 188 221 154 228 q 243 194 221 214 q 262 164 256 182 q 269 126 268 146 q 266 87 269 107 q 254 53 263 67 q 224 21 246 35 z "},"/":{"ha":711,"x_min":24,"x_max":681,"o":"m 289 -18 q 241 -26 272 -26 q 176 -22 210 -26 q 110 -11 142 -18 q 61 1 79 -4 q 40 11 50 4 q 28 28 31 18 q 26 52 24 39 q 32 76 28 65 q 45 110 35 85 q 68 165 56 136 q 91 218 81 193 q 106 251 101 243 q 190 462 150 356 q 268 675 229 568 q 304 775 286 725 q 346 874 322 825 q 369 930 358 901 q 400 982 381 958 q 467 1025 426 1017 q 513 1030 490 1031 q 557 1025 535 1029 q 605 1013 581 1021 q 649 989 629 1004 q 678 938 674 968 q 678 903 681 921 q 669 868 676 885 q 624 763 651 814 q 574 658 597 711 q 555 613 568 644 q 526 538 542 581 q 492 449 510 496 q 458 360 474 403 q 429 285 442 318 q 413 239 417 253 q 375 133 393 186 q 332 31 357 81 q 315 2 325 15 q 289 -18 304 -11 z "},":":{"ha":354,"x_min":44,"x_max":308,"o":"m 272 526 q 240 511 260 517 q 199 505 219 506 q 158 508 178 504 q 124 519 138 511 q 93 549 106 531 q 76 589 81 568 q 76 634 71 611 q 92 675 81 657 q 123 704 104 693 q 165 715 142 715 q 226 719 193 726 q 282 693 260 713 q 299 664 293 682 q 307 626 306 646 q 305 588 308 607 q 294 554 301 568 q 272 526 289 538 m 246 61 q 213 46 233 51 q 172 40 193 40 q 131 42 151 39 q 97 54 111 46 q 67 84 79 65 q 50 124 54 103 q 49 169 44 146 q 66 210 54 192 q 97 239 78 228 q 139 250 115 250 q 200 254 167 261 q 256 228 233 247 q 273 199 267 217 q 281 161 279 181 q 278 122 282 142 q 268 89 275 103 q 246 61 263 72 z "},";":{"ha":361,"x_min":43,"x_max":315,"o":"m 279 526 q 247 511 267 517 q 206 505 226 506 q 165 508 185 504 q 131 519 144 511 q 99 549 111 531 q 82 589 88 568 q 82 634 78 611 q 99 675 86 657 q 130 704 111 693 q 172 715 149 715 q 233 719 200 726 q 288 693 267 713 q 306 664 300 682 q 314 626 313 646 q 312 588 315 607 q 301 554 308 568 q 279 526 292 536 m 219 -103 q 190 -133 207 -118 q 157 -133 172 -147 q 149 -112 149 -126 q 157 -92 149 -99 q 163 -84 161 -89 q 168 -75 165 -79 q 192 7 189 -36 q 144 6 168 4 q 100 18 119 7 q 67 49 81 29 q 49 90 53 68 q 48 135 43 113 q 65 176 53 158 q 95 206 76 194 q 138 217 114 217 q 209 217 169 228 q 267 179 249 207 q 278 135 278 160 q 281 88 279 111 q 275 24 282 56 q 257 -39 268 -8 q 219 -103 244 -74 z "},"<":{"ha":582,"x_min":44,"x_max":533,"o":"m 414 138 q 378 144 396 136 q 325 176 350 160 q 272 206 300 192 q 204 237 239 222 q 135 267 169 251 q 97 290 115 276 q 68 321 79 303 q 54 358 60 335 q 47 407 49 382 q 47 455 44 432 q 56 493 49 478 q 81 526 64 513 q 117 550 97 540 q 157 569 126 556 q 222 599 188 583 q 286 630 256 615 q 326 649 317 644 l 328 650 q 345 662 332 654 q 373 677 358 669 q 401 692 388 685 q 419 701 414 699 q 447 707 435 708 q 461 701 454 706 q 474 689 468 696 q 492 660 485 675 q 506 629 499 644 q 516 605 510 619 q 526 574 522 590 q 532 544 531 558 q 529 521 533 529 q 496 493 519 503 q 408 454 453 471 q 318 421 363 438 l 289 408 q 323 392 297 403 q 378 368 349 381 q 433 345 407 356 q 468 331 458 335 q 490 320 479 325 q 507 306 500 315 q 514 284 515 297 q 506 256 513 271 q 492 228 500 242 q 478 204 483 214 q 460 176 469 190 q 440 151 451 163 q 414 138 428 139 z "},"=":{"ha":779,"x_min":54,"x_max":726,"o":"m 178 467 q 147 466 163 467 q 117 467 132 465 q 71 501 83 471 q 63 554 61 526 q 58 610 65 582 q 58 626 57 615 q 60 648 58 636 q 63 670 61 660 q 67 686 64 681 q 77 697 69 693 q 93 699 85 700 q 167 706 129 706 q 242 705 204 707 q 317 700 279 703 q 393 697 356 697 q 442 698 406 697 q 522 700 479 699 q 602 701 565 701 q 651 701 639 701 q 686 698 668 701 q 713 681 704 694 q 721 653 718 672 q 725 611 724 633 q 726 569 726 589 q 724 539 725 549 q 721 513 724 526 q 710 490 718 500 q 675 471 697 475 q 651 469 668 469 q 613 470 633 469 q 575 472 593 471 q 550 472 557 472 q 364 474 457 476 q 178 467 271 471 m 175 163 q 144 160 160 161 q 114 163 129 160 q 68 196 78 164 q 60 249 58 221 q 56 304 63 278 q 54 320 54 310 q 56 342 54 331 q 59 365 57 354 q 63 381 61 375 q 74 392 65 388 q 89 393 82 396 q 230 401 160 407 q 371 393 300 396 q 424 394 383 393 q 510 395 464 394 q 596 397 556 396 q 649 397 636 397 q 682 393 664 396 q 710 376 700 390 q 718 347 715 367 q 722 306 721 328 q 722 265 722 285 q 721 233 721 244 q 717 208 719 221 q 707 185 715 194 q 672 167 693 171 q 647 165 665 165 q 609 165 629 165 q 571 166 589 165 q 546 167 553 167 q 360 168 453 171 q 175 163 268 165 z "},">":{"ha":583,"x_min":47,"x_max":539,"o":"m 193 140 q 174 138 185 138 q 156 143 164 138 q 131 165 144 149 q 106 202 118 182 q 85 242 94 222 q 72 274 76 261 q 89 315 61 300 q 127 334 97 321 q 192 362 157 347 q 256 390 226 376 q 294 408 286 403 q 280 414 290 410 q 258 423 269 418 q 235 432 246 428 q 221 438 225 436 q 182 451 207 443 q 131 471 157 460 q 83 495 104 482 q 54 521 61 508 q 51 549 47 535 q 60 581 53 560 q 77 624 68 601 q 97 665 86 646 q 114 693 107 685 q 140 707 125 707 q 157 705 149 708 q 174 697 165 701 q 190 688 178 694 q 215 675 201 682 q 240 661 228 668 q 256 650 251 654 q 269 642 260 647 q 290 631 279 636 q 312 622 301 626 q 326 615 322 617 q 358 601 335 611 q 408 578 382 590 q 458 555 435 567 q 489 538 481 543 q 510 522 500 531 q 525 501 519 513 q 536 461 533 486 q 538 410 539 436 q 531 360 536 385 q 515 321 525 336 q 481 286 503 300 q 436 261 460 272 q 372 233 404 246 q 308 204 340 219 q 285 192 301 201 q 251 172 269 182 q 217 151 233 161 q 193 140 200 142 z "},"?":{"ha":660,"x_min":44,"x_max":604,"o":"m 338 310 q 310 314 324 308 q 288 329 297 319 q 286 351 279 340 q 287 353 286 353 q 288 356 288 354 q 300 404 290 368 q 320 482 310 440 q 340 560 331 524 q 351 608 349 596 q 365 678 360 643 q 365 749 371 714 q 350 786 363 767 q 319 807 338 806 q 297 801 308 808 q 279 786 286 794 q 253 731 260 763 q 249 667 246 699 q 249 642 249 661 q 251 618 250 624 q 249 595 254 606 q 233 582 244 585 q 178 579 206 576 q 122 582 150 582 q 113 582 119 582 q 97 581 106 582 q 80 581 88 581 q 69 581 72 581 q 53 590 58 582 q 51 608 47 597 q 47 625 47 614 q 45 701 46 663 q 51 775 44 739 q 99 906 63 846 q 140 958 117 933 q 192 1000 163 983 q 259 1025 224 1018 q 331 1033 294 1032 q 406 1030 368 1033 q 479 1015 443 1026 q 542 976 517 1006 q 581 909 567 947 q 600 828 596 871 q 600 746 604 785 q 578 631 593 688 q 547 517 564 574 q 534 472 540 493 q 522 426 528 450 q 519 407 521 421 q 514 377 517 393 q 508 347 511 361 q 504 329 506 333 q 481 317 499 313 q 474 315 479 317 q 467 313 469 313 q 402 314 435 315 q 338 310 369 313 m 457 -1 q 413 -16 438 -12 q 365 -17 389 -19 q 325 -8 346 -14 q 288 8 304 -3 q 251 72 256 32 q 268 146 247 113 q 289 176 278 161 q 317 200 300 192 q 333 201 324 203 q 350 203 342 200 q 410 205 378 210 q 464 181 442 200 q 487 149 478 168 q 499 110 496 131 q 500 68 503 89 q 489 31 497 47 q 476 13 483 21 q 457 -1 468 4 z "},"@":{"ha":1264,"x_min":61,"x_max":1207,"o":"m 821 -146 q 724 -147 772 -150 q 628 -140 676 -144 q 556 -135 592 -137 q 483 -129 519 -133 q 307 -69 392 -117 q 164 50 222 -21 q 113 135 132 89 q 82 231 93 182 q 66 331 71 281 q 61 433 61 382 q 83 606 61 521 q 144 768 104 692 q 192 840 164 807 q 251 906 221 874 q 333 978 289 944 q 426 1031 376 1011 q 501 1051 463 1046 q 581 1060 540 1057 q 678 1063 629 1063 q 776 1061 728 1064 q 847 1055 813 1060 q 914 1038 882 1050 q 1019 981 969 1017 q 1108 901 1068 946 q 1159 833 1138 871 q 1190 756 1181 796 q 1205 652 1203 704 q 1204 547 1207 600 q 1190 447 1200 497 q 1160 350 1181 396 q 1103 260 1138 301 q 1025 192 1069 218 q 956 161 993 172 q 883 151 919 150 q 815 163 849 153 q 754 193 782 174 q 731 222 739 204 q 715 258 722 240 q 683 235 700 247 q 649 217 667 224 q 558 199 606 197 q 469 221 511 201 q 433 250 449 232 q 407 290 417 268 q 382 422 382 353 q 401 556 382 490 q 472 668 421 622 q 592 726 522 714 q 656 733 624 732 q 721 729 689 735 q 761 717 740 725 q 797 696 782 710 q 827 655 817 679 q 842 606 838 631 q 849 541 847 574 q 851 476 850 508 q 854 470 851 474 q 857 464 857 467 q 867 443 860 457 q 881 425 874 429 q 915 426 899 417 q 936 456 931 436 q 950 525 944 483 q 954 610 956 567 q 944 692 953 654 q 917 753 936 731 q 868 783 897 772 q 722 819 797 813 q 658 821 690 822 q 593 817 625 819 q 512 805 553 814 q 438 772 471 796 q 367 701 397 743 q 321 611 336 658 q 305 517 306 565 q 308 421 304 469 q 325 336 314 378 q 351 254 336 294 q 365 227 358 240 q 383 203 372 214 q 433 161 404 178 q 494 135 463 144 q 593 115 543 119 q 693 108 643 111 q 763 103 728 106 q 833 106 797 100 q 884 116 858 110 q 935 126 910 122 q 961 126 947 129 q 981 124 972 129 q 989 107 989 118 q 992 72 989 97 q 999 18 994 46 q 1007 -35 1003 -10 q 1014 -69 1011 -60 q 1017 -76 1017 -72 q 1018 -85 1017 -81 q 1016 -104 1022 -96 q 999 -112 1010 -112 q 976 -117 993 -112 q 951 -124 958 -122 q 887 -137 919 -132 q 821 -146 854 -143 m 556 500 q 541 458 544 481 q 542 417 538 436 q 560 385 547 397 q 596 372 574 372 q 658 406 632 374 q 690 474 685 438 q 688 515 693 493 q 665 549 682 538 q 635 559 651 560 q 605 551 619 558 q 577 529 590 543 q 556 500 564 515 z "},"A":{"ha":811,"x_min":53,"x_max":757,"o":"m 133 -17 q 99 -15 122 -18 q 68 -6 76 -12 q 59 8 61 0 q 56 26 57 17 q 53 90 53 44 q 55 188 53 136 q 59 286 57 240 q 64 350 61 332 q 74 410 68 381 q 82 469 79 439 q 89 542 88 506 q 94 617 90 579 q 105 674 99 644 q 117 731 111 703 q 136 807 125 769 q 167 879 147 844 q 224 950 189 918 q 301 997 260 982 q 351 1008 325 1006 q 401 1008 376 1011 q 482 1000 442 1006 q 558 979 522 994 q 636 922 606 963 q 686 833 668 882 q 714 736 704 785 q 728 596 726 665 q 733 456 731 526 q 736 390 733 422 q 742 325 739 357 q 750 181 749 253 q 751 35 751 108 q 754 17 757 26 q 742 4 751 7 q 721 1 736 1 q 689 -1 706 0 q 658 -3 672 -3 q 638 -4 643 -4 q 602 -11 619 -7 q 567 -12 585 -15 q 533 -12 550 -10 q 500 -6 515 -14 q 492 6 496 -3 q 488 19 488 14 l 488 188 q 458 188 481 188 q 411 188 436 188 q 365 188 386 188 q 335 186 343 188 q 310 183 322 185 q 286 182 299 182 q 291 119 286 150 q 294 56 296 88 q 292 35 293 44 q 288 14 292 25 q 269 -8 288 -6 q 243 -10 263 -8 q 201 -12 224 -11 q 160 -15 179 -14 q 133 -17 140 -17 m 310 554 q 289 349 296 453 q 330 349 299 349 q 397 350 361 350 q 463 351 432 350 q 504 351 494 351 q 503 466 503 410 q 500 581 503 522 q 492 638 499 608 q 471 692 486 668 q 425 722 454 715 q 372 713 396 729 q 346 683 356 701 q 329 644 336 664 q 317 599 322 621 q 310 554 313 578 z "},"B":{"ha":836,"x_min":76,"x_max":801,"o":"m 374 -7 q 242 -4 307 -7 q 111 4 178 -1 q 92 16 99 6 q 93 38 86 26 q 91 101 93 53 q 87 206 89 150 q 83 310 85 261 q 81 375 81 360 q 80 552 78 464 q 82 731 82 640 q 79 793 82 754 q 78 872 76 832 q 85 948 79 913 q 108 999 92 983 q 159 1024 129 1018 q 218 1032 189 1029 q 399 1032 308 1036 q 478 1026 439 1029 q 557 1014 518 1022 q 595 1003 576 1010 q 631 985 614 996 q 664 950 650 969 q 689 908 678 931 q 714 840 706 876 q 719 767 722 803 q 689 671 715 717 q 648 619 672 643 q 596 578 624 596 q 629 564 614 574 q 660 543 644 554 q 712 496 688 521 q 754 439 736 471 q 792 335 782 392 q 794 224 801 278 q 763 128 788 172 q 719 77 744 100 q 665 36 693 54 q 627 19 647 25 q 586 10 607 13 q 480 -4 533 -1 q 374 -7 426 -7 m 333 843 q 337 738 335 790 q 342 633 339 686 q 392 638 367 636 q 442 646 418 639 q 472 657 457 650 q 497 675 486 664 q 530 738 522 699 q 517 806 538 778 q 474 835 500 826 q 406 848 442 847 q 333 843 369 849 m 350 268 q 404 266 378 267 q 457 271 431 265 q 504 292 483 275 q 524 322 517 304 q 533 358 532 339 q 531 395 535 376 q 517 429 526 414 q 491 454 507 444 q 458 468 475 464 q 402 477 431 476 q 346 476 374 478 q 345 372 346 424 q 350 268 344 321 z "},"C":{"ha":749,"x_min":54,"x_max":694,"o":"m 558 19 q 454 -10 510 -4 q 346 -7 399 -17 q 281 9 314 -1 q 221 36 249 19 q 135 121 165 71 q 106 180 117 149 q 86 243 94 211 q 69 342 75 292 q 60 443 63 393 q 55 559 56 501 q 61 675 54 617 q 92 811 68 744 q 157 932 117 878 q 265 1018 200 990 q 394 1039 326 1043 q 526 1019 463 1035 q 594 992 561 1010 q 650 947 626 975 q 674 899 668 925 q 684 847 679 881 q 692 778 689 814 q 693 709 694 742 q 683 660 692 676 q 668 642 678 649 q 647 633 658 636 q 594 627 621 628 q 540 622 567 626 q 502 618 525 621 q 471 629 479 615 q 465 638 468 633 q 463 649 463 643 q 462 683 463 661 q 458 727 461 704 q 451 770 456 750 q 439 800 447 790 q 410 814 432 810 q 376 818 389 818 q 346 806 358 815 q 328 782 335 796 q 315 754 321 768 q 296 643 297 700 q 297 529 294 586 q 299 476 297 513 q 305 398 301 439 q 314 321 308 357 q 326 271 319 285 q 335 257 329 264 q 347 247 340 250 q 383 242 361 240 q 417 253 406 243 q 424 267 421 257 q 428 289 426 278 q 431 311 431 300 q 432 329 432 322 q 433 351 432 340 q 440 371 435 361 q 467 386 450 386 q 501 389 476 388 q 552 391 525 390 q 603 391 579 392 q 638 388 626 390 q 659 372 650 383 q 672 350 668 361 q 682 280 682 315 q 678 210 682 244 q 665 149 674 179 q 640 93 657 119 q 605 51 626 69 q 558 19 583 32 z "},"D":{"ha":797,"x_min":76,"x_max":747,"o":"m 351 -10 q 257 -14 304 -15 q 163 -10 210 -12 q 149 -9 158 -10 q 128 -7 139 -8 q 109 -5 118 -6 q 96 -1 100 -4 q 85 10 90 1 q 79 25 79 18 q 79 253 76 140 q 84 388 81 321 q 88 524 88 456 q 86 671 89 599 q 86 818 83 743 q 85 835 86 822 q 83 863 85 849 q 82 891 82 878 q 82 908 82 904 q 82 929 82 915 q 83 959 82 943 q 85 988 83 975 q 90 1008 88 1001 q 111 1022 96 1018 q 145 1024 126 1025 q 182 1022 164 1024 q 213 1019 200 1019 q 319 1022 265 1022 q 426 1013 374 1022 q 523 984 475 1003 q 610 933 571 965 q 658 881 638 910 q 694 819 679 851 q 728 720 718 772 q 740 615 738 668 q 736 364 747 489 q 715 240 729 301 q 669 126 701 179 q 620 70 650 94 q 554 32 590 46 q 454 4 506 13 q 351 -10 403 -4 m 335 268 q 388 266 361 265 q 439 274 414 267 q 467 283 453 278 q 493 299 482 289 q 510 325 506 311 q 519 382 515 342 q 525 467 524 422 q 526 553 526 513 q 525 611 526 593 q 519 674 524 643 q 499 733 514 706 q 443 782 478 769 q 385 795 415 793 q 325 796 356 797 q 331 672 328 733 q 332 549 333 611 q 326 443 331 496 q 324 338 322 390 q 324 325 324 335 q 326 305 325 315 q 329 285 328 294 q 331 272 331 275 q 332 269 331 269 q 335 268 333 269 z "},"E":{"ha":663,"x_min":72,"x_max":604,"o":"m 444 -10 q 380 -12 413 -12 q 315 -12 347 -12 q 235 -9 275 -12 q 158 13 194 -6 q 113 58 131 31 q 92 106 99 81 q 82 158 85 132 q 75 247 76 203 q 72 335 74 290 q 72 447 72 392 q 74 560 72 503 q 82 714 76 638 q 93 867 88 790 q 92 872 93 869 q 90 878 90 875 q 92 898 90 883 q 94 929 93 913 q 96 961 94 946 q 99 982 97 976 q 119 1019 103 1006 q 163 1033 136 1031 q 226 1035 179 1035 q 324 1035 272 1036 q 422 1032 376 1033 q 486 1029 468 1031 q 514 1025 500 1028 q 539 1015 528 1022 q 567 985 557 1006 q 581 938 578 964 q 584 886 585 913 q 581 839 583 860 q 571 803 578 821 q 551 774 564 786 q 522 758 539 763 q 490 750 506 753 q 441 748 465 747 q 392 749 417 749 q 378 748 388 749 q 360 747 369 747 q 344 744 351 746 q 332 740 336 743 q 323 719 325 735 q 321 694 321 703 q 324 671 321 683 q 336 651 326 658 q 369 640 346 643 q 421 635 393 636 q 474 633 449 633 q 513 632 500 633 q 542 624 528 629 q 565 608 556 619 q 578 581 574 599 q 585 542 583 563 q 587 501 588 521 q 585 469 586 482 q 578 438 582 454 q 564 410 575 421 q 537 392 553 399 q 504 385 521 386 q 458 385 481 383 q 413 389 436 388 q 382 388 401 389 q 356 381 363 388 q 347 349 349 371 q 349 315 346 326 q 356 297 351 301 q 384 285 364 289 q 427 282 404 282 q 472 283 450 282 q 507 282 494 283 q 543 276 525 281 q 574 258 561 271 q 589 238 583 250 q 597 213 594 225 q 604 157 604 185 q 601 101 604 129 q 596 69 599 85 q 586 38 593 53 q 567 17 579 26 q 543 3 556 8 q 494 -6 519 -4 q 444 -10 469 -8 z "},"F":{"ha":638,"x_min":78,"x_max":613,"o":"m 301 4 q 246 -6 275 -7 q 189 -6 217 -6 q 162 -6 175 -6 q 133 -4 149 -6 q 110 3 122 -3 q 90 19 97 8 q 82 51 83 35 q 81 83 81 67 q 82 89 81 85 q 83 96 83 93 q 83 129 83 104 q 82 183 82 154 q 81 238 82 213 q 81 271 81 263 q 85 391 81 332 q 85 511 90 450 q 83 522 85 514 q 81 540 82 531 q 80 557 81 549 q 79 568 79 565 q 78 630 78 583 q 78 729 78 676 q 80 828 79 782 q 81 892 81 875 q 82 927 81 910 q 86 961 83 944 q 97 990 89 976 q 118 1010 106 1003 q 173 1022 135 1019 q 254 1024 211 1025 q 337 1019 297 1022 q 396 1015 376 1017 q 465 1015 431 1014 q 533 1010 499 1015 q 560 1003 547 1007 q 585 989 574 999 q 599 972 593 982 q 607 953 604 963 q 612 913 611 936 q 610 867 613 890 q 599 824 607 844 q 579 792 592 803 q 543 775 565 781 q 512 773 528 772 q 481 775 496 774 q 449 778 469 776 q 408 782 429 781 q 367 783 386 783 q 339 776 349 782 q 328 761 332 772 q 322 738 324 750 q 322 713 321 725 q 322 692 322 700 q 322 681 322 688 q 326 674 322 675 q 360 669 335 669 q 413 670 385 669 q 465 672 440 671 q 500 671 490 672 q 525 664 513 668 q 546 650 538 660 q 558 628 554 640 q 564 606 561 617 q 567 566 567 589 q 562 520 567 543 q 548 478 557 497 q 524 451 539 460 q 499 442 513 444 q 472 440 485 440 q 446 441 464 440 q 409 442 428 442 q 374 440 390 442 q 350 433 357 439 q 341 420 344 429 q 336 400 338 411 q 335 378 335 389 q 335 361 335 368 q 334 317 333 339 q 335 274 335 296 q 340 215 336 244 q 344 156 343 186 q 331 36 347 92 q 301 4 322 14 z "},"G":{"ha":757,"x_min":54,"x_max":696,"o":"m 558 19 q 454 -10 510 -4 q 346 -7 399 -17 q 281 9 314 -1 q 221 36 249 19 q 135 121 165 71 q 106 180 117 149 q 86 243 94 211 q 69 342 75 292 q 60 443 63 393 q 55 559 56 501 q 61 675 54 617 q 92 811 68 744 q 157 932 117 878 q 265 1018 200 990 q 394 1039 326 1043 q 526 1019 463 1035 q 594 992 561 1010 q 650 947 626 975 q 674 899 668 925 q 684 847 679 881 q 692 778 689 814 q 693 709 694 742 q 683 660 692 676 q 668 642 678 649 q 647 633 658 636 q 594 627 621 628 q 540 622 567 626 q 502 618 525 621 q 471 629 479 615 q 465 638 468 633 q 463 649 463 643 q 462 683 463 661 q 458 727 461 704 q 451 770 456 750 q 439 800 447 790 q 410 814 432 810 q 376 818 389 818 q 346 806 358 815 q 328 782 335 796 q 315 754 321 768 q 296 643 297 700 q 297 529 294 586 q 299 476 297 513 q 305 398 301 439 q 314 321 308 357 q 326 271 319 285 q 335 257 329 264 q 347 247 340 250 q 383 242 361 240 q 417 253 406 243 q 426 271 421 257 q 431 319 433 294 q 438 365 428 343 q 408 367 422 365 q 382 376 394 369 q 358 412 364 388 q 354 457 351 436 q 354 480 354 468 q 358 503 354 492 q 360 515 358 508 q 368 524 363 521 q 383 528 371 526 q 399 531 394 531 q 417 531 407 533 q 436 529 426 529 q 478 530 457 529 q 519 529 499 531 q 544 528 526 529 q 581 524 561 526 q 619 520 601 522 q 643 515 636 518 q 678 488 665 508 q 691 450 689 471 q 693 408 693 429 q 690 328 696 368 q 682 247 685 288 q 672 173 679 210 q 647 104 665 136 q 558 19 617 47 z "},"H":{"ha":897,"x_min":67,"x_max":828,"o":"m 269 -15 q 226 -18 253 -17 q 172 -18 200 -19 q 120 -12 144 -17 q 83 6 96 -7 q 72 31 75 14 q 67 69 68 49 q 67 108 67 89 q 69 139 68 126 q 76 241 72 190 q 83 343 81 292 q 85 401 83 357 q 89 494 88 444 q 92 586 90 543 q 93 644 93 629 q 87 775 92 710 q 89 906 82 840 q 98 948 92 926 q 118 986 104 969 q 146 1008 129 1000 q 179 1018 163 1015 q 216 1021 192 1019 q 266 1022 240 1022 q 315 1017 292 1021 q 349 1008 338 1014 q 368 987 361 1001 q 378 957 375 972 q 385 881 385 919 q 386 804 386 843 q 385 718 386 761 q 381 632 383 675 q 376 599 378 615 q 374 568 375 583 q 443 573 408 572 q 513 574 478 574 q 515 579 515 574 q 517 613 517 589 q 519 666 518 636 q 520 729 519 696 q 522 793 521 763 q 523 847 522 824 q 524 881 524 871 q 526 918 525 900 q 535 954 528 936 q 561 992 543 976 q 594 1008 576 1003 q 631 1017 613 1014 q 690 1018 660 1019 q 747 1010 719 1017 q 789 983 774 1003 q 809 935 804 963 q 817 882 814 908 q 821 736 824 808 q 814 590 818 664 q 808 455 810 522 q 810 321 807 388 q 817 230 813 275 q 825 140 821 185 q 828 97 828 118 q 822 56 828 76 q 790 15 815 28 q 742 0 768 3 q 690 -4 715 -3 q 622 -7 657 -7 q 556 8 586 -7 q 522 42 536 18 q 510 77 514 58 q 504 114 507 96 q 500 235 499 175 q 504 354 501 294 q 438 353 471 353 q 374 351 406 353 q 373 242 371 296 q 375 133 375 188 q 375 91 376 113 q 367 50 374 69 q 339 7 360 24 q 306 -8 324 -4 q 269 -15 288 -12 z "},"I":{"ha":453,"x_min":78,"x_max":386,"o":"m 318 -6 q 261 -13 290 -12 q 203 -14 232 -14 q 163 -11 183 -14 q 124 1 142 -8 q 102 20 111 8 q 89 46 93 32 q 81 113 83 65 q 79 215 79 161 q 81 318 79 269 q 82 386 82 367 q 82 676 85 531 q 81 731 82 690 q 78 818 79 772 q 78 904 78 864 q 79 960 78 944 q 88 991 82 975 q 107 1017 94 1007 q 141 1030 118 1025 q 190 1035 164 1035 q 241 1035 217 1036 q 281 1032 265 1033 q 320 1019 300 1029 q 349 990 340 1008 q 360 953 357 972 q 365 915 364 935 q 367 873 367 903 q 367 803 367 843 q 366 721 367 764 q 365 638 365 678 q 363 569 364 599 q 363 526 363 539 q 367 416 361 471 q 375 306 372 361 q 376 270 375 297 q 380 213 378 243 q 383 156 382 183 q 385 121 385 129 q 384 69 386 96 q 367 22 382 42 q 345 4 358 11 q 318 -6 332 -3 z "},"J":{"ha":642,"x_min":10,"x_max":574,"o":"m 165 -7 q 116 -8 140 -8 q 68 -1 92 -7 q 47 4 58 1 q 28 11 36 7 q 15 22 19 15 q 14 38 10 28 q 11 49 11 43 q 13 63 11 56 q 17 122 17 92 q 21 182 18 151 q 25 210 22 196 q 36 236 28 225 q 63 258 44 251 q 92 264 76 264 q 122 264 107 264 q 160 264 142 263 q 196 272 178 265 q 235 296 218 279 q 264 332 253 313 q 281 389 278 358 q 283 450 283 419 q 281 621 285 536 q 272 793 276 706 q 269 839 272 810 q 266 900 267 868 q 268 960 265 932 q 281 1001 271 989 q 308 1018 290 1015 q 342 1022 326 1021 q 383 1022 356 1022 q 440 1021 410 1022 q 497 1016 471 1019 q 536 1007 524 1013 q 565 971 558 996 q 572 943 571 957 q 574 915 574 929 q 573 890 574 908 q 571 852 572 872 q 568 813 569 832 q 567 789 567 794 q 565 722 565 772 q 564 613 564 671 q 564 503 564 554 q 564 436 564 453 q 563 314 563 375 q 547 194 563 253 q 525 135 539 164 q 492 82 511 107 q 419 28 464 46 q 342 6 382 13 q 263 -3 303 0 q 214 -6 239 -6 q 165 -7 189 -6 z "},"K":{"ha":826,"x_min":79,"x_max":799,"o":"m 189 -19 q 141 -18 165 -19 q 101 -1 117 -17 q 83 35 86 13 q 79 76 79 57 q 81 178 79 128 q 85 278 83 228 q 85 348 85 297 q 84 465 85 399 q 83 604 83 531 q 81 744 82 678 q 81 860 81 810 q 81 931 81 911 q 83 971 81 950 q 100 1007 86 992 q 132 1022 113 1019 q 169 1024 151 1024 q 201 1022 179 1024 q 248 1019 224 1021 q 294 1015 272 1017 q 324 1008 315 1013 q 357 979 347 999 q 367 947 365 964 q 367 914 368 931 q 358 790 364 851 q 353 665 351 728 q 361 663 353 663 q 369 665 369 664 q 412 743 389 706 q 458 817 435 781 q 503 897 483 856 q 551 975 522 939 q 571 996 560 986 q 596 1008 582 1006 q 619 1008 607 1011 q 642 999 632 1006 q 704 963 672 978 q 764 924 736 947 q 777 900 775 914 q 776 871 779 886 q 765 841 772 856 q 751 814 758 826 q 708 746 732 778 q 660 681 683 714 q 608 603 632 642 q 557 526 585 564 q 581 479 569 503 q 604 432 592 456 q 618 408 608 425 q 640 369 628 392 q 667 324 653 347 q 695 278 682 300 q 718 239 708 256 q 732 215 728 222 q 749 188 738 206 q 772 152 760 171 q 791 115 783 133 q 799 88 799 97 q 786 60 799 72 q 756 38 774 47 q 720 20 739 28 q 688 8 701 13 q 659 -1 676 4 q 623 -11 642 -7 q 588 -15 604 -15 q 563 -8 572 -15 q 545 13 554 -3 q 527 49 536 29 q 511 86 518 68 q 500 113 504 104 q 476 166 489 140 q 451 219 463 192 q 446 235 450 224 q 438 258 442 246 q 430 282 433 271 q 425 297 426 293 q 416 314 424 301 q 407 329 408 326 l 351 329 q 356 234 354 281 q 360 139 357 188 q 362 102 360 124 q 364 58 364 81 q 359 18 364 36 q 342 -7 354 0 q 311 -15 332 -12 q 267 -19 290 -18 q 221 -19 243 -19 q 189 -19 199 -19 z "},"L":{"ha":603,"x_min":74,"x_max":589,"o":"m 425 -3 q 320 -8 372 -3 q 215 -10 268 -12 q 167 -1 192 -7 q 126 21 143 6 q 101 59 110 36 q 89 106 92 82 q 81 261 81 183 q 82 418 82 339 q 83 516 82 467 q 85 614 85 565 q 81 711 83 663 q 75 808 78 760 q 76 828 75 814 q 76 858 76 842 q 76 888 76 874 q 76 906 76 901 q 76 942 74 917 q 81 979 78 968 q 118 1011 92 1004 q 142 1017 129 1015 q 167 1019 154 1018 q 217 1022 192 1022 q 265 1021 242 1022 q 304 1018 285 1021 q 339 1004 324 1015 q 364 981 354 996 q 376 949 374 965 q 383 899 382 925 q 382 850 383 874 q 374 729 379 789 q 367 610 369 669 q 367 478 364 543 q 375 347 371 413 q 379 318 376 336 q 392 294 382 300 q 414 289 397 290 q 449 288 431 288 q 483 288 467 288 q 508 288 500 288 q 535 281 522 285 q 558 269 549 278 q 576 242 571 258 q 583 208 581 225 q 587 167 585 193 q 589 114 589 142 q 585 61 589 86 q 574 24 582 36 q 535 1 560 8 q 480 -4 507 -6 q 425 -3 453 -3 z "},"M":{"ha":1214,"x_min":53,"x_max":1153,"o":"m 122 -15 q 74 -6 97 -19 q 63 1 68 -3 q 56 10 58 4 q 54 35 53 18 q 59 70 56 51 q 65 106 63 89 q 69 132 68 124 q 72 169 72 151 q 71 207 71 188 q 74 333 71 271 q 82 458 76 396 q 94 575 88 517 q 104 693 100 633 q 110 785 107 739 q 118 876 113 831 q 128 942 121 908 q 160 1000 136 976 q 196 1018 174 1014 q 238 1021 218 1022 q 270 1020 246 1021 q 322 1019 294 1019 q 374 1017 350 1018 q 407 1017 399 1017 q 429 1011 418 1014 q 450 1001 440 1008 q 474 961 467 988 q 481 938 478 950 q 488 913 485 925 q 537 697 514 804 q 592 483 560 589 q 635 594 619 536 q 671 708 650 651 q 692 763 675 722 q 727 851 708 804 q 762 940 746 899 q 783 994 778 981 q 799 1013 788 1004 q 822 1021 811 1021 q 835 1017 829 1021 q 849 1014 842 1014 q 860 1015 851 1014 q 880 1016 869 1015 q 899 1017 890 1017 q 910 1018 907 1018 q 939 1019 917 1018 q 985 1019 961 1019 q 1031 1019 1010 1019 q 1060 1019 1053 1019 q 1069 1020 1064 1019 q 1076 1018 1074 1021 q 1090 1003 1088 1014 q 1094 995 1092 999 q 1096 988 1096 992 q 1108 870 1103 929 q 1119 753 1114 811 q 1125 638 1124 694 q 1129 524 1126 582 q 1134 440 1132 482 q 1139 356 1136 399 q 1142 270 1142 313 q 1146 186 1143 228 q 1151 131 1149 158 q 1150 76 1153 104 q 1147 53 1149 65 q 1138 32 1144 42 q 1113 8 1129 18 q 1083 -1 1099 1 q 1053 -4 1068 -3 q 1023 -6 1044 -4 q 978 -8 1001 -7 q 935 -10 956 -10 q 906 -7 914 -10 q 868 21 879 -3 q 856 56 860 38 q 850 92 853 74 q 844 198 844 144 q 844 306 844 251 q 844 361 844 319 q 844 451 844 403 q 844 541 844 499 q 843 597 843 583 q 795 467 822 531 q 743 338 768 404 q 733 319 739 328 q 724 301 728 311 q 716 282 721 294 q 705 257 711 269 q 692 234 699 244 q 678 222 685 224 q 661 207 672 210 q 617 204 639 206 q 574 207 594 203 q 525 229 544 211 q 499 260 510 243 q 479 297 489 278 q 408 463 440 376 q 388 518 397 490 q 365 574 378 546 q 366 419 367 496 q 367 265 365 343 q 367 228 367 256 q 369 168 368 200 q 369 108 369 136 q 368 71 369 81 q 365 45 367 58 q 357 21 364 32 q 331 -3 350 7 q 297 -6 322 -6 q 244 -7 272 -7 q 192 -6 217 -7 q 157 -7 167 -6 q 140 -12 149 -10 q 122 -15 131 -14 z "},"N":{"ha":872,"x_min":71,"x_max":807,"o":"m 306 -17 q 278 -19 297 -18 q 235 -22 258 -21 q 192 -22 213 -22 q 164 -21 172 -22 q 123 -15 144 -19 q 88 6 101 -10 q 74 38 76 19 q 71 72 71 56 q 72 117 71 96 q 75 163 74 139 q 78 232 76 179 q 81 345 79 285 q 83 458 82 406 q 86 528 85 511 q 94 661 89 594 q 93 794 100 728 q 90 828 92 804 q 88 879 89 853 q 85 930 86 906 q 86 964 85 954 q 97 990 89 978 q 117 1010 104 1003 q 144 1017 129 1017 q 174 1018 158 1018 q 200 1019 181 1018 q 242 1023 219 1021 q 285 1027 265 1025 q 311 1029 304 1029 q 331 1018 324 1029 q 340 1006 339 1013 q 390 872 368 939 q 433 736 413 804 q 478 597 456 665 q 519 458 500 528 q 517 529 517 494 q 517 600 517 564 q 512 725 515 663 q 507 850 508 788 q 506 894 507 868 q 509 944 506 919 q 520 990 513 969 q 544 1019 528 1011 q 582 1028 561 1028 q 619 1028 593 1028 q 676 1026 646 1028 q 731 1022 706 1025 q 768 1017 757 1019 q 801 989 792 1013 q 806 958 806 979 q 806 912 807 936 q 803 865 806 888 q 801 832 801 842 q 791 667 796 749 q 786 501 786 585 q 782 365 786 433 q 778 229 778 297 q 778 139 778 185 q 776 49 779 93 q 776 34 776 46 q 775 19 775 22 q 774 6 778 13 q 763 -3 769 0 q 747 -5 758 -4 q 732 -6 736 -6 q 703 -6 725 -6 q 655 -6 681 -6 q 607 -5 629 -6 q 576 -4 585 -4 q 539 2 558 -3 q 507 21 519 7 q 491 50 500 29 q 473 95 482 71 q 456 142 464 119 q 444 174 449 164 q 430 212 440 185 q 406 275 419 239 q 378 350 393 311 q 351 425 364 389 q 327 488 338 461 q 313 526 317 515 q 322 399 313 463 q 335 272 332 336 q 337 185 338 228 q 340 99 336 143 q 345 61 343 79 q 344 24 347 43 q 335 -3 344 10 q 306 -17 324 -14 z "},"O":{"ha":850,"x_min":40,"x_max":797,"o":"m 606 32 q 525 -2 568 10 q 438 -15 482 -14 q 351 -7 394 -17 q 268 24 307 3 q 184 85 222 47 q 118 167 146 122 q 79 250 94 206 q 56 340 64 294 q 47 515 40 426 q 78 688 54 604 q 126 810 96 750 q 196 919 156 869 q 251 966 219 947 q 318 999 283 985 q 358 1008 338 1006 q 399 1014 379 1011 q 488 1019 443 1021 q 575 1004 532 1017 q 672 945 628 988 q 739 853 715 903 q 786 700 775 781 q 797 539 797 619 q 782 340 797 440 q 721 153 767 240 q 606 32 681 78 m 350 300 q 393 280 369 286 q 440 276 417 274 q 486 293 468 279 q 529 341 514 311 q 553 403 544 371 q 571 501 567 451 q 572 601 575 551 q 559 683 571 642 q 524 756 547 724 q 465 798 503 785 q 397 792 428 811 q 392 790 394 790 q 388 788 390 789 q 356 763 372 785 q 332 728 339 742 q 313 676 319 703 q 299 621 306 649 q 287 541 292 581 q 283 461 282 501 q 290 406 285 433 q 308 353 294 378 q 326 324 315 338 q 350 300 336 311 z "},"P":{"ha":810,"x_min":71,"x_max":782,"o":"m 283 -18 q 243 -19 269 -19 q 188 -18 217 -19 q 135 -12 160 -17 q 99 0 110 -8 q 78 26 85 8 q 73 55 74 40 q 72 85 72 69 q 81 195 72 140 q 90 306 90 250 q 89 386 90 346 q 88 467 88 426 q 90 547 88 507 q 90 626 92 586 q 89 683 90 640 q 86 776 88 726 q 84 868 85 825 q 83 925 83 911 q 73 949 75 932 q 74 976 71 965 q 86 996 76 990 q 113 1007 94 1003 q 153 1013 132 1011 q 194 1014 174 1014 q 225 1014 214 1014 q 322 1014 274 1017 q 369 1012 335 1014 q 441 1008 403 1010 q 513 1003 479 1006 q 558 999 547 1000 q 653 967 610 992 q 685 940 671 956 q 713 910 700 925 q 774 775 758 851 q 781 694 782 735 q 772 614 779 654 q 758 550 765 582 q 735 489 750 518 q 691 427 718 456 q 632 381 664 399 q 573 360 604 365 q 510 353 542 356 q 372 349 440 349 q 372 317 372 333 q 371 286 371 301 q 370 240 371 274 q 369 168 369 207 q 367 96 368 129 q 364 50 365 63 q 357 19 361 35 q 340 -6 353 4 q 314 -17 329 -15 q 283 -18 299 -18 m 332 563 q 403 563 368 565 q 474 564 438 561 q 506 569 489 565 q 535 583 522 572 q 553 608 547 593 q 561 639 558 624 q 564 694 565 667 q 553 749 563 722 q 518 793 543 778 q 485 806 503 803 q 447 810 467 808 q 389 811 418 811 q 329 811 360 811 q 328 687 329 749 q 332 563 328 625 z "},"Q":{"ha":861,"x_min":40,"x_max":826,"o":"m 747 -129 q 715 -145 733 -140 q 681 -146 697 -150 q 653 -130 665 -140 q 629 -107 640 -119 q 590 -51 607 -81 q 556 8 572 -21 q 451 -14 506 -8 q 347 -7 397 -19 q 233 46 286 8 q 140 132 179 83 q 90 220 110 172 q 60 317 69 268 q 47 503 40 408 q 78 688 53 597 q 126 810 96 750 q 196 919 156 869 q 251 966 219 947 q 317 999 283 985 q 357 1008 336 1006 q 399 1014 378 1011 q 488 1019 443 1021 q 574 1004 532 1017 q 672 945 628 988 q 739 853 715 903 q 785 704 774 782 q 797 547 797 626 q 792 410 797 478 q 767 275 786 342 q 741 197 756 235 q 703 125 726 160 q 724 101 708 118 q 758 63 740 83 q 792 25 776 43 q 814 0 808 7 q 822 -15 818 -7 q 826 -32 826 -24 q 818 -58 826 -44 q 797 -86 810 -72 q 771 -111 785 -100 q 747 -129 757 -122 m 350 300 q 393 280 369 286 q 440 276 417 274 q 486 293 465 279 q 528 341 514 311 q 553 403 543 371 q 571 501 567 451 q 572 601 575 551 q 558 683 569 642 q 524 756 547 724 q 465 798 501 785 q 397 792 428 811 q 388 788 393 790 q 356 763 372 785 q 332 728 339 742 q 312 676 319 703 q 299 621 304 649 q 285 541 290 581 q 283 461 281 501 q 290 406 285 433 q 307 353 294 378 q 326 324 315 338 q 350 300 336 311 z "},"R":{"ha":839,"x_min":71,"x_max":782,"o":"m 751 4 q 725 -13 743 -7 q 686 -22 707 -19 q 644 -26 665 -25 q 610 -25 624 -26 q 581 -22 594 -24 q 554 -12 567 -19 q 533 8 543 -7 q 528 28 529 18 q 526 49 526 38 q 526 114 525 81 q 526 180 526 147 q 522 244 526 213 q 507 307 518 276 q 475 351 494 335 q 424 349 449 350 q 372 349 399 349 q 372 317 372 333 q 371 286 371 301 q 370 240 371 274 q 369 168 369 207 q 367 96 368 129 q 364 50 365 63 q 357 19 361 35 q 340 -6 353 4 q 314 -17 329 -15 q 285 -18 299 -18 q 243 -19 269 -19 q 189 -18 217 -19 q 136 -12 161 -17 q 99 0 111 -8 q 78 26 85 8 q 73 55 74 40 q 72 85 72 69 q 81 195 72 140 q 90 306 90 250 q 89 386 90 346 q 88 467 88 426 q 90 547 88 507 q 90 626 92 586 q 89 683 90 640 q 86 776 88 726 q 84 868 85 825 q 83 925 83 911 q 73 949 75 932 q 74 976 71 965 q 86 996 76 990 q 113 1007 94 1003 q 153 1013 132 1011 q 194 1014 174 1014 q 225 1014 214 1014 q 322 1014 274 1017 q 369 1012 335 1014 q 441 1008 403 1010 q 513 1003 479 1006 q 558 999 547 1000 q 653 967 610 992 q 685 940 671 956 q 713 910 700 925 q 774 775 758 851 q 781 694 782 735 q 772 614 779 654 q 760 558 767 586 q 742 503 753 529 q 678 414 718 453 q 728 353 708 389 q 756 281 749 318 q 765 191 763 236 q 767 100 767 146 q 767 75 767 88 q 765 49 767 63 q 761 26 764 38 q 751 4 758 14 m 332 563 q 403 563 368 565 q 474 564 438 561 q 506 569 489 565 q 535 583 522 572 q 553 608 547 593 q 561 639 558 624 q 564 694 565 667 q 553 749 563 722 q 518 793 543 778 q 485 806 503 803 q 447 810 467 808 q 389 811 418 811 q 329 811 360 811 q 328 687 329 749 q 332 563 328 625 z "},"S":{"ha":747,"x_min":47,"x_max":700,"o":"m 506 6 q 422 -3 464 -1 q 338 -1 379 -4 q 283 1 319 -1 q 209 7 247 3 q 137 18 171 11 q 88 36 103 25 q 58 76 65 51 q 52 144 47 110 q 64 214 57 179 q 68 239 65 224 q 76 268 71 254 q 89 293 82 282 q 107 307 96 304 q 147 308 119 311 q 206 299 175 304 q 266 287 238 293 q 307 279 294 281 q 360 273 333 275 q 413 276 386 271 q 449 297 435 282 q 468 332 464 313 q 466 372 472 351 q 443 408 460 392 q 407 434 426 424 q 367 453 388 444 q 298 476 333 467 q 229 500 263 485 q 133 569 172 525 q 74 667 93 613 q 59 779 56 721 q 94 892 63 838 q 183 978 126 947 q 246 1000 213 993 q 313 1006 279 1007 q 454 1009 383 1003 q 596 1000 525 1015 q 626 990 611 996 q 650 971 640 983 q 665 936 661 956 q 671 897 668 917 q 674 859 672 883 q 674 809 675 835 q 670 760 674 783 q 658 726 667 738 q 643 713 653 718 q 622 706 633 708 q 590 704 607 703 q 557 708 574 706 q 472 720 514 714 q 386 724 429 726 q 347 715 368 722 q 321 690 326 707 q 324 665 318 678 q 336 642 329 653 q 380 604 356 619 q 432 578 404 589 q 511 549 471 561 q 588 517 551 536 q 649 461 624 497 q 683 385 675 425 q 683 206 700 294 q 665 142 676 174 q 635 83 654 110 q 611 56 624 68 q 583 33 599 43 q 545 16 565 22 q 506 6 525 10 z "},"T":{"ha":714,"x_min":10,"x_max":699,"o":"m 438 -7 q 390 -13 418 -11 q 331 -13 361 -15 q 275 -5 301 -11 q 235 14 249 1 q 215 49 219 28 q 208 89 210 69 q 208 154 207 106 q 212 258 210 203 q 217 361 214 313 q 219 426 219 410 q 220 460 219 436 q 222 514 221 483 q 223 578 222 544 q 224 643 224 613 q 226 697 225 674 q 226 731 226 721 q 170 729 199 729 q 114 732 142 729 q 75 741 94 735 q 40 763 56 747 q 19 803 25 779 q 13 851 14 828 q 15 915 10 882 q 42 972 19 949 q 69 994 53 985 q 101 1008 85 1003 q 201 1024 150 1022 q 304 1032 253 1026 q 383 1036 332 1035 q 487 1035 433 1038 q 588 1024 540 1032 q 658 1000 635 1015 q 678 980 669 993 q 689 953 686 967 q 697 895 694 928 q 694 831 699 863 q 678 773 690 800 q 644 733 667 746 q 613 722 629 725 q 581 722 596 719 q 547 725 564 724 q 515 728 531 726 q 519 458 513 592 q 525 188 525 324 q 524 142 525 164 q 521 97 524 119 q 513 62 518 79 q 496 29 507 44 q 470 6 486 14 q 438 -7 454 -3 z "},"U":{"ha":849,"x_min":69,"x_max":790,"o":"m 556 -12 q 446 -21 501 -24 q 336 -10 390 -18 q 262 9 299 -3 q 192 40 225 21 q 129 101 151 65 q 98 179 107 138 q 85 263 89 221 q 81 376 81 319 q 79 489 82 432 q 73 578 76 533 q 69 668 69 624 q 70 685 69 672 q 71 713 71 699 q 71 741 71 728 q 71 758 71 754 q 71 805 71 774 q 72 870 71 836 q 78 935 74 904 q 89 979 82 965 q 114 1003 97 996 q 138 1010 125 1008 q 164 1015 151 1013 q 207 1017 182 1018 q 256 1012 232 1017 q 299 997 279 1007 q 329 971 319 988 q 338 949 336 961 q 340 926 339 938 q 342 877 342 913 q 342 797 342 842 q 340 702 342 753 q 338 607 339 651 q 337 527 338 563 q 336 478 336 492 q 338 423 336 450 q 344 368 339 396 q 352 341 347 354 q 367 318 357 328 q 390 304 376 308 q 417 297 403 300 q 453 299 433 294 q 483 317 472 303 q 499 358 494 329 q 506 419 504 386 q 508 481 508 451 q 507 528 507 511 q 506 567 507 539 q 504 631 506 594 q 502 707 503 667 q 501 783 501 747 q 500 847 500 819 q 500 886 500 875 q 505 941 501 914 q 524 990 508 968 q 553 1012 535 1006 q 590 1021 571 1018 q 688 1021 639 1028 q 718 1016 703 1019 q 746 1006 733 1013 q 779 965 771 989 q 788 915 786 940 q 788 864 790 889 q 779 777 785 819 q 772 692 774 735 q 771 571 769 631 q 771 450 772 511 q 768 378 771 414 q 763 306 765 342 q 753 222 760 264 q 733 142 747 181 q 668 43 711 82 q 615 8 644 22 q 556 -12 586 -6 z "},"V":{"ha":888,"x_min":24,"x_max":875,"o":"m 536 8 q 503 1 526 4 q 453 -3 479 -1 q 402 -5 426 -4 q 368 -6 378 -6 q 334 -3 351 -6 q 301 7 317 -1 q 276 30 286 15 q 260 60 267 44 q 240 116 253 74 q 213 206 226 158 q 187 295 199 253 q 171 353 175 338 q 149 424 160 389 q 128 496 139 460 q 117 535 125 506 q 100 597 110 564 q 83 660 90 631 q 72 699 75 689 q 67 716 71 703 q 58 744 63 729 q 49 771 53 758 q 43 788 44 783 q 37 826 40 799 q 31 883 33 853 q 26 941 28 914 q 25 979 24 968 q 33 999 28 989 q 46 1014 38 1008 q 70 1019 57 1019 q 96 1019 83 1019 q 167 1022 132 1018 q 239 1024 203 1026 q 263 1017 250 1022 q 282 1003 275 1013 q 297 975 292 990 q 306 944 301 960 q 347 760 329 853 q 390 576 365 668 q 416 485 403 531 q 442 393 429 439 q 481 529 460 463 q 521 664 501 596 q 543 755 535 708 q 563 847 551 801 q 576 905 569 876 q 596 961 583 933 q 611 988 603 975 q 633 1008 619 1001 q 651 1014 639 1011 q 678 1019 664 1017 q 705 1022 692 1021 q 725 1024 718 1024 q 788 1019 757 1024 q 851 1013 819 1015 q 867 1004 861 1011 q 869 988 872 997 q 874 969 875 976 q 862 914 868 942 q 846 858 856 886 q 819 781 833 819 q 793 704 804 743 q 768 615 779 660 q 743 526 757 571 q 710 420 728 474 q 679 311 692 367 q 652 201 665 256 q 617 93 639 146 q 584 42 604 65 q 536 8 564 18 z "},"W":{"ha":1161,"x_min":47,"x_max":1115,"o":"m 353 -17 q 303 -16 328 -18 q 254 -7 278 -14 q 219 8 236 -1 q 192 33 203 18 q 170 83 181 47 q 150 158 160 118 q 133 236 140 199 q 124 290 126 274 q 88 524 104 408 q 58 758 72 640 q 51 816 56 781 q 47 887 47 851 q 53 953 47 922 q 76 999 58 983 q 117 1018 93 1013 q 169 1022 142 1024 q 222 1015 196 1021 q 265 997 247 1008 q 294 970 282 988 q 308 933 306 953 q 316 883 314 908 q 321 832 318 858 q 335 571 331 701 q 354 308 339 440 q 389 417 374 363 q 419 526 404 471 q 444 635 433 581 q 464 743 456 689 q 472 760 465 753 q 486 775 479 768 q 502 787 493 782 q 521 793 511 792 q 541 793 526 793 q 572 792 556 793 q 604 791 589 792 q 625 790 619 790 q 638 786 628 790 q 651 781 649 782 q 664 764 664 775 q 699 620 679 692 q 740 478 719 549 q 768 397 753 438 q 799 317 783 357 q 842 602 832 458 q 863 892 853 746 q 864 922 863 903 q 867 960 865 940 q 875 996 869 979 q 889 1019 881 1013 q 922 1032 899 1028 q 972 1037 946 1036 q 1024 1037 999 1038 q 1063 1036 1049 1036 q 1081 1034 1072 1036 q 1097 1025 1090 1032 q 1106 1007 1104 1018 q 1110 985 1108 996 q 1101 735 1115 858 q 1069 488 1088 611 q 1055 351 1060 419 q 1035 215 1050 282 q 1006 126 1024 171 q 957 49 989 81 q 922 21 942 32 q 881 3 901 10 q 753 -7 819 -14 q 710 3 732 -4 q 672 24 689 10 q 653 45 661 33 q 639 69 646 57 q 613 137 624 101 q 594 207 603 172 q 577 299 583 253 q 565 392 571 346 q 544 258 554 325 q 518 124 533 190 q 507 86 513 104 q 494 50 501 68 q 453 7 482 22 q 405 -10 431 -6 q 353 -17 379 -15 z "},"X":{"ha":794,"x_min":28,"x_max":779,"o":"m 263 11 q 209 -8 239 -6 q 151 -7 179 -11 q 102 2 126 -4 q 54 19 78 8 q 31 57 28 31 q 42 95 31 71 q 70 145 54 119 q 101 194 86 171 q 122 229 115 218 q 191 343 158 286 q 251 460 224 400 q 251 465 253 463 q 249 471 250 468 q 225 514 240 494 q 199 556 210 533 q 158 643 176 599 q 119 732 139 688 q 85 808 104 771 q 53 883 67 844 q 43 917 47 900 q 38 950 39 933 q 50 985 38 969 q 85 1007 61 1000 q 134 1016 108 1014 q 186 1019 160 1018 q 223 1020 204 1021 q 258 1013 242 1019 q 299 983 282 1004 q 317 953 310 969 q 329 919 324 936 q 336 898 331 914 q 347 865 342 882 q 356 831 351 847 q 363 811 361 815 q 385 745 374 778 q 410 681 397 713 q 419 705 415 692 q 428 731 424 718 q 454 791 439 763 q 485 847 469 819 q 511 902 500 875 q 536 957 522 929 q 559 991 546 975 q 592 1013 572 1007 q 619 1015 600 1015 q 658 1014 638 1015 q 698 1011 679 1013 q 725 1010 717 1010 q 749 1006 736 1008 q 771 993 763 1003 q 778 972 778 985 q 776 947 779 958 q 758 896 769 921 q 733 847 746 871 q 646 699 694 769 q 557 553 597 629 q 531 502 543 528 q 507 450 518 476 q 624 235 560 336 q 638 215 628 231 q 658 183 647 200 q 677 152 668 167 q 689 132 686 138 q 701 110 696 121 q 708 88 706 99 q 693 38 715 58 q 640 10 671 17 q 613 3 626 7 q 583 -3 599 0 q 546 -8 565 -7 q 510 -1 526 -8 q 479 22 492 6 q 457 56 467 38 q 417 146 433 100 q 374 233 400 192 q 351 185 363 210 q 329 135 340 160 q 314 99 321 117 q 299 63 307 81 q 283 35 292 47 q 263 11 275 22 z "},"Y":{"ha":840,"x_min":8,"x_max":838,"o":"m 465 56 q 460 32 463 44 q 451 10 457 19 q 438 -3 446 1 q 419 -3 431 -7 q 367 -3 404 -3 q 289 -4 331 -4 q 210 -3 247 -4 q 158 1 172 -3 q 128 20 142 7 q 121 49 114 33 q 183 191 154 119 q 238 336 213 263 q 258 390 247 364 q 281 440 268 415 q 214 556 244 497 q 157 676 183 614 q 123 755 139 715 q 83 829 107 794 q 47 872 68 853 q 18 918 25 890 q 12 939 15 922 q 8 961 8 956 q 13 976 8 968 q 22 986 17 983 q 53 992 31 992 q 86 990 75 992 q 99 988 93 989 q 111 989 104 986 q 132 994 122 992 q 153 1000 142 997 q 210 1006 181 1004 q 267 1010 239 1007 q 288 996 283 1010 q 304 981 299 993 q 315 957 310 968 q 378 821 351 890 q 442 688 404 751 q 478 772 461 729 q 506 860 494 815 q 515 896 511 878 q 525 932 518 914 q 534 954 529 943 q 543 976 539 965 q 550 997 546 986 q 564 1011 554 1007 q 583 1012 569 1013 q 610 1010 596 1011 q 638 1008 625 1010 q 658 1006 651 1006 q 703 1003 681 1004 q 749 1003 725 1003 q 768 1002 753 1003 q 789 1004 783 1001 q 808 1001 800 1007 q 817 983 817 994 q 832 973 826 981 q 833 956 838 965 q 797 870 815 913 q 758 788 778 828 q 722 714 740 750 q 685 642 703 678 q 640 524 658 583 q 597 404 621 464 q 576 353 592 392 q 541 272 560 315 q 506 190 522 229 q 485 139 489 151 q 474 98 478 119 q 465 56 469 76 z "},"Z":{"ha":751,"x_min":35,"x_max":706,"o":"m 101 -17 q 75 -16 89 -19 q 50 -3 61 -12 q 44 19 38 7 q 44 25 44 22 q 43 29 43 28 q 47 87 46 58 q 46 144 47 115 q 42 169 44 157 q 38 193 39 181 q 36 231 35 207 q 49 263 38 254 q 77 284 64 274 q 103 306 90 294 q 149 358 128 329 q 190 415 169 388 q 227 464 199 428 q 288 542 256 500 q 347 620 319 583 q 383 669 375 657 q 403 701 394 685 q 421 735 413 718 q 388 737 413 735 q 336 742 364 739 q 284 747 308 744 q 251 749 260 749 q 224 749 238 749 q 199 747 211 749 q 177 744 190 746 q 151 742 164 743 q 125 742 138 740 q 107 747 113 743 q 96 774 99 756 q 93 814 93 792 q 94 856 93 836 q 94 889 96 876 q 93 907 94 894 q 92 932 92 919 q 93 956 92 944 q 97 972 94 967 q 95 991 92 982 q 108 1003 99 1000 q 131 1005 115 1006 q 154 1003 147 1004 q 163 1000 157 1001 q 172 999 169 999 q 184 999 175 999 q 196 1001 193 1000 q 221 1001 201 1001 q 262 1000 240 1000 q 302 999 283 1000 q 328 999 321 999 q 395 999 361 999 q 464 1000 429 1000 q 556 999 510 1000 q 649 996 603 997 q 672 997 661 1003 q 683 978 682 992 q 683 892 683 935 q 679 807 683 850 q 676 767 676 788 q 674 728 675 747 q 667 711 674 721 q 661 692 669 700 q 597 612 626 653 q 538 528 567 571 q 502 478 529 515 q 444 399 475 440 q 387 320 414 357 q 350 271 360 283 q 337 257 343 264 q 325 243 331 250 q 358 242 342 244 q 392 236 375 239 q 421 236 400 235 q 465 240 442 238 q 508 246 488 243 q 538 250 529 249 q 602 256 569 254 q 668 261 635 258 q 679 258 674 263 q 688 249 685 254 q 697 241 693 246 q 701 229 701 236 q 698 157 699 193 q 700 85 697 121 q 701 70 700 81 q 703 47 703 60 q 705 24 704 35 q 706 10 706 14 q 695 -5 703 0 q 678 -6 688 -10 q 672 -6 675 -4 q 667 -7 669 -7 q 608 -9 638 -10 q 550 -10 579 -8 q 474 -15 513 -12 q 397 -15 436 -17 q 277 -8 336 -14 q 157 -7 218 -3 q 130 -11 143 -8 q 101 -17 117 -14 z "},"[":{"ha":557,"x_min":79,"x_max":504,"o":"m 490 -3 q 476 -14 485 -10 q 458 -18 467 -18 q 435 -17 453 -18 q 397 -13 417 -15 q 358 -10 376 -11 q 335 -8 340 -8 q 265 -8 299 -6 q 196 -12 231 -10 q 178 -13 190 -12 q 153 -15 167 -14 q 127 -15 139 -15 q 110 -14 115 -15 q 94 -3 101 -11 q 85 13 88 4 q 80 53 81 25 q 80 114 79 82 q 82 174 81 146 q 83 215 83 203 q 88 347 86 282 q 90 478 89 411 q 90 531 90 494 q 89 615 89 568 q 89 715 89 663 q 90 814 89 767 q 92 898 90 861 q 96 951 93 935 q 108 986 99 969 q 132 1011 117 1003 q 194 1022 161 1025 q 260 1022 228 1018 q 304 1028 275 1025 q 365 1033 333 1032 q 425 1032 397 1033 q 467 1022 453 1031 q 489 988 486 1011 q 490 955 490 976 q 489 909 490 933 q 485 863 488 885 q 479 831 483 840 q 446 806 471 807 q 419 808 440 806 q 392 810 397 810 q 369 810 381 811 q 347 803 357 810 q 335 784 339 797 q 328 756 331 771 q 326 727 326 742 q 325 703 325 713 q 325 622 325 663 q 322 542 325 582 q 316 449 319 494 q 314 356 313 403 q 314 334 314 347 q 316 307 314 321 q 321 281 318 293 q 331 264 324 269 q 351 257 336 258 q 382 256 365 256 q 413 258 399 257 q 436 258 428 258 q 481 238 464 256 q 497 189 494 219 q 501 75 504 132 q 501 57 501 68 q 499 34 500 46 q 497 12 499 22 q 490 -3 494 1 z "},"\\":{"ha":711,"x_min":31,"x_max":688,"o":"m 665 8 q 626 -5 653 1 q 567 -16 599 -11 q 508 -24 536 -21 q 467 -28 481 -28 q 436 -24 451 -28 q 410 -10 421 -19 q 383 24 393 4 q 364 63 372 43 q 337 132 349 97 q 313 203 325 167 q 296 250 308 217 q 267 326 283 283 q 232 417 250 369 q 197 508 214 465 q 167 585 181 551 q 149 632 154 618 q 103 730 128 682 q 57 828 79 778 q 38 876 46 851 q 32 926 31 900 q 41 961 33 944 q 64 989 49 978 q 122 1017 89 1008 q 186 1029 154 1026 q 245 1024 214 1032 q 299 997 276 1017 q 330 953 318 978 q 353 903 342 929 q 372 861 363 882 q 390 818 382 840 q 403 784 394 808 q 424 728 413 760 q 449 662 436 697 q 474 594 463 626 q 494 538 485 563 q 507 504 503 514 q 549 392 528 447 q 593 281 569 336 q 611 238 597 269 q 640 172 625 207 q 667 105 654 136 q 683 63 681 74 q 687 45 686 54 q 685 28 688 36 q 665 8 678 15 z "},"]":{"ha":557,"x_min":56,"x_max":479,"o":"m 297 -7 q 253 -12 282 -10 q 192 -17 224 -15 q 133 -16 161 -18 q 90 -7 104 -14 q 68 28 71 4 q 67 61 67 39 q 67 108 67 83 q 71 153 68 132 q 78 185 74 175 q 113 210 89 208 q 123 210 115 210 q 139 208 131 210 q 156 206 147 207 q 167 206 164 206 q 190 206 178 206 q 211 213 201 206 q 224 231 219 218 q 230 259 228 244 q 232 289 232 274 q 232 314 232 304 q 233 394 233 354 q 235 474 232 433 q 241 567 238 521 q 244 660 244 613 q 244 681 244 668 q 242 708 243 694 q 236 735 240 722 q 226 753 232 747 q 206 759 219 758 q 175 759 192 760 q 144 758 158 758 q 121 757 129 757 q 97 763 110 758 q 78 778 85 768 q 66 801 69 789 q 60 826 63 814 q 56 942 56 885 q 56 958 56 947 q 58 981 57 969 q 61 1003 58 993 q 68 1019 64 1014 q 99 1033 79 1033 q 122 1032 104 1033 q 161 1029 140 1031 q 199 1026 182 1028 q 224 1024 217 1024 q 292 1023 258 1021 q 361 1028 326 1025 q 379 1029 367 1028 q 405 1031 392 1031 q 430 1032 418 1032 q 447 1031 442 1032 q 474 1003 467 1024 q 478 962 478 990 q 478 901 479 933 q 476 841 478 869 q 475 800 475 813 q 470 669 472 733 q 468 538 468 604 q 468 484 468 521 q 468 400 468 447 q 469 301 468 353 q 469 201 469 249 q 466 117 468 154 q 461 64 464 81 q 449 30 458 47 q 425 4 440 13 q 395 -5 411 -3 q 363 -7 379 -7 q 331 -6 347 -7 q 297 -7 314 -6 z "},"^":{"ha":574,"x_min":38,"x_max":538,"o":"m 213 597 q 204 595 208 597 q 197 594 200 593 q 174 601 192 596 q 153 608 157 607 q 128 613 140 611 q 103 617 115 614 q 81 622 97 618 q 60 628 64 625 q 49 644 51 632 q 38 664 38 651 q 40 676 38 667 q 44 689 43 686 q 56 718 47 697 q 76 763 65 739 q 96 806 86 786 q 110 833 106 826 q 147 908 128 871 q 188 982 167 946 q 192 987 189 983 q 194 992 194 990 q 217 1010 199 1007 q 242 1011 229 1010 q 268 1014 256 1013 q 328 1017 299 1017 q 388 1019 357 1018 q 407 1008 400 1019 q 424 1006 417 1011 q 435 992 432 1001 q 442 956 438 974 q 449 919 446 938 q 460 883 453 900 q 474 847 467 865 q 532 679 508 763 q 531 669 532 676 q 531 660 531 661 q 522 633 538 643 q 509 628 518 631 q 489 622 500 625 q 468 615 478 618 q 454 611 458 613 q 436 608 444 608 q 418 606 428 608 q 401 601 411 604 q 380 598 390 599 q 360 598 369 597 q 347 604 351 599 q 340 612 344 608 q 336 621 336 615 q 322 721 329 671 q 303 819 314 771 q 288 780 299 810 q 266 717 278 750 q 244 653 254 683 q 232 614 235 624 q 213 597 228 597 z "},"_":{"ha":903,"x_min":13,"x_max":889,"o":"m 332 -181 q 285 -182 319 -181 q 211 -185 250 -183 q 138 -187 172 -186 q 92 -186 104 -187 q 67 -181 79 -185 q 46 -169 54 -176 q 32 -150 36 -161 q 25 -128 28 -139 q 23 -96 22 -112 q 21 -64 24 -79 q 16 -45 19 -54 q 14 -28 13 -36 q 15 -15 14 -24 q 19 3 17 -6 q 23 21 21 13 q 26 33 25 29 q 40 45 29 42 q 60 46 51 49 q 246 53 153 58 q 432 46 339 47 q 485 46 444 46 q 571 47 525 46 q 657 48 617 47 q 710 49 697 49 q 749 49 725 49 q 797 49 772 50 q 843 44 822 49 q 874 28 864 39 q 881 15 879 22 q 885 0 883 7 q 887 -23 886 -7 q 888 -57 888 -39 q 889 -92 889 -75 q 889 -114 889 -108 q 885 -137 888 -125 q 876 -157 883 -149 q 858 -172 869 -167 q 835 -179 846 -176 q 785 -183 821 -182 q 710 -183 750 -183 q 633 -181 669 -182 q 583 -179 597 -179 q 458 -178 521 -178 q 332 -181 394 -179 z "},"`":{"ha":369,"x_min":35,"x_max":336,"o":"m 219 669 q 194 665 208 656 q 184 670 189 668 q 176 678 179 672 q 119 771 147 724 q 68 867 92 818 q 63 878 67 869 q 53 898 58 888 q 45 917 49 908 q 40 929 42 926 q 36 947 38 938 q 40 963 35 956 q 44 971 43 967 q 49 978 46 975 q 57 983 50 979 q 71 993 64 988 q 84 1003 78 999 q 93 1008 90 1007 q 127 1028 108 1021 q 164 1046 146 1036 q 188 1044 176 1053 q 193 1021 199 1035 q 208 1007 204 1017 q 222 975 211 999 q 244 925 232 951 q 268 875 257 899 q 283 843 279 851 q 302 813 290 829 q 323 781 314 797 q 334 751 332 765 q 324 726 336 736 q 316 722 321 724 q 307 718 311 721 q 294 713 303 717 q 274 703 285 708 q 255 692 264 697 q 242 686 246 688 q 230 678 235 683 q 219 669 225 674 z "},"a":{"ha":800,"x_min":47,"x_max":751,"o":"m 128 -17 q 94 -15 117 -18 q 63 -6 71 -12 q 53 8 56 0 q 50 26 51 17 q 47 90 47 44 q 49 188 47 136 q 53 286 51 240 q 58 350 56 332 q 68 410 63 381 q 76 469 74 439 q 83 542 82 506 q 89 617 85 579 q 99 674 93 644 q 111 731 106 703 q 131 807 119 769 q 161 879 142 844 q 219 950 183 918 q 296 997 254 982 q 345 1008 319 1006 q 396 1008 371 1011 q 476 1000 436 1006 q 553 979 517 994 q 631 922 600 963 q 681 833 663 882 q 708 736 699 785 q 723 596 721 665 q 728 456 725 526 q 731 390 728 422 q 736 325 733 357 q 744 181 743 253 q 746 35 746 108 q 749 17 751 26 q 736 4 746 7 q 715 1 731 1 q 683 -1 700 0 q 652 -3 667 -3 q 632 -4 638 -4 q 597 -11 614 -7 q 561 -12 579 -15 q 527 -12 544 -10 q 494 -6 510 -14 q 486 6 490 -3 q 482 19 482 14 l 482 188 q 453 188 475 188 q 406 188 431 188 q 359 188 381 188 q 329 186 338 188 q 305 183 317 185 q 281 182 293 182 q 285 119 281 150 q 289 56 290 88 q 287 35 288 44 q 282 14 286 25 q 264 -8 282 -6 q 238 -10 257 -8 q 196 -12 218 -11 q 154 -15 174 -14 q 128 -17 135 -17 m 304 554 q 283 349 290 453 q 324 349 293 349 q 391 350 356 350 q 458 351 426 350 q 499 351 489 351 q 497 466 497 410 q 494 581 497 522 q 487 638 493 608 q 465 692 481 668 q 419 722 449 715 q 367 713 390 729 q 340 683 350 701 q 324 644 331 664 q 312 599 317 621 q 304 554 307 578 z "},"b":{"ha":824,"x_min":68,"x_max":793,"o":"m 365 -7 q 234 -4 299 -7 q 103 4 169 -1 q 84 16 90 6 q 85 38 78 26 q 83 101 85 53 q 78 206 81 150 q 74 310 76 261 q 72 375 72 360 q 72 552 69 464 q 74 731 74 640 q 71 793 74 754 q 69 872 68 832 q 77 948 71 913 q 100 999 83 983 q 151 1024 121 1018 q 210 1032 181 1029 q 390 1032 300 1036 q 470 1026 431 1029 q 549 1014 510 1022 q 587 1003 568 1010 q 622 985 606 996 q 656 950 642 969 q 681 908 669 931 q 706 840 697 876 q 711 767 714 803 q 681 671 707 717 q 640 619 664 643 q 588 578 615 596 q 621 564 606 574 q 651 543 636 554 q 703 496 679 521 q 746 439 728 471 q 783 335 774 392 q 786 224 793 278 q 754 128 779 172 q 710 77 736 100 q 657 36 685 54 q 619 19 639 25 q 578 10 599 13 q 472 -4 525 -1 q 365 -7 418 -7 m 325 843 q 328 738 326 790 q 333 633 331 686 q 384 638 358 636 q 433 646 410 639 q 463 657 449 650 q 489 675 478 664 q 522 738 514 699 q 508 806 529 778 q 465 835 492 826 q 397 848 433 847 q 325 843 361 849 m 342 268 q 396 266 369 267 q 449 271 422 265 q 496 292 475 275 q 516 322 508 304 q 525 358 524 339 q 522 395 526 376 q 508 429 518 414 q 483 454 499 444 q 450 468 467 464 q 394 477 422 476 q 338 476 365 478 q 337 372 338 424 q 342 268 336 321 z "},"c":{"ha":738,"x_min":49,"x_max":689,"o":"m 553 19 q 449 -10 504 -4 q 340 -7 393 -17 q 276 9 308 -1 q 215 36 243 19 q 129 121 160 71 q 100 180 111 149 q 81 243 89 211 q 63 342 69 292 q 54 443 57 393 q 49 559 50 501 q 56 675 49 617 q 87 811 63 744 q 151 932 111 878 q 260 1018 194 990 q 389 1039 321 1043 q 521 1019 457 1035 q 588 992 556 1010 q 644 947 621 975 q 668 899 663 925 q 678 847 674 881 q 686 778 683 814 q 688 709 689 742 q 678 660 686 676 q 663 642 672 649 q 642 633 653 636 q 588 627 615 628 q 535 622 561 626 q 497 618 519 621 q 465 629 474 615 q 460 638 463 633 q 457 649 457 643 q 456 683 457 661 q 453 727 456 704 q 446 770 450 750 q 433 800 442 790 q 405 814 426 810 q 371 818 383 818 q 340 806 353 815 q 322 782 329 796 q 310 754 315 768 q 290 643 292 700 q 292 529 289 586 q 294 476 292 513 q 299 398 296 439 q 308 321 303 357 q 321 271 314 285 q 329 257 324 264 q 342 247 335 250 q 378 242 356 240 q 411 253 400 243 q 418 267 415 257 q 423 289 421 278 q 426 311 425 300 q 426 329 426 322 q 428 351 426 340 q 435 371 429 361 q 461 386 444 386 q 495 389 471 388 q 547 391 519 390 q 597 391 574 392 q 632 388 621 390 q 653 372 644 383 q 667 350 663 361 q 676 280 676 315 q 672 210 676 244 q 660 149 668 179 q 635 93 651 119 q 599 51 621 69 q 553 19 578 32 z "},"d":{"ha":785,"x_min":69,"x_max":740,"o":"m 344 -10 q 250 -14 297 -15 q 156 -10 203 -12 q 142 -9 151 -10 q 122 -7 132 -8 q 102 -5 111 -6 q 89 -1 93 -4 q 78 10 83 1 q 72 25 72 18 q 72 253 69 140 q 77 388 74 321 q 81 524 81 456 q 79 671 82 599 q 79 818 76 743 q 78 835 79 822 q 76 863 78 849 q 75 891 75 878 q 75 908 75 904 q 75 929 75 915 q 76 959 75 943 q 78 988 76 975 q 83 1008 81 1001 q 104 1022 89 1018 q 138 1024 119 1025 q 175 1022 157 1024 q 206 1019 193 1019 q 313 1022 258 1022 q 419 1013 367 1022 q 516 984 468 1003 q 603 933 564 965 q 651 881 631 910 q 688 819 672 851 q 721 720 711 772 q 733 615 731 668 q 729 364 740 489 q 708 240 722 301 q 663 126 694 179 q 613 70 643 94 q 547 32 583 46 q 447 4 499 13 q 344 -10 396 -4 m 328 268 q 381 266 354 265 q 432 274 407 267 q 460 283 446 278 q 486 299 475 289 q 503 325 499 311 q 513 382 508 342 q 518 467 517 422 q 519 553 519 513 q 518 611 519 593 q 512 674 517 643 q 492 733 507 706 q 436 782 471 769 q 378 795 408 793 q 318 796 349 797 q 324 672 321 733 q 325 549 326 611 q 319 443 324 496 q 317 338 315 390 q 317 325 317 335 q 319 305 318 315 q 322 285 321 294 q 324 272 324 275 q 325 269 324 269 q 328 268 326 269 z "},"e":{"ha":649,"x_min":65,"x_max":597,"o":"m 438 -10 q 373 -12 406 -12 q 308 -12 340 -12 q 228 -9 268 -12 q 151 13 188 -6 q 106 58 124 31 q 85 106 92 81 q 75 158 78 132 q 68 247 69 203 q 65 335 67 290 q 65 447 65 392 q 67 560 65 503 q 75 714 69 638 q 86 867 81 790 q 85 872 86 869 q 83 878 83 875 q 85 898 83 883 q 87 929 86 913 q 89 961 88 946 q 92 982 90 976 q 113 1019 96 1006 q 156 1033 129 1031 q 219 1035 172 1035 q 317 1035 265 1036 q 415 1032 369 1033 q 479 1029 461 1031 q 507 1025 493 1028 q 532 1015 521 1022 q 560 985 550 1006 q 574 938 571 964 q 577 886 578 913 q 574 839 576 860 q 564 803 571 821 q 544 774 557 786 q 515 758 532 763 q 483 750 499 753 q 434 748 458 747 q 385 749 410 749 q 372 748 381 749 q 353 747 363 747 q 337 744 344 746 q 325 740 329 743 q 316 719 318 735 q 314 694 314 703 q 317 671 314 683 q 329 651 319 658 q 363 640 339 643 q 414 635 386 636 q 467 633 442 633 q 506 632 493 633 q 535 624 521 629 q 558 608 549 619 q 572 581 567 599 q 578 542 576 563 q 580 501 581 521 q 578 469 579 482 q 572 438 575 454 q 557 410 568 421 q 530 392 546 399 q 497 385 514 386 q 451 385 474 383 q 406 389 429 388 q 375 388 394 389 q 349 381 356 388 q 340 349 342 371 q 342 315 339 326 q 349 297 344 301 q 377 285 357 289 q 420 282 397 282 q 465 283 443 282 q 500 282 488 283 q 536 276 518 281 q 567 258 554 271 q 582 238 576 250 q 590 213 588 225 q 597 157 597 185 q 594 101 597 129 q 589 69 592 85 q 579 38 586 53 q 560 17 572 26 q 536 3 549 8 q 488 -6 513 -4 q 438 -10 463 -8 z "},"f":{"ha":633,"x_min":71,"x_max":606,"o":"m 294 4 q 239 -6 268 -7 q 182 -6 210 -6 q 155 -6 168 -6 q 126 -4 142 -6 q 103 3 115 -3 q 83 19 90 8 q 75 51 76 35 q 74 83 74 67 q 75 89 74 85 q 76 96 76 93 q 76 129 76 104 q 75 183 75 154 q 74 238 75 213 q 74 271 74 263 q 78 391 74 332 q 78 511 83 450 q 76 522 78 514 q 74 540 75 531 q 73 557 74 549 q 72 568 72 565 q 71 630 71 583 q 72 729 71 676 q 73 828 72 782 q 74 892 74 875 q 75 927 74 910 q 79 961 76 944 q 90 990 82 976 q 111 1010 99 1003 q 166 1022 128 1019 q 247 1024 204 1025 q 330 1019 290 1022 q 389 1015 369 1017 q 458 1015 424 1014 q 526 1010 492 1015 q 553 1003 540 1007 q 578 989 567 999 q 592 972 586 982 q 600 953 597 963 q 605 913 604 936 q 603 867 606 890 q 592 824 600 844 q 572 792 585 803 q 536 775 558 781 q 505 773 521 772 q 474 775 489 774 q 442 778 463 776 q 401 782 422 781 q 360 783 379 783 q 332 776 342 782 q 321 761 325 772 q 315 738 317 750 q 315 713 314 725 q 315 692 315 700 q 315 681 315 688 q 319 674 315 675 q 353 669 328 669 q 406 670 378 669 q 458 672 433 671 q 493 671 483 672 q 518 664 506 668 q 539 650 531 660 q 551 628 547 640 q 557 606 554 617 q 560 566 560 589 q 555 520 560 543 q 541 478 550 497 q 517 451 532 460 q 492 442 506 444 q 465 440 478 440 q 439 441 457 440 q 402 442 421 442 q 367 440 383 442 q 343 433 350 439 q 334 420 338 429 q 329 400 331 411 q 328 378 328 389 q 328 361 328 368 q 327 317 326 339 q 328 274 328 296 q 333 215 329 244 q 338 156 336 186 q 324 36 340 92 q 294 4 315 14 z "},"g":{"ha":744,"x_min":49,"x_max":690,"o":"m 553 19 q 449 -10 504 -4 q 340 -7 393 -17 q 276 9 308 -1 q 215 36 243 19 q 129 121 160 71 q 100 180 111 149 q 81 243 89 211 q 63 342 69 292 q 54 443 57 393 q 49 559 50 501 q 56 675 49 617 q 87 811 63 744 q 151 932 111 878 q 260 1018 194 990 q 389 1039 321 1043 q 521 1019 457 1035 q 588 992 556 1010 q 644 947 621 975 q 668 899 663 925 q 678 847 674 881 q 686 778 683 814 q 688 709 689 742 q 678 660 686 676 q 663 642 672 649 q 642 633 653 636 q 588 627 615 628 q 535 622 561 626 q 497 618 519 621 q 465 629 474 615 q 460 638 463 633 q 457 649 457 643 q 456 683 457 661 q 453 727 456 704 q 446 770 450 750 q 433 800 442 790 q 405 814 426 810 q 371 818 383 818 q 340 806 353 815 q 322 782 329 796 q 310 754 315 768 q 290 643 292 700 q 292 529 289 586 q 294 476 292 513 q 299 398 296 439 q 308 321 303 357 q 321 271 314 285 q 329 257 324 264 q 342 247 335 250 q 378 242 356 240 q 411 253 400 243 q 421 271 415 257 q 425 319 428 294 q 432 365 422 343 q 403 367 417 365 q 376 376 389 369 q 352 412 358 388 q 349 457 346 436 q 349 480 349 468 q 353 503 349 492 q 355 515 353 508 q 363 524 357 521 q 377 528 365 526 q 393 531 389 531 q 411 531 401 533 q 431 529 421 529 q 472 530 451 529 q 514 529 493 531 q 538 528 521 529 q 576 524 556 526 q 613 520 596 522 q 638 515 631 518 q 672 488 660 508 q 685 450 683 471 q 688 408 688 429 q 685 328 690 368 q 676 247 679 288 q 667 173 674 210 q 642 104 660 136 q 553 19 611 47 z "},"h":{"ha":885,"x_min":61,"x_max":822,"o":"m 264 -15 q 221 -18 247 -17 q 167 -18 194 -19 q 115 -12 139 -17 q 78 6 90 -7 q 66 31 69 14 q 62 69 63 49 q 62 108 61 89 q 64 139 63 126 q 71 241 67 190 q 78 343 75 292 q 80 401 78 357 q 83 494 82 444 q 86 586 85 543 q 88 644 88 629 q 81 775 86 710 q 83 906 76 840 q 92 948 86 926 q 113 986 99 969 q 140 1008 124 1000 q 174 1018 157 1015 q 210 1021 186 1019 q 260 1022 235 1022 q 309 1017 286 1021 q 343 1008 332 1014 q 363 987 356 1001 q 372 957 369 972 q 380 881 379 919 q 381 804 381 843 q 379 718 381 761 q 375 632 378 675 q 371 599 372 615 q 368 568 369 583 q 438 573 403 572 q 507 574 472 574 q 510 579 510 574 q 512 613 511 589 q 513 666 513 636 q 515 729 514 696 q 516 793 515 763 q 517 847 517 824 q 518 881 518 871 q 521 918 519 900 q 529 954 522 936 q 556 992 538 976 q 589 1008 571 1003 q 625 1017 607 1014 q 684 1018 654 1019 q 742 1010 714 1017 q 783 983 768 1003 q 803 935 799 963 q 811 882 808 908 q 815 736 818 808 q 808 590 813 664 q 803 455 804 522 q 804 321 801 388 q 811 230 807 275 q 819 140 815 185 q 822 97 822 118 q 817 56 822 76 q 785 15 810 28 q 736 0 763 3 q 685 -4 710 -3 q 616 -7 651 -7 q 550 8 581 -7 q 517 42 531 18 q 505 77 508 58 q 499 114 501 96 q 494 235 493 175 q 499 354 496 294 q 433 353 465 353 q 368 351 400 353 q 367 242 365 296 q 369 133 369 188 q 369 91 371 113 q 361 50 368 69 q 333 7 354 24 q 300 -8 318 -4 q 264 -15 282 -12 z "},"i":{"ha":439,"x_min":71,"x_max":379,"o":"m 311 -6 q 254 -13 283 -12 q 196 -14 225 -14 q 156 -11 176 -14 q 117 1 135 -8 q 95 20 104 8 q 82 46 86 32 q 74 113 76 65 q 72 215 72 161 q 74 318 72 269 q 75 386 75 367 q 75 676 78 531 q 74 731 75 690 q 72 818 72 772 q 71 904 71 864 q 72 960 71 944 q 81 991 75 975 q 100 1017 88 1007 q 134 1030 111 1025 q 183 1035 157 1035 q 234 1035 210 1036 q 274 1032 258 1033 q 313 1019 293 1029 q 342 990 333 1008 q 353 953 350 972 q 358 915 357 935 q 360 873 360 903 q 360 803 360 843 q 359 721 360 764 q 358 638 358 678 q 356 569 357 599 q 356 526 356 539 q 360 416 354 471 q 368 306 365 361 q 369 270 368 297 q 373 213 371 243 q 376 156 375 183 q 378 121 378 129 q 377 69 379 96 q 360 22 375 42 q 338 4 351 11 q 311 -6 325 -3 z "},"j":{"ha":644,"x_min":19,"x_max":583,"o":"m 175 -7 q 126 -8 150 -8 q 78 -1 101 -7 q 57 4 68 1 q 38 11 46 7 q 24 22 29 15 q 24 38 19 28 q 21 49 21 43 q 22 63 21 56 q 27 122 26 92 q 31 182 28 151 q 35 210 32 196 q 46 236 38 225 q 72 258 54 251 q 101 264 86 264 q 132 264 117 264 q 169 264 151 263 q 206 272 188 265 q 245 296 228 279 q 274 332 263 313 q 290 389 288 358 q 293 450 293 419 q 290 621 294 536 q 282 793 286 706 q 279 839 282 810 q 276 900 276 868 q 278 960 275 932 q 290 1001 281 989 q 318 1018 300 1015 q 351 1022 336 1021 q 392 1022 365 1022 q 450 1021 419 1022 q 507 1016 481 1019 q 546 1007 533 1013 q 575 971 568 996 q 582 943 581 957 q 583 915 583 929 q 583 890 583 908 q 581 852 582 872 q 578 813 579 832 q 576 789 576 794 q 574 722 575 772 q 574 613 574 671 q 574 503 574 554 q 574 436 574 453 q 572 314 572 375 q 557 194 572 253 q 535 135 549 164 q 501 82 521 107 q 429 28 474 46 q 352 6 392 13 q 272 -3 313 0 q 224 -6 249 -6 q 175 -7 199 -6 z "},"k":{"ha":819,"x_min":72,"x_max":792,"o":"m 182 -19 q 134 -18 158 -19 q 94 -1 110 -17 q 76 35 79 13 q 72 76 72 57 q 74 178 72 128 q 78 278 76 228 q 78 348 78 297 q 77 465 78 399 q 76 604 76 531 q 74 744 75 678 q 74 860 74 810 q 74 931 74 911 q 76 971 74 950 q 93 1007 79 992 q 125 1022 106 1019 q 163 1024 144 1024 q 194 1022 172 1024 q 241 1019 217 1021 q 287 1015 265 1017 q 317 1008 308 1013 q 350 979 340 999 q 360 947 358 964 q 360 914 361 931 q 351 790 357 851 q 346 665 344 728 q 354 663 346 663 q 363 665 363 664 q 405 743 382 706 q 451 817 428 781 q 496 897 476 856 q 544 975 515 939 q 564 996 553 986 q 589 1008 575 1006 q 613 1008 600 1011 q 635 999 625 1006 q 697 963 665 978 q 757 924 729 947 q 770 900 768 914 q 769 871 772 886 q 758 841 765 856 q 744 814 751 826 q 701 746 725 778 q 653 681 676 714 q 601 603 625 642 q 550 526 578 564 q 574 479 563 503 q 597 432 585 456 q 611 408 601 425 q 633 369 621 392 q 660 324 646 347 q 688 278 675 300 q 711 239 701 256 q 725 215 721 222 q 742 188 731 206 q 765 152 753 171 q 784 115 776 133 q 792 88 792 97 q 779 60 792 72 q 749 38 767 47 q 713 20 732 28 q 681 8 694 13 q 652 -1 669 4 q 616 -11 635 -7 q 581 -15 597 -15 q 556 -8 565 -15 q 538 13 547 -3 q 520 49 529 29 q 504 86 511 68 q 493 113 497 104 q 469 166 482 140 q 444 219 456 192 q 439 235 443 224 q 431 258 435 246 q 423 282 426 271 q 418 297 419 293 q 409 314 417 301 q 400 329 401 326 l 344 329 q 349 234 347 281 q 353 139 350 188 q 355 102 353 124 q 357 58 357 81 q 352 18 357 36 q 335 -7 347 0 q 304 -15 325 -12 q 260 -19 283 -18 q 214 -19 236 -19 q 182 -19 192 -19 z "},"l":{"ha":606,"x_min":67,"x_max":582,"o":"m 418 -3 q 313 -8 365 -3 q 208 -10 261 -12 q 160 -1 185 -7 q 119 21 136 6 q 94 59 103 36 q 82 106 85 82 q 74 261 74 183 q 75 418 75 339 q 76 516 75 467 q 78 614 78 565 q 74 711 76 663 q 68 808 71 760 q 69 828 68 814 q 69 858 69 842 q 69 888 69 874 q 69 906 69 901 q 69 942 67 917 q 74 979 71 968 q 111 1011 85 1004 q 135 1017 122 1015 q 160 1019 147 1018 q 210 1022 185 1022 q 258 1021 235 1022 q 297 1018 278 1021 q 332 1004 317 1015 q 357 981 347 996 q 369 949 367 965 q 376 899 375 925 q 375 850 376 874 q 367 729 372 789 q 360 610 363 669 q 360 478 357 543 q 368 347 364 413 q 372 318 369 336 q 385 294 375 300 q 407 289 390 290 q 442 288 424 288 q 476 288 460 288 q 501 288 493 288 q 528 281 515 285 q 551 269 542 278 q 569 242 564 258 q 576 208 574 225 q 580 167 578 193 q 582 114 582 142 q 578 61 582 86 q 567 24 575 36 q 528 1 553 8 q 473 -4 500 -6 q 418 -3 446 -3 z "},"m":{"ha":1203,"x_min":47,"x_max":1147,"o":"m 117 -15 q 68 -6 92 -19 q 58 1 63 -3 q 50 10 53 4 q 49 35 47 18 q 53 70 50 51 q 60 106 57 89 q 64 132 63 124 q 66 169 67 151 q 65 207 65 188 q 68 333 65 271 q 76 458 71 396 q 88 575 82 517 q 99 693 94 633 q 104 785 101 739 q 113 876 107 831 q 123 942 115 908 q 154 1000 131 976 q 190 1018 168 1014 q 232 1021 213 1022 q 265 1020 240 1021 q 317 1019 289 1019 q 369 1017 344 1018 q 401 1017 393 1017 q 424 1011 413 1014 q 444 1001 435 1008 q 468 961 461 988 q 476 938 472 950 q 482 913 479 925 q 531 697 508 804 q 586 483 554 589 q 629 594 614 536 q 665 708 644 651 q 686 763 669 722 q 722 851 703 804 q 756 940 740 899 q 778 994 772 981 q 794 1013 782 1004 q 817 1021 806 1021 q 830 1017 824 1021 q 843 1014 836 1014 q 855 1015 846 1014 q 874 1016 864 1015 q 893 1017 885 1017 q 904 1018 901 1018 q 933 1019 911 1018 q 980 1019 956 1019 q 1026 1019 1004 1019 q 1054 1019 1047 1019 q 1063 1020 1058 1019 q 1071 1018 1068 1021 q 1085 1003 1082 1014 q 1088 995 1086 999 q 1090 988 1090 992 q 1103 870 1097 929 q 1114 753 1108 811 q 1119 638 1118 694 q 1124 524 1121 582 q 1128 440 1126 482 q 1133 356 1131 399 q 1137 270 1136 313 q 1140 186 1138 228 q 1145 131 1143 158 q 1144 76 1147 104 q 1141 53 1143 65 q 1132 32 1139 42 q 1107 8 1124 18 q 1078 -1 1093 1 q 1047 -4 1063 -3 q 1017 -6 1039 -4 q 973 -8 996 -7 q 929 -10 950 -10 q 900 -7 908 -10 q 863 21 874 -3 q 851 56 854 38 q 844 92 847 74 q 839 198 839 144 q 839 306 839 251 q 839 361 839 319 q 839 451 839 403 q 838 541 839 499 q 838 597 838 583 q 790 467 817 531 q 738 338 763 404 q 728 319 733 328 q 718 301 722 311 q 710 282 715 294 q 699 257 706 269 q 686 234 693 244 q 672 222 679 224 q 656 207 667 210 q 611 204 633 206 q 568 207 589 203 q 519 229 539 211 q 494 260 504 243 q 474 297 483 278 q 403 463 435 376 q 382 518 392 490 q 360 574 372 546 q 360 419 361 496 q 361 265 360 343 q 362 228 361 256 q 363 168 363 200 q 364 108 364 136 q 363 71 364 81 q 360 45 361 58 q 351 21 358 32 q 325 -3 344 7 q 292 -6 317 -6 q 239 -7 267 -7 q 186 -6 211 -7 q 151 -7 161 -6 q 134 -12 143 -10 q 117 -15 125 -14 z "},"n":{"ha":858,"x_min":64,"x_max":800,"o":"m 299 -17 q 271 -19 290 -18 q 228 -22 251 -21 q 185 -22 206 -22 q 157 -21 165 -22 q 116 -15 138 -19 q 81 6 94 -10 q 67 38 69 19 q 64 72 64 56 q 65 117 64 96 q 68 163 67 139 q 71 232 69 179 q 74 345 72 285 q 76 458 75 406 q 79 528 78 511 q 88 661 82 594 q 86 794 93 728 q 83 828 85 804 q 81 879 82 853 q 78 930 79 906 q 79 964 78 954 q 90 990 82 978 q 110 1010 97 1003 q 137 1017 122 1017 q 167 1018 151 1018 q 193 1019 174 1018 q 235 1023 213 1021 q 278 1027 258 1025 q 304 1029 297 1029 q 324 1018 317 1029 q 333 1006 332 1013 q 383 872 361 939 q 426 736 406 804 q 471 597 449 665 q 513 458 493 528 q 510 529 510 494 q 510 600 510 564 q 505 725 508 663 q 500 850 501 788 q 499 894 500 868 q 502 944 499 919 q 513 990 506 969 q 538 1019 521 1011 q 575 1028 554 1028 q 613 1028 586 1028 q 669 1026 639 1028 q 724 1022 699 1025 q 761 1017 750 1019 q 794 989 785 1013 q 799 958 799 979 q 799 912 800 936 q 797 865 799 888 q 794 832 794 842 q 784 667 789 749 q 779 501 779 585 q 775 365 779 433 q 771 229 771 297 q 772 139 771 185 q 769 49 772 93 q 769 34 769 46 q 768 19 768 22 q 767 6 771 13 q 756 -3 763 0 q 740 -5 751 -4 q 725 -6 729 -6 q 696 -6 718 -6 q 648 -6 674 -6 q 600 -5 622 -6 q 569 -4 578 -4 q 532 2 551 -3 q 500 21 513 7 q 484 50 493 29 q 466 95 475 71 q 449 142 457 119 q 438 174 442 164 q 423 212 433 185 q 399 275 413 239 q 372 350 386 311 q 344 425 357 389 q 320 488 331 461 q 306 526 310 515 q 315 399 306 463 q 328 272 325 336 q 330 185 331 228 q 333 99 329 143 q 338 61 336 79 q 338 24 340 43 q 328 -3 338 10 q 299 -17 317 -14 z "},"o":{"ha":840,"x_min":36,"x_max":793,"o":"m 601 32 q 521 -2 564 10 q 434 -15 478 -14 q 347 -7 390 -17 q 264 24 303 3 q 180 85 218 47 q 114 167 142 122 q 75 250 90 206 q 51 340 60 294 q 43 515 36 426 q 74 688 50 604 q 122 810 92 750 q 192 919 151 869 q 247 966 215 947 q 314 999 279 985 q 354 1008 333 1006 q 394 1014 375 1011 q 483 1019 439 1021 q 571 1004 528 1017 q 667 945 624 988 q 735 853 711 903 q 782 700 771 781 q 793 539 793 619 q 778 340 793 440 q 717 153 763 240 q 601 32 676 78 m 346 300 q 389 280 365 286 q 436 276 413 274 q 482 293 464 279 q 525 341 510 311 q 549 403 540 371 q 567 501 563 451 q 568 601 571 551 q 555 683 567 642 q 519 756 543 724 q 461 798 499 785 q 393 792 424 811 q 388 790 390 790 q 383 788 386 789 q 351 763 368 785 q 328 728 335 742 q 308 676 315 703 q 294 621 301 649 q 283 541 288 581 q 279 461 278 501 q 285 406 281 433 q 304 353 290 378 q 322 324 311 338 q 346 300 332 311 z "},"p":{"ha":804,"x_min":64,"x_max":775,"o":"m 276 -18 q 236 -19 263 -19 q 181 -18 210 -19 q 128 -12 153 -17 q 92 0 103 -8 q 71 26 78 8 q 66 55 67 40 q 65 85 65 69 q 74 195 65 140 q 83 306 83 250 q 82 386 83 346 q 81 467 81 426 q 83 547 81 507 q 83 626 85 586 q 82 683 83 640 q 79 776 81 726 q 77 868 78 825 q 76 925 76 911 q 66 949 68 932 q 67 976 64 965 q 79 996 69 990 q 106 1007 88 1003 q 146 1013 125 1011 q 187 1014 167 1014 q 218 1014 207 1014 q 315 1014 267 1017 q 362 1012 328 1014 q 434 1008 396 1010 q 506 1003 472 1006 q 551 999 540 1000 q 646 967 603 992 q 678 940 664 956 q 706 910 693 925 q 767 775 751 851 q 774 694 775 735 q 765 614 772 654 q 751 550 758 582 q 728 489 743 518 q 684 427 711 456 q 625 381 657 399 q 566 360 597 365 q 503 353 535 356 q 365 349 433 349 q 365 317 365 333 q 364 286 364 301 q 363 240 364 274 q 362 168 363 207 q 360 96 361 129 q 357 50 358 63 q 350 19 354 35 q 333 -6 346 4 q 307 -17 322 -15 q 276 -18 292 -18 m 325 563 q 396 563 361 565 q 467 564 431 561 q 499 569 482 565 q 528 583 515 572 q 546 608 540 593 q 554 639 551 624 q 557 694 558 667 q 546 749 556 722 q 511 793 536 778 q 478 806 496 803 q 440 810 460 808 q 382 811 411 811 q 322 811 353 811 q 322 687 322 749 q 325 563 321 625 z "},"q":{"ha":853,"x_min":36,"x_max":822,"o":"m 743 -129 q 711 -145 729 -140 q 676 -146 693 -150 q 649 -130 661 -140 q 625 -107 636 -119 q 585 -51 603 -81 q 551 8 568 -21 q 447 -14 501 -8 q 343 -7 393 -19 q 228 46 282 8 q 136 132 175 83 q 85 220 106 172 q 56 317 65 268 q 42 503 36 408 q 74 688 49 597 q 122 810 92 750 q 192 919 151 869 q 247 966 215 947 q 313 999 279 985 q 353 1008 332 1006 q 394 1014 374 1011 q 483 1019 439 1021 q 569 1004 528 1017 q 667 945 624 988 q 735 853 711 903 q 781 704 769 782 q 793 547 793 626 q 788 410 793 478 q 763 275 782 342 q 737 197 751 235 q 699 125 722 160 q 720 101 704 118 q 754 63 736 83 q 788 25 772 43 q 810 0 804 7 q 818 -15 814 -7 q 822 -32 822 -24 q 814 -58 822 -44 q 793 -86 806 -72 q 767 -111 781 -100 q 743 -129 753 -122 m 346 300 q 389 280 365 286 q 436 276 413 274 q 482 293 461 279 q 524 341 510 311 q 549 403 539 371 q 567 501 563 451 q 568 601 571 551 q 554 683 565 642 q 519 756 543 724 q 460 798 497 785 q 393 792 424 811 q 383 788 389 790 q 351 763 368 785 q 328 728 335 742 q 308 676 315 703 q 294 621 300 649 q 281 541 286 581 q 279 461 276 501 q 285 406 281 433 q 303 353 290 378 q 322 324 311 338 q 346 300 332 311 z "},"r":{"ha":825,"x_min":64,"x_max":775,"o":"m 744 4 q 718 -13 736 -7 q 679 -22 700 -19 q 638 -26 658 -25 q 603 -25 617 -26 q 574 -22 588 -24 q 547 -12 560 -19 q 526 8 536 -7 q 521 28 522 18 q 519 49 519 38 q 519 114 518 81 q 519 180 519 147 q 515 244 519 213 q 500 307 511 276 q 468 351 488 335 q 417 349 442 350 q 365 349 392 349 q 365 317 365 333 q 364 286 364 301 q 363 240 364 274 q 362 168 363 207 q 360 96 361 129 q 357 50 358 63 q 350 19 354 35 q 333 -6 346 4 q 307 -17 322 -15 q 278 -18 292 -18 q 236 -19 263 -19 q 182 -18 210 -19 q 129 -12 154 -17 q 92 0 104 -8 q 71 26 78 8 q 66 55 67 40 q 65 85 65 69 q 74 195 65 140 q 83 306 83 250 q 82 386 83 346 q 81 467 81 426 q 83 547 81 507 q 83 626 85 586 q 82 683 83 640 q 79 776 81 726 q 77 868 78 825 q 76 925 76 911 q 66 949 68 932 q 67 976 64 965 q 79 996 69 990 q 106 1007 88 1003 q 146 1013 125 1011 q 187 1014 167 1014 q 218 1014 207 1014 q 315 1014 267 1017 q 362 1012 328 1014 q 434 1008 396 1010 q 506 1003 472 1006 q 551 999 540 1000 q 646 967 603 992 q 678 940 664 956 q 706 910 693 925 q 767 775 751 851 q 774 694 775 735 q 765 614 772 654 q 753 558 760 586 q 735 503 746 529 q 671 414 711 453 q 722 353 701 389 q 749 281 742 318 q 758 191 756 236 q 760 100 760 146 q 760 75 760 88 q 758 49 760 63 q 754 26 757 38 q 744 4 751 14 m 325 563 q 396 563 361 565 q 467 564 431 561 q 499 569 482 565 q 528 583 515 572 q 546 608 540 593 q 554 639 551 624 q 557 694 558 667 q 546 749 556 722 q 511 793 536 778 q 478 806 496 803 q 440 810 460 808 q 382 811 411 811 q 322 811 353 811 q 322 687 322 749 q 325 563 321 625 z "},"s":{"ha":736,"x_min":42,"x_max":694,"o":"m 500 6 q 416 -3 458 -1 q 332 -1 374 -4 q 278 1 314 -1 q 203 7 242 3 q 131 18 165 11 q 82 36 97 25 q 53 76 60 51 q 47 144 42 110 q 58 214 51 179 q 63 239 60 224 q 71 268 65 254 q 83 293 76 282 q 101 307 90 304 q 142 308 114 311 q 201 299 169 304 q 260 287 232 293 q 301 279 289 281 q 354 273 328 275 q 407 276 381 271 q 444 297 429 282 q 463 332 458 313 q 460 372 467 351 q 438 408 454 392 q 401 434 421 424 q 361 453 382 444 q 292 476 328 467 q 224 500 257 485 q 127 569 167 525 q 69 667 88 613 q 53 779 50 721 q 89 892 57 838 q 178 978 121 947 q 240 1000 207 993 q 307 1006 274 1007 q 449 1009 378 1003 q 590 1000 519 1015 q 620 990 606 996 q 644 971 635 983 q 659 936 656 956 q 665 897 663 917 q 668 859 667 883 q 669 809 669 835 q 665 760 668 783 q 653 726 661 738 q 638 713 647 718 q 617 706 628 708 q 585 704 601 703 q 551 708 568 706 q 466 720 508 714 q 381 724 424 726 q 342 715 363 722 q 315 690 321 707 q 318 665 313 678 q 331 642 324 653 q 374 604 350 619 q 426 578 399 589 q 506 549 465 561 q 582 517 546 536 q 644 461 618 497 q 678 385 669 425 q 678 206 694 294 q 660 142 671 174 q 629 83 649 110 q 606 56 618 68 q 578 33 593 43 q 540 16 560 22 q 500 6 519 10 z "},"t":{"ha":729,"x_min":19,"x_max":708,"o":"m 447 -7 q 399 -13 428 -11 q 341 -13 371 -15 q 285 -5 311 -11 q 244 14 258 1 q 224 49 229 28 q 218 89 219 69 q 218 154 217 106 q 222 258 219 203 q 226 361 224 313 q 229 426 229 410 q 230 460 229 436 q 231 514 231 483 q 233 578 232 544 q 234 643 233 613 q 235 697 235 674 q 236 731 236 721 q 180 729 208 729 q 124 732 151 729 q 85 741 104 735 q 50 763 65 747 q 29 803 35 779 q 22 851 24 828 q 24 915 19 882 q 51 972 29 949 q 78 994 63 985 q 111 1008 94 1003 q 211 1024 160 1022 q 314 1032 263 1026 q 392 1036 342 1035 q 497 1035 443 1038 q 597 1024 550 1032 q 668 1000 644 1015 q 688 980 679 993 q 699 953 696 967 q 706 895 704 928 q 704 831 708 863 q 688 773 700 800 q 654 733 676 746 q 622 722 639 725 q 590 722 606 719 q 557 725 574 724 q 525 728 540 726 q 528 458 522 592 q 535 188 535 324 q 534 142 535 164 q 531 97 533 119 q 522 62 528 79 q 506 29 517 44 q 480 6 496 14 q 447 -7 464 -3 z "},"u":{"ha":836,"x_min":63,"x_max":783,"o":"m 549 -12 q 439 -21 494 -24 q 329 -10 383 -18 q 255 9 292 -3 q 185 40 218 21 q 122 101 144 65 q 91 179 100 138 q 78 263 82 221 q 74 376 74 319 q 72 489 75 432 q 66 578 69 533 q 63 668 63 624 q 63 685 63 672 q 64 713 64 699 q 64 741 64 728 q 64 758 64 754 q 64 805 64 774 q 65 870 64 836 q 71 935 67 904 q 82 979 75 965 q 107 1003 90 996 q 131 1010 118 1008 q 157 1015 144 1013 q 200 1017 175 1018 q 249 1012 225 1017 q 292 997 272 1007 q 322 971 313 988 q 331 949 329 961 q 333 926 332 938 q 335 877 335 913 q 335 797 335 842 q 333 702 335 753 q 331 607 332 651 q 330 527 331 563 q 329 478 329 492 q 331 423 329 450 q 338 368 332 396 q 345 341 340 354 q 360 318 350 328 q 383 304 369 308 q 410 297 396 300 q 446 299 426 294 q 476 317 465 303 q 492 358 488 329 q 499 419 497 386 q 501 481 501 451 q 500 528 500 511 q 499 567 500 539 q 497 631 499 594 q 495 707 496 667 q 494 783 494 747 q 493 847 493 819 q 493 886 493 875 q 498 941 494 914 q 517 990 501 968 q 546 1012 528 1006 q 583 1021 564 1018 q 681 1021 632 1028 q 711 1016 696 1019 q 739 1006 726 1013 q 772 965 764 989 q 781 915 779 940 q 781 864 783 889 q 772 777 778 819 q 765 692 767 735 q 764 571 763 631 q 764 450 765 511 q 761 378 764 414 q 756 306 758 342 q 747 222 753 264 q 726 142 740 181 q 661 43 704 82 q 608 8 638 22 q 549 -12 579 -6 z "},"v":{"ha":894,"x_min":25,"x_max":876,"o":"m 538 8 q 504 1 528 4 q 454 -3 481 -1 q 403 -5 428 -4 q 369 -6 379 -6 q 335 -3 353 -6 q 303 7 318 -1 q 278 30 288 15 q 261 60 268 44 q 241 116 254 74 q 214 206 228 158 q 188 295 200 253 q 172 353 176 338 q 151 424 161 389 q 129 496 140 460 q 119 535 126 506 q 101 597 111 564 q 84 660 92 631 q 74 699 76 689 q 68 716 72 703 q 59 744 64 729 q 50 771 54 758 q 44 788 46 783 q 38 826 42 799 q 32 883 35 853 q 27 941 29 914 q 26 979 25 968 q 34 999 29 989 q 47 1014 39 1008 q 72 1019 58 1019 q 97 1019 85 1019 q 169 1022 133 1018 q 240 1024 204 1026 q 264 1017 251 1022 q 283 1003 276 1013 q 298 975 293 990 q 307 944 303 960 q 349 760 331 853 q 392 576 367 668 q 417 485 404 531 q 443 393 431 439 q 482 529 461 463 q 522 664 503 596 q 544 755 536 708 q 564 847 553 801 q 578 905 571 876 q 597 961 585 933 q 613 988 604 975 q 635 1008 621 1001 q 653 1014 640 1011 q 679 1019 665 1017 q 706 1022 693 1021 q 726 1024 719 1024 q 790 1019 758 1024 q 853 1013 821 1015 q 868 1004 863 1011 q 871 988 874 997 q 875 969 876 976 q 863 914 869 942 q 847 858 857 886 q 820 781 835 819 q 794 704 806 743 q 769 615 781 660 q 744 526 758 571 q 711 420 729 474 q 681 311 693 367 q 653 201 667 256 q 618 93 640 146 q 585 42 606 65 q 538 8 565 18 z "},"w":{"ha":1151,"x_min":43,"x_max":1111,"o":"m 349 -17 q 299 -16 324 -18 q 250 -7 274 -14 q 215 8 232 -1 q 188 33 199 18 q 166 83 176 47 q 146 158 156 118 q 129 236 136 199 q 119 290 122 274 q 84 524 100 408 q 54 758 68 640 q 47 816 51 781 q 43 887 43 851 q 49 953 43 922 q 72 999 54 983 q 113 1018 89 1013 q 165 1022 138 1024 q 217 1015 192 1021 q 261 997 243 1008 q 290 970 278 988 q 304 933 301 953 q 312 883 310 908 q 317 832 314 858 q 331 571 326 701 q 350 308 335 440 q 385 417 369 363 q 415 526 400 471 q 440 635 429 581 q 460 743 451 689 q 468 760 461 753 q 482 775 475 768 q 498 787 489 782 q 517 793 507 792 q 537 793 522 793 q 568 792 551 793 q 600 791 585 792 q 621 790 615 790 q 634 786 624 790 q 647 781 644 782 q 660 764 660 775 q 695 620 675 692 q 736 478 715 549 q 764 397 749 438 q 794 317 779 357 q 838 602 828 458 q 858 892 849 746 q 860 922 858 903 q 863 960 861 940 q 871 996 865 979 q 885 1019 876 1013 q 918 1032 894 1028 q 968 1037 942 1036 q 1019 1037 994 1038 q 1058 1036 1044 1036 q 1077 1034 1068 1036 q 1093 1025 1086 1032 q 1102 1007 1100 1018 q 1106 985 1104 996 q 1097 735 1111 858 q 1065 488 1083 611 q 1051 351 1056 419 q 1031 215 1046 282 q 1002 126 1019 171 q 953 49 985 81 q 917 21 938 32 q 876 3 897 10 q 749 -7 815 -14 q 706 3 728 -4 q 668 24 685 10 q 649 45 657 33 q 635 69 642 57 q 609 137 619 101 q 590 207 599 172 q 573 299 579 253 q 561 392 567 346 q 540 258 550 325 q 514 124 529 190 q 503 86 508 104 q 490 50 497 68 q 449 7 478 22 q 401 -10 426 -6 q 349 -17 375 -15 z "},"x":{"ha":796,"x_min":26,"x_max":778,"o":"m 261 11 q 208 -8 238 -6 q 150 -7 178 -11 q 101 2 125 -4 q 53 19 76 8 q 29 57 26 31 q 41 95 29 71 q 69 145 53 119 q 99 194 85 171 q 121 229 114 218 q 190 343 157 286 q 250 460 222 400 q 250 465 251 463 q 247 471 249 468 q 224 514 239 494 q 197 556 208 533 q 156 643 175 599 q 118 732 138 688 q 84 808 103 771 q 51 883 65 844 q 42 917 46 900 q 36 950 38 933 q 49 985 36 969 q 83 1007 60 1000 q 133 1016 107 1014 q 185 1019 158 1018 q 222 1020 203 1021 q 257 1013 240 1019 q 297 983 281 1004 q 315 953 308 969 q 328 919 322 936 q 335 898 329 914 q 345 865 340 882 q 355 831 350 847 q 361 811 360 815 q 384 745 372 778 q 408 681 396 713 q 418 705 414 692 q 426 731 422 718 q 453 791 438 763 q 483 847 468 819 q 510 902 499 875 q 535 957 521 929 q 558 991 544 975 q 590 1013 571 1007 q 617 1015 599 1015 q 657 1014 636 1015 q 697 1011 678 1013 q 724 1010 715 1010 q 748 1006 735 1008 q 769 993 761 1003 q 777 972 776 985 q 775 947 778 958 q 756 896 768 921 q 732 847 744 871 q 644 699 693 769 q 556 553 596 629 q 529 502 542 528 q 506 450 517 476 q 622 235 558 336 q 636 215 626 231 q 656 183 646 200 q 676 152 667 167 q 688 132 685 138 q 699 110 694 121 q 707 88 704 99 q 692 38 714 58 q 639 10 669 17 q 611 3 625 7 q 582 -3 597 0 q 544 -8 564 -7 q 508 -1 525 -8 q 478 22 490 6 q 456 56 465 38 q 415 146 432 100 q 372 233 399 192 q 350 185 361 210 q 328 135 339 160 q 313 99 319 117 q 297 63 306 81 q 282 35 290 47 q 261 11 274 22 z "},"y":{"ha":857,"x_min":15,"x_max":844,"o":"m 472 56 q 467 32 469 44 q 458 10 464 19 q 445 -3 453 1 q 426 -3 438 -7 q 374 -3 411 -3 q 296 -4 338 -4 q 217 -3 254 -4 q 165 1 179 -3 q 135 20 149 7 q 128 49 121 33 q 190 191 161 119 q 244 336 219 263 q 265 390 254 364 q 288 440 275 415 q 221 556 251 497 q 164 676 190 614 q 130 755 146 715 q 90 829 114 794 q 53 872 75 853 q 25 918 32 890 q 19 939 22 922 q 15 961 15 956 q 19 976 15 968 q 29 986 24 983 q 60 992 38 992 q 93 990 82 992 q 106 988 100 989 q 118 989 111 986 q 139 994 129 992 q 160 1000 149 997 q 217 1006 188 1004 q 274 1010 246 1007 q 294 996 290 1010 q 311 981 306 993 q 322 957 317 968 q 385 821 358 890 q 449 688 411 751 q 485 772 468 729 q 513 860 501 815 q 522 896 518 878 q 532 932 525 914 q 541 954 536 943 q 550 976 546 965 q 557 997 553 986 q 571 1011 561 1007 q 590 1012 576 1013 q 617 1010 603 1011 q 645 1008 632 1010 q 665 1006 658 1006 q 710 1003 688 1004 q 756 1003 732 1003 q 775 1002 760 1003 q 796 1004 790 1001 q 815 1001 807 1007 q 824 983 824 994 q 839 973 833 981 q 840 956 844 965 q 803 870 822 913 q 765 788 785 828 q 728 714 747 750 q 692 642 710 678 q 647 524 665 583 q 604 404 628 464 q 583 353 599 392 q 548 272 567 315 q 513 190 529 229 q 492 139 496 151 q 481 98 485 119 q 472 56 476 76 z "},"z":{"ha":746,"x_min":33,"x_max":704,"o":"m 100 -17 q 74 -16 88 -19 q 49 -3 60 -12 q 43 19 36 7 q 42 25 43 22 q 42 29 42 28 q 45 87 44 58 q 44 144 46 115 q 40 169 43 157 q 36 193 38 181 q 35 231 33 207 q 47 263 36 254 q 76 284 63 274 q 101 306 89 294 q 147 358 126 329 q 189 415 168 388 q 226 464 197 428 q 286 542 254 500 q 346 620 318 583 q 382 669 374 657 q 402 701 393 685 q 419 735 411 718 q 387 737 411 735 q 335 742 363 739 q 283 747 307 744 q 250 749 258 749 q 223 749 236 749 q 197 747 210 749 q 176 744 189 746 q 149 742 163 743 q 124 742 136 740 q 106 747 111 743 q 94 774 97 756 q 92 814 92 792 q 93 856 92 836 q 93 889 94 876 q 92 907 93 894 q 90 932 90 919 q 92 956 90 944 q 96 972 93 967 q 94 991 90 982 q 107 1003 97 1000 q 130 1005 114 1006 q 153 1003 146 1004 q 162 1000 156 1001 q 171 999 168 999 q 183 999 174 999 q 194 1001 192 1000 q 219 1001 200 1001 q 260 1000 239 1000 q 301 999 282 1000 q 326 999 319 999 q 394 999 360 999 q 463 1000 428 1000 q 555 999 508 1000 q 647 996 601 997 q 670 997 660 1003 q 682 978 681 992 q 682 892 682 935 q 678 807 682 850 q 674 767 675 788 q 672 728 674 747 q 665 711 672 721 q 660 692 668 700 q 595 612 625 653 q 536 528 565 571 q 501 478 528 515 q 443 399 474 440 q 385 320 413 357 q 349 271 358 283 q 335 257 342 264 q 324 243 329 250 q 357 242 340 244 q 390 236 374 239 q 419 236 399 235 q 463 240 440 238 q 507 246 486 243 q 536 250 528 249 q 601 256 568 254 q 667 261 633 258 q 678 258 672 263 q 686 249 683 254 q 696 241 692 246 q 700 229 700 236 q 697 157 697 193 q 699 85 696 121 q 700 70 699 81 q 702 47 701 60 q 703 24 703 35 q 704 10 704 14 q 694 -5 701 0 q 676 -6 686 -10 q 671 -6 674 -4 q 665 -7 668 -7 q 607 -9 636 -10 q 549 -10 578 -8 q 473 -15 511 -12 q 396 -15 435 -17 q 276 -8 335 -14 q 156 -7 217 -3 q 128 -11 142 -8 q 100 -17 115 -14 z "},"{":{"ha":644,"x_min":31,"x_max":592,"o":"m 547 -21 q 447 -26 497 -24 q 346 -24 396 -28 q 246 3 290 -19 q 192 54 211 21 q 170 115 175 82 q 164 179 165 147 q 161 257 161 218 q 153 333 161 296 q 142 378 149 357 q 119 419 135 400 q 83 451 107 439 q 65 461 75 456 q 47 474 54 467 q 35 488 39 481 q 33 506 31 496 q 47 526 33 519 q 94 548 71 536 q 136 575 117 560 q 165 606 151 589 q 185 642 179 622 q 190 699 192 669 q 185 756 188 728 q 185 812 183 783 q 196 868 188 840 q 228 931 206 901 q 283 984 251 961 q 350 1019 314 1007 q 419 1029 386 1032 q 430 1028 425 1028 q 440 1026 435 1028 q 450 1031 446 1026 l 485 1031 q 517 1026 500 1031 q 544 1011 533 1022 q 558 978 557 994 q 560 950 560 971 q 562 905 561 929 q 563 860 563 881 q 563 831 563 839 q 564 815 563 821 q 560 794 568 804 q 540 789 551 785 q 535 788 538 789 q 531 788 533 786 q 503 789 519 788 q 469 790 486 790 q 437 786 451 789 q 415 775 422 783 q 405 744 407 765 q 405 699 403 724 q 410 653 407 675 q 414 617 413 631 q 413 577 415 597 q 400 539 410 557 q 351 486 382 504 q 337 480 349 485 q 322 474 325 475 q 370 440 347 460 q 404 392 393 419 q 419 331 417 363 q 425 268 422 300 q 428 246 426 261 q 433 225 431 231 q 485 222 460 222 q 538 222 511 221 q 555 224 546 222 q 572 224 564 226 q 586 215 581 222 q 590 200 592 208 q 586 164 588 189 q 583 110 585 139 q 582 56 582 82 q 583 21 582 31 q 584 15 583 18 q 583 7 585 11 q 567 -10 581 -6 q 547 -21 560 -21 z "},"|":{"ha":499,"x_min":65,"x_max":432,"o":"m 397 -174 q 273 -178 335 -174 q 149 -174 211 -182 q 135 -172 142 -172 q 121 -172 128 -171 q 106 -174 118 -172 q 90 -175 93 -175 q 74 -157 76 -171 q 67 -145 68 -153 q 65 -131 65 -137 q 69 -72 67 -114 q 74 24 71 -31 q 81 138 78 78 q 86 253 83 199 q 91 349 89 307 q 94 407 93 390 q 100 703 101 556 q 113 1000 99 851 q 119 1013 113 1008 q 136 1018 126 1018 q 151 1022 140 1019 q 174 1026 161 1024 q 197 1029 186 1028 q 211 1031 207 1031 q 303 1034 257 1036 q 396 1029 350 1032 l 410 1029 q 425 1001 432 1024 l 425 992 q 415 843 422 917 q 408 694 408 769 q 408 603 407 649 q 406 511 408 557 q 401 426 403 468 q 399 340 399 383 q 400 251 399 296 q 403 161 401 206 q 404 109 403 149 q 406 24 406 69 q 408 -60 407 -21 q 411 -114 410 -100 q 415 -132 413 -124 q 418 -150 417 -140 q 415 -167 421 -160 q 397 -174 408 -174 z "},"}":{"ha":643,"x_min":54,"x_max":615,"o":"m 256 -25 q 176 -25 215 -26 q 96 -21 136 -24 q 76 -10 85 -21 q 60 7 63 -4 q 60 33 58 14 q 63 58 63 53 q 62 76 63 63 q 60 106 61 90 q 58 135 58 121 q 57 153 57 149 q 56 174 57 163 q 54 197 54 186 q 58 215 54 207 q 72 224 63 222 q 89 224 81 226 q 106 222 97 222 q 156 221 131 221 q 206 224 181 221 q 215 235 214 225 q 217 254 217 246 q 223 324 221 289 q 239 392 225 360 q 274 440 251 419 q 322 474 296 460 q 301 482 311 478 q 282 493 292 486 q 247 533 261 510 q 231 583 233 557 q 232 642 228 613 q 239 701 236 672 q 240 721 239 710 q 239 743 240 732 q 234 764 238 754 q 225 778 231 774 q 203 786 218 783 q 172 789 189 789 q 140 788 156 789 q 115 788 124 788 q 109 788 113 788 q 103 788 106 789 q 83 795 90 785 q 81 818 76 806 q 80 861 81 833 q 81 918 79 889 q 85 974 82 947 q 100 1011 89 1000 q 129 1027 111 1024 q 165 1031 147 1031 q 183 1031 171 1031 q 201 1028 196 1031 q 212 1026 204 1025 q 224 1029 219 1028 q 299 1018 261 1032 q 367 980 336 1004 q 422 922 399 956 q 453 851 444 889 q 459 772 461 813 q 456 692 457 732 q 461 636 453 661 q 476 608 465 621 q 497 583 486 594 q 567 539 529 556 q 585 531 571 536 q 603 522 600 525 q 608 515 607 519 q 611 506 608 510 q 606 482 615 493 q 585 464 596 471 q 560 451 572 457 q 538 436 549 444 q 505 385 515 415 q 489 324 494 354 q 481 241 481 283 q 479 157 482 199 q 472 103 476 129 q 451 54 467 76 q 396 1 431 18 q 328 -19 364 -14 q 256 -25 292 -24 z "},"~":{"ha":811,"x_min":29,"x_max":774,"o":"m 599 249 q 546 233 575 235 q 489 239 517 232 q 412 268 449 249 q 338 306 375 288 q 318 313 328 310 q 299 311 308 315 q 281 303 289 308 q 267 290 274 297 q 238 269 253 279 q 207 254 224 258 q 176 254 192 250 q 147 267 160 258 q 112 292 129 279 q 79 321 94 306 q 64 340 71 331 q 50 360 57 350 q 44 365 47 363 q 39 372 42 368 q 46 400 29 390 q 64 419 53 403 q 79 442 75 436 q 101 469 90 456 q 126 493 111 482 q 192 528 153 514 q 233 540 211 536 q 276 539 256 543 q 307 529 292 536 q 335 513 322 522 q 363 490 344 506 q 402 457 382 474 q 442 428 422 440 q 474 415 461 415 q 506 428 488 415 q 541 458 524 440 q 574 493 558 475 q 599 522 589 511 q 608 536 603 528 q 621 552 614 544 q 635 565 628 560 q 649 571 642 571 q 667 566 656 571 q 690 555 678 561 q 712 542 701 549 q 728 532 722 536 q 759 501 744 519 q 774 463 774 483 q 768 438 774 450 q 756 415 763 426 q 726 379 743 396 q 694 344 710 363 q 649 293 671 319 q 599 249 628 267 z "}," ":{"ha":347,"x_min":0,"x_max":0,"o":""},"¢":{"ha":657,"x_min":46,"x_max":599,"o":"m 340 -11 q 329 -12 336 -11 q 314 -12 322 -12 q 298 -12 306 -12 q 288 -11 290 -12 q 274 6 279 -8 q 270 18 269 11 q 272 32 271 25 q 276 85 275 60 q 278 139 278 111 q 202 166 239 146 q 136 214 165 186 q 95 264 113 236 q 69 322 78 292 q 54 488 46 401 q 94 649 63 574 q 126 708 107 679 q 169 758 144 736 q 227 793 194 781 q 293 813 260 806 q 292 835 293 818 q 289 872 290 853 q 287 909 288 892 q 286 932 286 926 q 296 951 286 943 q 317 960 306 958 q 380 964 349 965 q 443 963 411 963 q 451 962 446 963 q 458 961 457 961 q 480 953 472 964 q 481 931 488 942 q 478 906 479 924 q 474 869 476 889 q 470 833 472 850 q 468 810 468 815 q 486 806 474 808 q 513 801 499 804 q 541 794 528 797 q 558 789 554 792 q 577 774 568 783 q 585 753 586 764 q 583 738 582 746 q 582 721 583 729 q 581 685 582 703 q 576 650 579 668 q 575 629 576 646 q 572 607 574 613 q 549 594 565 592 q 542 592 546 594 q 535 590 538 590 q 501 591 525 589 q 451 597 478 593 q 401 605 425 601 q 368 608 378 608 q 348 608 360 608 q 324 605 336 607 q 302 599 313 603 q 288 590 292 596 q 275 565 279 582 q 269 528 271 547 q 267 490 267 508 q 268 461 267 472 q 274 422 271 442 q 285 383 276 401 q 308 357 293 365 q 356 350 328 350 q 388 351 365 350 q 436 353 411 351 q 483 359 461 356 q 515 365 506 363 q 526 369 518 367 q 538 374 535 372 q 560 376 549 382 q 575 357 571 369 q 577 347 578 351 q 578 336 576 342 q 580 316 578 331 q 584 284 582 301 q 588 251 586 267 q 592 231 590 236 q 597 192 594 211 q 581 168 599 172 l 578 168 q 519 147 550 154 q 458 135 489 139 q 463 24 458 79 q 463 17 463 21 q 463 10 464 14 q 443 -7 460 -7 q 408 -8 425 -7 q 372 -11 390 -10 q 356 -11 364 -12 q 340 -11 349 -10 z "},"£":{"ha":825,"x_min":53,"x_max":781,"o":"m 183 3 q 170 -8 178 -1 q 155 -18 163 -14 q 140 -23 147 -22 q 126 -18 132 -24 q 115 2 119 -12 q 108 33 111 17 q 102 66 104 50 q 99 90 100 82 q 92 115 96 101 q 93 139 89 128 q 110 155 96 146 q 129 168 124 164 q 178 215 157 188 q 211 274 200 242 q 219 313 218 293 q 218 351 219 332 q 214 381 218 365 q 210 380 214 382 q 203 378 206 378 l 140 382 q 107 376 124 383 q 74 369 90 369 q 59 376 65 369 q 53 390 53 382 q 54 460 53 426 q 64 529 56 494 q 66 550 58 543 q 88 559 74 557 q 118 562 101 561 q 150 564 135 563 q 173 563 156 564 q 196 563 190 563 q 182 635 185 596 q 176 720 176 678 q 182 804 175 763 q 214 903 189 854 q 281 983 239 953 q 377 1029 322 1015 q 485 1035 432 1043 q 574 1001 532 1028 q 653 944 617 975 q 686 914 669 929 q 711 879 703 899 q 718 859 714 872 q 726 830 722 846 q 734 800 731 814 q 738 779 738 786 q 722 760 738 764 q 706 746 718 749 q 678 740 699 744 q 636 732 658 736 q 594 724 614 728 q 567 718 574 719 q 563 718 565 718 q 558 717 560 718 q 537 715 547 710 q 522 731 526 719 q 508 775 517 753 q 485 814 500 797 q 450 838 469 833 q 401 821 422 844 q 392 800 394 811 q 386 778 389 789 q 383 700 379 739 q 394 624 386 661 q 402 596 397 608 q 413 569 407 583 q 488 567 450 569 q 563 565 525 564 q 578 565 569 565 q 592 558 586 564 q 606 542 603 553 q 606 535 607 539 q 606 529 606 532 q 602 467 601 497 q 606 406 603 438 q 606 399 606 403 q 607 390 607 394 q 586 372 604 372 q 571 368 578 367 q 501 369 536 368 q 432 368 467 371 q 428 298 432 333 q 413 231 424 263 q 455 210 433 219 q 500 197 476 201 q 526 196 513 196 q 550 199 539 196 q 593 224 576 206 q 604 240 596 226 q 615 257 613 254 q 633 265 622 265 q 649 254 643 264 q 711 213 681 235 q 772 168 742 190 q 781 152 781 163 q 776 132 781 142 q 745 78 763 104 q 704 32 728 51 q 650 3 681 13 q 588 -8 619 -6 q 487 -3 538 -11 q 386 13 436 6 q 300 19 343 19 q 214 13 257 19 q 199 10 207 11 q 183 3 190 8 z "},"¤":{"ha":756,"x_min":57,"x_max":703,"o":"m 178 79 q 160 83 171 78 q 135 94 150 86 q 106 113 121 103 q 78 135 90 124 q 61 154 65 146 q 59 171 57 161 q 65 188 61 181 q 108 246 86 217 q 156 301 129 275 q 110 394 124 342 q 96 497 96 446 q 100 548 96 522 q 115 597 104 574 q 132 628 122 613 q 153 658 142 643 q 117 709 133 683 q 83 763 100 735 q 72 781 76 771 q 71 801 67 790 q 78 819 71 811 q 93 835 86 828 q 108 846 97 839 q 130 860 118 853 q 153 874 142 868 q 168 883 164 881 q 194 880 182 892 q 217 856 207 868 q 231 833 221 850 q 253 797 242 815 q 276 760 265 778 q 289 738 286 743 q 384 745 336 743 q 476 732 432 747 q 520 795 500 763 q 564 857 540 828 q 588 864 574 868 q 614 851 603 860 q 629 837 618 847 q 653 815 640 826 q 676 792 665 803 q 690 778 686 782 q 694 755 701 767 q 675 735 686 743 q 631 694 651 717 q 592 647 611 671 q 628 587 613 619 q 647 518 643 554 q 647 460 649 489 q 636 388 644 424 q 606 325 628 353 q 631 288 618 306 q 660 254 644 271 q 680 233 664 249 q 699 211 696 218 q 701 192 703 204 q 693 174 699 181 q 628 128 665 147 q 594 110 613 119 q 565 114 576 101 q 558 120 563 118 q 550 126 553 122 q 514 183 532 156 q 476 239 496 211 q 281 219 381 203 q 264 194 276 213 q 237 153 251 175 q 209 113 222 132 q 192 89 196 94 q 178 79 183 81 m 358 397 q 414 400 383 396 q 433 408 424 403 q 447 419 442 413 q 460 446 457 431 q 465 476 463 461 q 466 499 467 485 q 463 527 465 513 q 457 553 461 542 q 446 572 453 565 q 434 576 442 575 q 417 576 426 576 q 400 576 408 576 q 388 575 392 575 q 382 573 386 575 q 376 571 378 571 q 351 571 364 571 q 326 565 338 571 q 303 545 313 558 q 290 515 294 532 q 285 481 286 499 q 288 449 285 464 q 296 429 290 439 q 310 413 301 419 q 333 402 319 406 q 358 397 346 399 z "},"¥":{"ha":893,"x_min":36,"x_max":858,"o":"m 363 -11 q 338 -12 356 -11 q 314 -11 321 -14 q 299 16 300 -6 q 299 53 299 38 q 304 114 300 83 q 306 175 308 144 q 284 175 300 175 q 250 174 268 175 q 216 173 232 174 q 194 171 200 172 q 174 176 183 168 q 168 194 165 183 q 169 213 169 200 q 170 240 169 226 q 173 267 171 254 q 179 283 175 279 q 188 289 182 288 q 200 290 194 290 q 251 290 226 289 q 303 293 276 290 l 303 324 q 251 323 276 322 q 201 324 226 324 q 179 344 179 324 q 180 361 179 350 q 182 384 181 372 q 185 407 183 396 q 190 422 188 418 q 193 440 188 432 q 210 447 199 447 q 254 448 232 447 q 299 449 276 449 q 278 474 286 458 q 255 506 272 482 q 219 558 238 531 q 183 610 200 586 q 161 643 167 635 q 137 691 154 656 q 100 767 119 726 q 64 843 81 807 q 42 893 47 879 q 38 900 40 896 q 36 908 36 904 q 53 937 36 924 q 85 956 71 950 q 118 968 94 960 q 168 985 142 976 q 219 1001 194 994 q 253 1010 243 1008 q 272 1003 263 1011 q 279 1001 274 1001 q 293 983 290 997 q 343 890 321 939 q 386 793 365 842 q 422 714 403 753 q 463 638 440 675 q 476 674 467 649 q 499 734 486 700 q 525 806 511 768 q 551 878 539 844 q 574 938 564 913 q 588 975 583 964 q 592 982 588 978 q 597 989 596 986 q 610 1005 600 1000 q 632 1006 621 1010 q 693 974 663 993 q 762 940 725 953 q 835 914 799 926 q 852 906 846 914 q 856 886 858 897 q 836 848 851 875 q 803 790 821 821 q 770 733 786 760 q 749 697 754 707 q 730 663 744 689 q 699 609 715 638 q 667 556 682 581 q 649 522 653 531 q 622 482 636 501 q 597 440 608 463 q 615 439 601 440 q 643 437 628 438 q 672 435 658 436 q 690 435 686 435 q 706 431 697 433 q 718 422 714 429 q 722 402 721 417 q 722 382 722 388 q 723 371 722 378 q 724 356 724 364 q 725 340 725 347 q 724 329 725 332 q 712 317 721 322 q 696 313 703 313 q 638 310 667 311 q 582 313 610 310 q 582 298 582 306 q 581 283 582 290 q 628 285 604 285 q 676 285 653 285 q 694 285 681 285 q 713 283 708 285 q 726 267 724 279 q 731 260 728 264 q 733 254 733 257 q 733 240 733 250 q 733 219 733 231 q 734 197 733 207 q 735 183 735 188 q 727 166 735 174 q 711 157 719 158 q 644 152 678 154 q 578 151 611 150 q 581 91 579 121 q 586 31 582 61 q 589 18 589 22 q 583 3 589 10 q 568 -3 578 -3 q 539 -4 561 -3 q 492 -6 517 -6 q 444 -8 467 -7 q 414 -10 421 -10 q 389 -9 401 -10 q 363 -11 376 -8 z "},"­":{"ha":0,"x_min":0,"x_max":0,"o":""},"±":{"ha":693,"x_min":53,"x_max":642,"o":"m 368 261 q 342 261 360 261 q 306 263 325 261 q 270 267 288 264 q 246 272 253 269 q 225 290 231 278 q 232 314 219 303 q 233 332 232 318 q 234 361 233 346 q 235 391 235 376 q 236 410 236 406 q 204 410 221 410 q 172 413 188 411 q 140 411 157 413 q 108 407 124 410 q 90 411 97 406 q 82 428 82 417 q 82 432 82 432 q 74 487 78 460 q 71 542 71 514 q 72 553 71 546 q 75 570 74 561 q 78 587 76 579 q 81 597 79 594 q 101 611 85 611 q 110 615 104 614 q 119 617 115 617 q 179 617 150 615 q 239 621 208 619 q 238 648 239 628 q 237 691 238 668 q 235 734 236 714 q 235 761 235 754 q 237 767 235 764 q 239 775 239 771 q 256 796 239 792 q 291 797 265 797 q 346 794 317 796 q 400 792 375 793 q 436 789 425 790 q 453 778 447 788 q 451 757 458 768 q 444 683 447 721 q 440 608 440 646 q 467 608 447 608 q 510 608 488 608 q 552 608 532 608 q 579 606 572 607 q 587 603 582 606 q 593 601 592 601 q 608 595 603 601 q 614 581 614 589 q 614 553 614 574 q 613 509 614 532 q 613 465 613 486 q 613 438 613 444 q 594 414 615 418 q 579 407 590 407 q 513 411 546 406 q 446 419 479 417 l 446 347 q 447 335 446 344 q 448 317 447 326 q 449 299 449 307 q 450 288 450 290 q 421 267 447 261 q 394 264 415 265 q 368 261 374 263 m 133 -7 q 92 -8 115 -8 q 63 8 69 -7 q 54 31 53 18 q 56 56 56 38 q 57 94 57 74 q 56 132 57 114 q 56 157 56 150 q 62 176 56 168 q 79 183 68 183 q 122 179 101 183 q 165 174 143 175 q 266 176 215 171 q 367 185 317 182 q 428 188 397 188 q 489 190 458 188 q 513 192 494 190 q 551 194 531 193 q 589 197 571 196 q 613 199 607 199 q 631 190 625 200 q 633 169 638 181 q 636 140 635 161 q 639 95 638 118 q 641 51 640 72 q 640 22 642 31 q 628 7 638 11 q 608 8 618 3 q 506 -2 557 3 q 404 -8 456 -7 q 269 -6 336 -8 q 133 -7 201 -4 z "},"×":{"ha":688,"x_min":44,"x_max":643,"o":"m 540 174 q 516 156 529 164 q 488 150 503 149 q 452 167 468 153 q 422 194 436 181 q 407 212 418 199 q 382 240 396 225 q 357 269 368 256 q 342 286 346 282 q 317 259 335 278 q 281 219 300 240 q 243 181 261 199 q 215 157 225 163 q 203 151 210 153 q 189 151 196 150 q 162 165 178 153 q 130 190 146 176 q 99 218 114 204 q 78 240 85 232 q 60 261 68 250 q 51 285 53 272 q 57 314 50 300 q 75 339 64 328 q 94 360 79 344 q 128 392 110 375 q 161 425 146 410 q 182 446 176 440 q 159 467 176 451 q 123 501 142 483 q 88 536 104 519 q 65 560 71 553 q 58 617 44 588 q 84 651 68 636 q 115 685 100 667 q 124 697 121 690 q 133 710 128 703 q 143 719 136 713 q 158 731 150 725 q 174 742 167 738 q 186 749 182 747 q 201 749 193 751 q 214 739 210 746 q 281 683 250 714 q 340 618 313 651 q 360 640 346 624 q 390 675 374 657 q 422 709 407 693 q 442 731 436 725 q 499 742 467 754 q 543 710 524 731 q 586 676 563 690 q 613 650 596 671 q 636 618 631 629 q 628 590 643 603 q 568 515 601 550 q 499 447 535 479 q 526 420 507 439 q 567 380 546 401 q 607 339 589 358 q 631 310 625 319 q 635 282 638 296 q 620 256 632 271 q 593 224 608 240 q 563 194 578 208 q 540 174 549 181 z "},"÷":{"ha":747,"x_min":40,"x_max":708,"o":"m 457 617 q 408 567 447 578 q 331 568 369 557 q 304 580 317 572 q 285 599 292 588 q 278 617 281 606 q 274 642 275 629 q 274 666 272 654 q 279 686 275 678 q 315 724 290 713 q 344 733 328 729 q 378 738 361 736 q 410 736 394 739 q 436 725 426 733 q 450 704 444 718 q 458 674 456 690 q 460 643 460 658 q 457 617 460 628 m 161 292 q 100 292 129 289 q 54 325 64 293 q 47 379 44 351 q 42 433 49 407 q 40 450 40 439 q 42 472 40 461 q 45 494 43 483 q 49 510 47 504 q 60 521 51 517 q 75 522 68 525 q 192 531 133 533 q 310 525 251 529 q 383 522 346 522 q 457 524 421 522 q 491 524 465 524 q 546 525 517 525 q 601 526 575 525 q 635 526 626 526 q 668 522 650 525 q 696 506 686 519 q 704 476 701 496 q 708 435 707 457 q 708 394 708 414 q 707 363 707 374 q 703 337 706 350 q 693 314 701 324 q 658 296 679 300 q 633 294 651 294 q 595 294 615 294 q 557 296 575 294 q 532 297 539 297 q 347 298 439 301 q 161 292 254 294 m 446 124 q 428 92 442 104 q 397 76 415 81 q 358 71 379 71 q 318 76 338 71 q 292 87 306 79 q 272 106 279 94 q 262 149 264 119 q 267 193 260 178 q 283 215 272 206 q 304 231 293 225 q 332 240 315 236 q 366 245 349 244 q 399 243 383 246 q 425 232 415 240 q 439 211 433 225 q 447 181 444 197 q 449 150 449 165 q 446 124 449 135 z "},"‘":{"ha":271,"x_min":42,"x_max":226,"o":"m 194 711 q 175 702 188 706 q 148 698 163 699 q 119 697 133 697 q 97 699 106 697 q 64 728 68 703 q 61 763 63 736 q 58 821 60 790 q 54 878 56 851 q 51 914 53 906 q 48 931 50 919 q 44 956 46 943 q 42 980 43 968 q 44 997 42 992 q 56 1010 47 1006 q 71 1018 64 1015 q 96 1021 79 1019 q 131 1023 113 1022 q 167 1022 150 1024 q 192 1019 183 1021 q 221 997 213 1015 q 226 981 225 990 q 226 964 226 972 q 225 926 226 954 q 222 867 224 899 q 217 807 219 835 q 214 769 215 779 q 210 738 213 754 q 194 711 207 721 z "},"’":{"ha":271,"x_min":42,"x_max":226,"o":"m 194 711 q 175 702 188 706 q 148 698 163 699 q 119 697 133 697 q 97 699 106 697 q 64 728 68 703 q 61 763 63 736 q 58 821 60 790 q 54 878 56 851 q 51 914 53 906 q 48 931 50 919 q 44 956 46 943 q 42 980 43 968 q 44 997 42 992 q 56 1010 47 1006 q 71 1018 64 1015 q 96 1021 79 1019 q 131 1023 113 1022 q 167 1022 150 1024 q 192 1019 183 1021 q 221 997 213 1015 q 226 981 225 990 q 226 964 226 972 q 225 926 226 954 q 222 867 224 899 q 217 807 219 835 q 214 769 215 779 q 210 738 213 754 q 194 711 207 721 z "},"“":{"ha":526,"x_min":42,"x_max":482,"o":"m 194 710 q 175 701 188 704 q 148 698 163 699 q 119 697 133 697 q 97 699 106 697 q 64 728 68 703 q 61 763 63 736 q 58 821 60 790 q 54 878 56 851 q 51 914 53 906 q 48 931 50 919 q 44 956 46 943 q 42 980 43 968 q 44 997 42 992 q 56 1010 47 1004 q 71 1018 64 1015 q 96 1021 79 1019 q 131 1023 113 1022 q 167 1022 150 1024 q 192 1019 183 1021 q 221 997 213 1015 q 226 981 225 990 q 226 964 226 972 q 225 926 226 954 q 222 867 224 899 q 217 807 219 835 q 214 769 215 779 q 210 738 213 754 q 194 710 207 721 m 450 699 q 431 690 443 693 q 403 687 418 688 q 374 686 388 686 q 351 688 360 686 q 318 717 325 689 q 315 752 317 725 q 312 809 314 779 q 308 866 310 839 q 306 901 307 893 q 303 919 304 907 q 300 944 301 931 q 298 968 299 957 q 300 985 297 979 q 310 998 303 993 q 326 1006 318 1003 q 351 1009 335 1007 q 387 1011 368 1011 q 422 1010 406 1011 q 447 1007 439 1010 q 464 999 456 1004 q 476 985 472 993 q 481 969 481 978 q 482 951 482 960 q 481 914 482 942 q 477 854 479 886 q 473 794 475 822 q 469 757 471 767 q 465 726 468 742 q 450 699 461 710 z "},"”":{"ha":526,"x_min":42,"x_max":482,"o":"m 194 710 q 175 701 188 704 q 148 698 163 699 q 119 697 133 697 q 97 699 106 697 q 64 728 68 703 q 61 763 63 736 q 58 821 60 790 q 54 878 56 851 q 51 914 53 906 q 48 931 50 919 q 44 956 46 943 q 42 980 43 968 q 44 997 42 992 q 56 1010 47 1004 q 71 1018 64 1015 q 96 1021 79 1019 q 131 1023 113 1022 q 167 1022 150 1024 q 192 1019 183 1021 q 221 997 213 1015 q 226 981 225 990 q 226 964 226 972 q 225 926 226 954 q 222 867 224 899 q 217 807 219 835 q 214 769 215 779 q 210 738 213 754 q 194 710 207 721 m 450 699 q 431 690 443 693 q 403 687 418 688 q 374 686 388 686 q 351 688 360 686 q 318 717 325 689 q 315 752 317 725 q 312 809 314 779 q 308 866 310 839 q 306 901 307 893 q 303 919 304 907 q 300 944 301 931 q 298 968 299 957 q 300 985 297 979 q 310 998 303 993 q 326 1006 318 1003 q 351 1009 335 1007 q 387 1011 368 1011 q 422 1010 406 1011 q 447 1007 439 1010 q 464 999 456 1004 q 476 985 472 993 q 481 969 481 978 q 482 951 482 960 q 481 914 482 942 q 477 854 479 886 q 473 794 475 822 q 469 757 471 767 q 465 726 468 742 q 450 699 461 710 z "},"€":{"ha":872,"x_min":49,"x_max":821,"o":"m 619 4 q 533 -27 579 -18 q 440 -33 486 -36 q 363 -19 401 -31 q 293 15 325 -8 q 228 84 256 43 q 186 169 201 125 q 172 235 175 201 q 168 303 168 269 q 152 303 164 303 q 128 304 140 304 q 104 305 115 304 q 89 306 93 306 q 72 321 75 308 q 65 326 71 324 q 61 338 61 332 q 61 356 61 342 q 61 385 61 369 q 61 413 61 400 q 61 432 61 426 q 67 451 61 443 q 85 458 74 460 q 135 451 110 456 q 185 446 160 447 l 185 489 q 165 490 179 489 q 136 492 151 492 q 107 494 121 493 q 88 494 93 494 q 81 492 86 494 q 75 489 76 489 q 58 492 64 486 q 51 509 53 499 q 49 533 49 519 q 51 557 50 546 q 53 571 51 561 q 58 592 56 581 q 60 613 60 603 q 61 626 61 622 q 72 647 58 642 q 101 651 86 653 q 149 647 125 650 q 197 647 174 644 q 199 649 200 647 q 197 653 197 650 q 229 798 203 726 q 304 926 256 869 q 337 961 319 944 q 376 988 354 978 q 419 1001 397 996 q 463 1011 440 1007 q 508 1016 486 1015 q 554 1019 531 1017 q 657 998 607 1022 q 743 938 707 974 q 787 865 772 907 q 811 783 801 824 q 814 769 813 779 q 817 746 815 758 q 819 723 818 733 q 819 708 819 713 q 813 692 821 699 q 796 683 806 685 q 733 674 764 678 q 669 667 701 669 q 643 665 656 665 q 617 661 631 664 q 590 674 600 657 q 578 694 579 681 q 572 719 576 708 q 532 761 560 747 q 476 758 504 775 q 458 742 465 751 q 446 721 451 732 q 428 639 425 681 q 488 635 458 638 q 549 633 518 633 l 567 633 q 585 625 576 631 q 593 610 593 619 q 591 592 593 600 q 588 574 589 583 q 588 561 588 571 q 588 541 588 551 q 588 522 588 531 q 588 510 588 513 q 579 496 586 501 q 564 493 572 490 q 535 496 556 494 q 491 499 514 497 q 447 503 468 501 q 418 504 426 504 l 418 444 q 551 449 485 449 q 573 449 563 456 q 582 431 583 442 q 581 409 582 425 q 580 376 581 393 q 578 343 579 358 q 576 322 578 328 q 567 308 575 313 q 550 306 558 303 l 549 306 q 485 310 517 308 q 421 314 453 311 q 422 271 421 293 q 429 229 422 249 q 440 208 433 218 q 457 190 446 197 q 478 186 465 185 q 506 193 492 188 q 533 206 519 199 q 554 218 546 213 q 594 271 583 236 q 603 294 597 282 q 619 308 608 306 q 632 313 625 313 q 644 310 639 313 q 708 279 676 294 q 774 257 739 264 q 787 247 783 254 q 790 230 790 240 q 785 208 789 219 q 778 186 782 196 q 714 81 756 129 q 619 4 672 32 z "},"™":{"ha":971,"x_min":39,"x_max":925,"o":"m 281 607 q 265 603 276 603 q 242 604 254 603 q 219 607 231 606 q 201 608 207 608 q 181 606 190 608 q 160 604 171 603 q 138 615 147 607 q 135 635 129 624 l 135 638 q 138 753 138 696 q 136 868 138 810 q 122 867 132 868 q 101 865 113 865 q 81 864 90 864 q 67 864 71 864 q 55 872 60 865 q 50 886 50 879 q 46 906 47 892 q 42 935 44 919 q 40 964 40 950 q 39 985 39 978 q 51 1004 39 999 q 78 1010 64 1010 q 90 1010 81 1010 q 108 1009 99 1010 q 127 1008 118 1008 q 139 1008 136 1008 q 178 1010 149 1008 q 242 1015 208 1013 q 306 1021 276 1018 q 346 1024 335 1024 q 355 1023 349 1024 q 363 1022 361 1022 q 381 1017 374 1025 q 388 999 389 1010 q 385 976 385 988 q 383 953 385 964 q 380 926 382 946 q 379 900 378 907 q 382 890 382 894 q 370 872 382 878 q 347 875 358 867 q 317 875 332 875 q 286 872 301 875 q 288 825 286 860 q 291 751 289 790 q 296 678 293 713 q 301 631 299 643 q 297 614 303 621 q 281 607 290 607 m 571 608 q 563 589 571 597 q 543 581 554 581 q 522 581 536 581 q 490 581 507 581 q 459 583 474 582 q 439 586 444 583 q 425 606 425 590 q 428 640 425 615 q 434 697 431 665 q 442 763 438 728 q 451 830 447 799 q 458 885 456 861 q 463 919 461 910 q 463 934 463 924 q 465 956 464 944 q 467 978 465 968 q 471 992 468 988 q 483 1001 476 1000 q 490 1010 486 1006 q 500 1014 494 1014 q 523 1017 510 1015 q 549 1017 536 1018 q 574 1013 563 1017 q 589 1001 585 1010 q 592 993 590 1000 q 596 983 594 986 q 612 955 600 975 q 638 913 624 935 q 664 871 651 890 q 682 844 676 851 q 697 878 690 861 q 710 914 703 896 q 728 957 718 936 q 751 997 738 978 q 764 1007 756 1004 q 779 1006 772 1010 q 803 1011 785 1008 q 826 1014 821 1014 q 847 1006 839 1017 q 866 1008 857 1013 q 878 992 875 1003 q 878 985 878 990 q 879 979 879 981 q 894 822 886 900 q 917 667 903 744 q 922 641 918 660 q 924 615 925 622 q 918 605 922 611 q 911 596 914 599 q 894 592 907 593 q 878 589 882 590 q 865 588 874 589 q 847 585 857 586 q 827 583 836 583 q 814 583 818 583 q 799 593 807 585 q 792 608 792 601 q 784 691 788 650 q 778 774 781 732 q 751 729 765 750 q 726 685 738 708 q 704 672 719 669 q 692 673 701 674 q 672 672 682 672 q 652 672 661 672 q 640 674 643 672 q 630 683 635 675 q 622 696 625 692 q 601 743 611 719 q 576 786 592 767 q 574 751 575 776 q 571 698 572 726 q 569 644 569 669 q 571 608 569 618 z "},"−":{"ha":744,"x_min":39,"x_max":707,"o":"m 160 292 q 99 292 128 289 q 53 325 63 293 q 45 379 43 351 q 40 433 47 407 q 39 450 39 439 q 40 472 39 461 q 44 494 42 483 q 47 510 46 504 q 58 521 50 517 q 74 522 67 525 q 191 531 132 533 q 308 525 250 529 q 382 522 344 522 q 456 524 419 522 q 490 524 464 524 q 544 525 515 525 q 599 526 574 525 q 633 526 625 526 q 667 522 649 525 q 694 506 685 519 q 703 476 700 496 q 706 435 706 457 q 706 394 707 414 q 706 363 706 374 q 702 337 704 350 q 692 314 700 324 q 657 296 678 300 q 632 294 650 294 q 594 294 614 294 q 556 296 574 294 q 531 297 538 297 q 345 298 438 301 q 160 292 253 294 z "}}}
